<svg width="493" height="566" viewBox="0 0 493 566" fill="none" xmlns="http://www.w3.org/2000/svg">
<g opacity="0.4">
<path d="M493 3.65387V6.08971H489.812V9.74346H487.687V6.08971H484.5V3.65387H487.687V0.00012207H489.812V3.65387H493Z" fill="#B0B0B0" fill-opacity="0.4"/>
<path d="M493 32.8839V35.3197H489.812V38.9734H487.687V35.3197H484.5V32.8839H487.687V29.2301H489.812V32.8839H493Z" fill="#B0B0B0" fill-opacity="0.4"/>
<path d="M493 62.1137V64.5495H489.812V68.2033H487.687V64.5495H484.5V62.1137H487.687V58.46H489.812V62.1137H493Z" fill="#B0B0B0" fill-opacity="0.4"/>
<path d="M493 91.3439V93.7798H489.812V97.4335H487.687V93.7798H484.5V91.3439H487.687V87.6902H489.812V91.3439H493Z" fill="#B0B0B0" fill-opacity="0.4"/>
<path d="M493 120.574V123.01H489.812V126.663H487.687V123.01H484.5V120.574H487.687V116.92H489.812V120.574H493Z" fill="#B0B0B0" fill-opacity="0.4"/>
<path d="M493 149.804V152.24H489.812V155.893H487.687V152.24H484.5V149.804H487.687V146.15H489.812V149.804H493Z" fill="#B0B0B0" fill-opacity="0.4"/>
<path d="M493 179.034V181.47H489.812V185.123H487.687V181.47H484.5V179.034H487.687V175.38H489.812V179.034H493Z" fill="#B0B0B0" fill-opacity="0.4"/>
<path d="M493 208.264V210.699H489.812V214.353H487.687V210.699H484.5V208.264H487.687V204.61H489.812V208.264H493Z" fill="#B0B0B0" fill-opacity="0.4"/>
<path d="M493 237.494V239.929H489.812V243.583H487.687V239.929H484.5V237.494H487.687V233.84H489.812V237.494H493Z" fill="#B0B0B0" fill-opacity="0.4"/>
<path d="M493 266.724V269.16H489.812V272.813H487.687V269.16H484.5V266.724H487.687V263.07H489.812V266.724H493Z" fill="#B0B0B0" fill-opacity="0.4"/>
<path d="M493 295.954V298.389H489.812V302.043H487.687V298.389H484.5V295.954H487.687V292.3H489.812V295.954H493Z" fill="#B0B0B0" fill-opacity="0.4"/>
<path d="M493 325.184V327.62H489.812V331.273H487.687V327.62H484.5V325.184H487.687V321.53H489.812V325.184H493Z" fill="#B0B0B0" fill-opacity="0.4"/>
<path d="M493 354.414V356.85H489.812V360.503H487.687V356.85H484.5V354.414H487.687V350.76H489.812V354.414H493Z" fill="#B0B0B0" fill-opacity="0.4"/>
<path d="M493 383.644V386.08H489.812V389.734H487.687V386.08H484.5V383.644H487.687V379.99H489.812V383.644H493Z" fill="#B0B0B0" fill-opacity="0.4"/>
<path d="M493 412.874V415.309H489.812V418.963H487.687V415.309H484.5V412.874H487.687V409.22H489.812V412.874H493Z" fill="#B0B0B0" fill-opacity="0.4"/>
<path d="M493 442.104V444.54H489.812V448.193H487.687V444.54H484.5V442.104H487.687V438.45H489.812V442.104H493Z" fill="#B0B0B0" fill-opacity="0.4"/>
<path d="M493 471.334V473.769H489.812V477.423H487.687V473.769H484.5V471.334H487.687V467.68H489.812V471.334H493Z" fill="#B0B0B0" fill-opacity="0.4"/>
<path d="M493 500.564V503H489.812V506.653H487.687V503H484.5V500.564H487.687V496.91H489.812V500.564H493Z" fill="#B0B0B0" fill-opacity="0.4"/>
<path d="M493 529.794V532.23H489.812V535.883H487.687V532.23H484.5V529.794H487.687V526.14H489.812V529.794H493Z" fill="#B0B0B0" fill-opacity="0.4"/>
<path d="M493 559.024V561.46H489.812V565.113H487.687V561.46H484.5V559.024H487.687V555.37H489.812V559.024H493Z" fill="#B0B0B0" fill-opacity="0.4"/>
<path d="M467.5 3.65387V6.08971H464.313V9.74346H462.188V6.08971H459V3.65387H462.188V0.00012207H464.313V3.65387H467.5Z" fill="#B0B0B0" fill-opacity="0.4"/>
<path d="M467.501 32.8839V35.3197H464.313V38.9734H462.188V35.3197H459.001V32.8839H462.188V29.2301H464.313V32.8839H467.501Z" fill="#B0B0B0" fill-opacity="0.4"/>
<path d="M467.501 62.1137V64.5495H464.313V68.2033H462.188V64.5495H459.001V62.1137H462.188V58.46H464.313V62.1137H467.501Z" fill="#B0B0B0" fill-opacity="0.4"/>
<path d="M467.501 91.3439V93.7798H464.313V97.4335H462.188V93.7798H459.001V91.3439H462.188V87.6902H464.313V91.3439H467.501Z" fill="#B0B0B0" fill-opacity="0.4"/>
<path d="M467.501 120.574V123.01H464.313V126.663H462.188V123.01H459.001V120.574H462.188V116.92H464.313V120.574H467.501Z" fill="#B0B0B0" fill-opacity="0.4"/>
<path d="M467.501 149.804V152.24H464.313V155.893H462.188V152.24H459.001V149.804H462.188V146.15H464.313V149.804H467.501Z" fill="#B0B0B0" fill-opacity="0.4"/>
<path d="M467.501 179.034V181.47H464.313V185.123H462.188V181.47H459.001V179.034H462.188V175.38H464.313V179.034H467.501Z" fill="#B0B0B0" fill-opacity="0.4"/>
<path d="M467.501 208.264V210.699H464.313V214.353H462.188V210.699H459.001V208.264H462.188V204.61H464.313V208.264H467.501Z" fill="#B0B0B0" fill-opacity="0.4"/>
<path d="M467.501 237.494V239.929H464.313V243.583H462.188V239.929H459.001V237.494H462.188V233.84H464.313V237.494H467.501Z" fill="#B0B0B0" fill-opacity="0.4"/>
<path d="M467.501 266.724V269.16H464.313V272.813H462.188V269.16H459.001V266.724H462.188V263.07H464.313V266.724H467.501Z" fill="#B0B0B0" fill-opacity="0.4"/>
<path d="M467.501 295.954V298.389H464.313V302.043H462.188V298.389H459.001V295.954H462.188V292.3H464.313V295.954H467.501Z" fill="#B0B0B0" fill-opacity="0.4"/>
<path d="M467.501 325.184V327.62H464.313V331.273H462.188V327.62H459.001V325.184H462.188V321.53H464.313V325.184H467.501Z" fill="#B0B0B0" fill-opacity="0.4"/>
<path d="M467.501 354.414V356.85H464.313V360.503H462.188V356.85H459.001V354.414H462.188V350.76H464.313V354.414H467.501Z" fill="#B0B0B0" fill-opacity="0.4"/>
<path d="M467.501 383.644V386.08H464.313V389.734H462.188V386.08H459.001V383.644H462.188V379.99H464.313V383.644H467.501Z" fill="#B0B0B0" fill-opacity="0.4"/>
<path d="M467.501 412.874V415.309H464.313V418.963H462.188V415.309H459.001V412.874H462.188V409.22H464.313V412.874H467.501Z" fill="#B0B0B0" fill-opacity="0.4"/>
<path d="M467.501 442.104V444.54H464.313V448.193H462.188V444.54H459.001V442.104H462.188V438.45H464.313V442.104H467.501Z" fill="#B0B0B0" fill-opacity="0.4"/>
<path d="M467.501 471.334V473.769H464.313V477.423H462.188V473.769H459.001V471.334H462.188V467.68H464.313V471.334H467.501Z" fill="#B0B0B0" fill-opacity="0.4"/>
<path d="M467.501 500.564V503H464.313V506.653H462.188V503H459.001V500.564H462.188V496.91H464.313V500.564H467.501Z" fill="#B0B0B0" fill-opacity="0.4"/>
<path d="M467.501 529.794V532.23H464.313V535.883H462.188V532.23H459.001V529.794H462.188V526.14H464.313V529.794H467.501Z" fill="#B0B0B0" fill-opacity="0.4"/>
<path d="M467.501 559.024V561.46H464.313V565.113H462.188V561.46H459.001V559.024H462.188V555.37H464.313V559.024H467.501Z" fill="#B0B0B0" fill-opacity="0.4"/>
<path d="M442 3.65387V6.08971H438.813V9.74346H436.688V6.08971H433.5V3.65387H436.688V0.00012207H438.813V3.65387H442Z" fill="#B0B0B0" fill-opacity="0.4"/>
<path d="M442 32.8839V35.3197H438.813V38.9734H436.688V35.3197H433.5V32.8839H436.688V29.2301H438.813V32.8839H442Z" fill="#B0B0B0" fill-opacity="0.4"/>
<path d="M442 62.1137V64.5495H438.813V68.2033H436.688V64.5495H433.5V62.1137H436.688V58.46H438.813V62.1137H442Z" fill="#B0B0B0" fill-opacity="0.4"/>
<path d="M442 91.3439V93.7798H438.813V97.4335H436.688V93.7798H433.5V91.3439H436.688V87.6902H438.813V91.3439H442Z" fill="#B0B0B0" fill-opacity="0.4"/>
<path d="M442 120.574V123.01H438.813V126.663H436.688V123.01H433.5V120.574H436.688V116.92H438.813V120.574H442Z" fill="#B0B0B0" fill-opacity="0.4"/>
<path d="M442 149.804V152.24H438.813V155.893H436.688V152.24H433.5V149.804H436.688V146.15H438.813V149.804H442Z" fill="#B0B0B0" fill-opacity="0.4"/>
<path d="M442 179.034V181.47H438.813V185.123H436.688V181.47H433.5V179.034H436.688V175.38H438.813V179.034H442Z" fill="#B0B0B0" fill-opacity="0.4"/>
<path d="M442 208.264V210.699H438.813V214.353H436.688V210.699H433.5V208.264H436.688V204.61H438.813V208.264H442Z" fill="#B0B0B0" fill-opacity="0.4"/>
<path d="M442 237.494V239.929H438.813V243.583H436.688V239.929H433.5V237.494H436.688V233.84H438.813V237.494H442Z" fill="#B0B0B0" fill-opacity="0.4"/>
<path d="M442 266.724V269.16H438.813V272.813H436.688V269.16H433.5V266.724H436.688V263.07H438.813V266.724H442Z" fill="#B0B0B0" fill-opacity="0.4"/>
<path d="M442 295.954V298.389H438.813V302.043H436.688V298.389H433.5V295.954H436.688V292.3H438.813V295.954H442Z" fill="#B0B0B0" fill-opacity="0.4"/>
<path d="M442 325.184V327.62H438.813V331.273H436.688V327.62H433.5V325.184H436.688V321.53H438.813V325.184H442Z" fill="#B0B0B0" fill-opacity="0.4"/>
<path d="M442 354.414V356.85H438.813V360.503H436.688V356.85H433.5V354.414H436.688V350.76H438.813V354.414H442Z" fill="#B0B0B0" fill-opacity="0.4"/>
<path d="M442 383.644V386.08H438.813V389.734H436.688V386.08H433.5V383.644H436.688V379.99H438.813V383.644H442Z" fill="#B0B0B0" fill-opacity="0.4"/>
<path d="M442 412.874V415.309H438.813V418.963H436.688V415.309H433.5V412.874H436.688V409.22H438.813V412.874H442Z" fill="#B0B0B0" fill-opacity="0.4"/>
<path d="M442 442.104V444.54H438.813V448.193H436.688V444.54H433.5V442.104H436.688V438.45H438.813V442.104H442Z" fill="#B0B0B0" fill-opacity="0.4"/>
<path d="M442 471.334V473.769H438.813V477.423H436.688V473.769H433.5V471.334H436.688V467.68H438.813V471.334H442Z" fill="#B0B0B0" fill-opacity="0.4"/>
<path d="M442 500.564V503H438.813V506.653H436.688V503H433.5V500.564H436.688V496.91H438.813V500.564H442Z" fill="#B0B0B0" fill-opacity="0.4"/>
<path d="M442 529.794V532.23H438.813V535.883H436.688V532.23H433.5V529.794H436.688V526.14H438.813V529.794H442Z" fill="#B0B0B0" fill-opacity="0.4"/>
<path d="M442 559.024V561.46H438.813V565.113H436.688V561.46H433.5V559.024H436.688V555.37H438.813V559.024H442Z" fill="#B0B0B0" fill-opacity="0.4"/>
<path d="M416.501 3.65387V6.08971H413.313V9.74346H411.188V6.08971H408.001V3.65387H411.188V0.00012207H413.313V3.65387H416.501Z" fill="#B0B0B0" fill-opacity="0.4"/>
<path d="M416.5 32.8839V35.3197H413.313V38.9734H411.188V35.3197H408V32.8839H411.188V29.2301H413.313V32.8839H416.5Z" fill="#B0B0B0" fill-opacity="0.4"/>
<path d="M416.5 62.1137V64.5495H413.313V68.2033H411.188V64.5495H408V62.1137H411.188V58.46H413.313V62.1137H416.5Z" fill="#B0B0B0" fill-opacity="0.4"/>
<path d="M416.5 91.3439V93.7798H413.313V97.4335H411.188V93.7798H408V91.3439H411.188V87.6902H413.313V91.3439H416.5Z" fill="#B0B0B0" fill-opacity="0.4"/>
<path d="M416.5 120.574V123.01H413.313V126.663H411.188V123.01H408V120.574H411.188V116.92H413.313V120.574H416.5Z" fill="#B0B0B0" fill-opacity="0.4"/>
<path d="M416.5 149.804V152.24H413.313V155.893H411.188V152.24H408V149.804H411.188V146.15H413.313V149.804H416.5Z" fill="#B0B0B0" fill-opacity="0.4"/>
<path d="M416.5 179.034V181.47H413.313V185.123H411.188V181.47H408V179.034H411.188V175.38H413.313V179.034H416.5Z" fill="#B0B0B0" fill-opacity="0.4"/>
<path d="M416.5 208.264V210.699H413.313V214.353H411.188V210.699H408V208.264H411.188V204.61H413.313V208.264H416.5Z" fill="#B0B0B0" fill-opacity="0.4"/>
<path d="M416.5 237.494V239.929H413.313V243.583H411.188V239.929H408V237.494H411.188V233.84H413.313V237.494H416.5Z" fill="#B0B0B0" fill-opacity="0.4"/>
<path d="M416.5 266.724V269.16H413.313V272.813H411.188V269.16H408V266.724H411.188V263.07H413.313V266.724H416.5Z" fill="#B0B0B0" fill-opacity="0.4"/>
<path d="M416.5 295.954V298.389H413.313V302.043H411.188V298.389H408V295.954H411.188V292.3H413.313V295.954H416.5Z" fill="#B0B0B0" fill-opacity="0.4"/>
<path d="M416.5 325.184V327.62H413.313V331.273H411.188V327.62H408V325.184H411.188V321.53H413.313V325.184H416.5Z" fill="#B0B0B0" fill-opacity="0.4"/>
<path d="M416.5 354.414V356.85H413.313V360.503H411.188V356.85H408V354.414H411.188V350.76H413.313V354.414H416.5Z" fill="#B0B0B0" fill-opacity="0.4"/>
<path d="M416.5 383.644V386.08H413.313V389.734H411.188V386.08H408V383.644H411.188V379.99H413.313V383.644H416.5Z" fill="#B0B0B0" fill-opacity="0.4"/>
<path d="M416.5 412.874V415.309H413.313V418.963H411.188V415.309H408V412.874H411.188V409.22H413.313V412.874H416.5Z" fill="#B0B0B0" fill-opacity="0.4"/>
<path d="M416.5 442.104V444.54H413.313V448.193H411.188V444.54H408V442.104H411.188V438.45H413.313V442.104H416.5Z" fill="#B0B0B0" fill-opacity="0.4"/>
<path d="M416.5 471.334V473.769H413.313V477.423H411.188V473.769H408V471.334H411.188V467.68H413.313V471.334H416.5Z" fill="#B0B0B0" fill-opacity="0.4"/>
<path d="M416.5 500.564V503H413.313V506.653H411.188V503H408V500.564H411.188V496.91H413.313V500.564H416.5Z" fill="#B0B0B0" fill-opacity="0.4"/>
<path d="M416.5 529.794V532.23H413.313V535.883H411.188V532.23H408V529.794H411.188V526.14H413.313V529.794H416.5Z" fill="#B0B0B0" fill-opacity="0.4"/>
<path d="M416.5 559.024V561.46H413.313V565.113H411.188V561.46H408V559.024H411.188V555.37H413.313V559.024H416.5Z" fill="#B0B0B0" fill-opacity="0.4"/>
<path d="M391.001 3.65387V6.08971H387.813V9.74346H385.688V6.08971H382.5V3.65387H385.688V0.00012207H387.813V3.65387H391.001Z" fill="#B0B0B0" fill-opacity="0.4"/>
<path d="M391.001 32.8839V35.3197H387.813V38.9734H385.688V35.3197H382.5V32.8839H385.688V29.2301H387.813V32.8839H391.001Z" fill="#B0B0B0" fill-opacity="0.4"/>
<path d="M391.001 62.1137V64.5495H387.813V68.2033H385.688V64.5495H382.5V62.1137H385.688V58.46H387.813V62.1137H391.001Z" fill="#B0B0B0" fill-opacity="0.4"/>
<path d="M391.001 91.3439V93.7798H387.813V97.4335H385.688V93.7798H382.5V91.3439H385.688V87.6902H387.813V91.3439H391.001Z" fill="#B0B0B0" fill-opacity="0.4"/>
<path d="M391.001 120.574V123.01H387.813V126.663H385.688V123.01H382.5V120.574H385.688V116.92H387.813V120.574H391.001Z" fill="#B0B0B0" fill-opacity="0.4"/>
<path d="M391.001 149.804V152.24H387.813V155.893H385.688V152.24H382.5V149.804H385.688V146.15H387.813V149.804H391.001Z" fill="#B0B0B0" fill-opacity="0.4"/>
<path d="M391.001 179.034V181.47H387.813V185.123H385.688V181.47H382.5V179.034H385.688V175.38H387.813V179.034H391.001Z" fill="#B0B0B0" fill-opacity="0.4"/>
<path d="M391.001 208.264V210.699H387.813V214.353H385.688V210.699H382.5V208.264H385.688V204.61H387.813V208.264H391.001Z" fill="#B0B0B0" fill-opacity="0.4"/>
<path d="M391.001 237.494V239.929H387.813V243.583H385.688V239.929H382.5V237.494H385.688V233.84H387.813V237.494H391.001Z" fill="#B0B0B0" fill-opacity="0.4"/>
<path d="M391.001 266.724V269.16H387.813V272.813H385.688V269.16H382.5V266.724H385.688V263.07H387.813V266.724H391.001Z" fill="#B0B0B0" fill-opacity="0.4"/>
<path d="M391.001 295.954V298.389H387.813V302.043H385.688V298.389H382.5V295.954H385.688V292.3H387.813V295.954H391.001Z" fill="#B0B0B0" fill-opacity="0.4"/>
<path d="M391.001 325.184V327.62H387.813V331.273H385.688V327.62H382.5V325.184H385.688V321.53H387.813V325.184H391.001Z" fill="#B0B0B0" fill-opacity="0.4"/>
<path d="M391.001 354.414V356.85H387.813V360.503H385.688V356.85H382.5V354.414H385.688V350.76H387.813V354.414H391.001Z" fill="#B0B0B0" fill-opacity="0.4"/>
<path d="M391.001 383.644V386.08H387.813V389.734H385.688V386.08H382.5V383.644H385.688V379.99H387.813V383.644H391.001Z" fill="#B0B0B0" fill-opacity="0.4"/>
<path d="M391.001 412.874V415.309H387.813V418.963H385.688V415.309H382.5V412.874H385.688V409.22H387.813V412.874H391.001Z" fill="#B0B0B0" fill-opacity="0.4"/>
<path d="M391.001 442.104V444.54H387.813V448.193H385.688V444.54H382.5V442.104H385.688V438.45H387.813V442.104H391.001Z" fill="#B0B0B0" fill-opacity="0.4"/>
<path d="M391.001 471.334V473.769H387.813V477.423H385.688V473.769H382.5V471.334H385.688V467.68H387.813V471.334H391.001Z" fill="#B0B0B0" fill-opacity="0.4"/>
<path d="M391.001 500.564V503H387.813V506.653H385.688V503H382.5V500.564H385.688V496.91H387.813V500.564H391.001Z" fill="#B0B0B0" fill-opacity="0.4"/>
<path d="M391.001 529.794V532.23H387.813V535.883H385.688V532.23H382.5V529.794H385.688V526.14H387.813V529.794H391.001Z" fill="#B0B0B0" fill-opacity="0.4"/>
<path d="M391.001 559.024V561.46H387.813V565.113H385.688V561.46H382.5V559.024H385.688V555.37H387.813V559.024H391.001Z" fill="#B0B0B0" fill-opacity="0.4"/>
<path d="M365.5 3.65387V6.08971H362.313V9.74346H360.188V6.08971H357.001V3.65387H360.188V0.00012207H362.313V3.65387H365.5Z" fill="#B0B0B0" fill-opacity="0.4"/>
<path d="M365.5 32.8839V35.3197H362.313V38.9734H360.188V35.3197H357.001V32.8839H360.188V29.2301H362.313V32.8839H365.5Z" fill="#B0B0B0" fill-opacity="0.4"/>
<path d="M365.5 62.1137V64.5495H362.313V68.2033H360.188V64.5495H357.001V62.1137H360.188V58.46H362.313V62.1137H365.5Z" fill="#B0B0B0" fill-opacity="0.4"/>
<path d="M365.5 91.3439V93.7798H362.313V97.4335H360.188V93.7798H357.001V91.3439H360.188V87.6902H362.313V91.3439H365.5Z" fill="#B0B0B0" fill-opacity="0.4"/>
<path d="M365.5 120.574V123.01H362.313V126.663H360.188V123.01H357.001V120.574H360.188V116.92H362.313V120.574H365.5Z" fill="#B0B0B0" fill-opacity="0.4"/>
<path d="M365.5 149.804V152.24H362.313V155.893H360.188V152.24H357.001V149.804H360.188V146.15H362.313V149.804H365.5Z" fill="#B0B0B0" fill-opacity="0.4"/>
<path d="M365.5 179.034V181.47H362.313V185.123H360.188V181.47H357.001V179.034H360.188V175.38H362.313V179.034H365.5Z" fill="#B0B0B0" fill-opacity="0.4"/>
<path d="M365.5 208.264V210.699H362.313V214.353H360.188V210.699H357.001V208.264H360.188V204.61H362.313V208.264H365.5Z" fill="#B0B0B0" fill-opacity="0.4"/>
<path d="M365.5 237.494V239.929H362.313V243.583H360.188V239.929H357.001V237.494H360.188V233.84H362.313V237.494H365.5Z" fill="#B0B0B0" fill-opacity="0.4"/>
<path d="M365.5 266.724V269.16H362.313V272.813H360.188V269.16H357.001V266.724H360.188V263.07H362.313V266.724H365.5Z" fill="#B0B0B0" fill-opacity="0.4"/>
<path d="M365.5 295.954V298.389H362.313V302.043H360.188V298.389H357.001V295.954H360.188V292.3H362.313V295.954H365.5Z" fill="#B0B0B0" fill-opacity="0.4"/>
<path d="M365.5 325.184V327.62H362.313V331.273H360.188V327.62H357.001V325.184H360.188V321.53H362.313V325.184H365.5Z" fill="#B0B0B0" fill-opacity="0.4"/>
<path d="M365.5 354.414V356.85H362.313V360.503H360.188V356.85H357.001V354.414H360.188V350.76H362.313V354.414H365.5Z" fill="#B0B0B0" fill-opacity="0.4"/>
<path d="M365.5 383.644V386.08H362.313V389.734H360.188V386.08H357.001V383.644H360.188V379.99H362.313V383.644H365.5Z" fill="#B0B0B0" fill-opacity="0.4"/>
<path d="M365.5 412.874V415.309H362.313V418.963H360.188V415.309H357.001V412.874H360.188V409.22H362.313V412.874H365.5Z" fill="#B0B0B0" fill-opacity="0.4"/>
<path d="M365.5 442.104V444.54H362.313V448.193H360.188V444.54H357.001V442.104H360.188V438.45H362.313V442.104H365.5Z" fill="#B0B0B0" fill-opacity="0.4"/>
<path d="M365.5 471.334V473.769H362.313V477.423H360.188V473.769H357.001V471.334H360.188V467.68H362.313V471.334H365.5Z" fill="#B0B0B0" fill-opacity="0.4"/>
<path d="M365.5 500.564V503H362.313V506.653H360.188V503H357.001V500.564H360.188V496.91H362.313V500.564H365.5Z" fill="#B0B0B0" fill-opacity="0.4"/>
<path d="M365.5 529.794V532.23H362.313V535.883H360.188V532.23H357.001V529.794H360.188V526.14H362.313V529.794H365.5Z" fill="#B0B0B0" fill-opacity="0.4"/>
<path d="M365.5 559.024V561.46H362.313V565.113H360.188V561.46H357.001V559.024H360.188V555.37H362.313V559.024H365.5Z" fill="#B0B0B0" fill-opacity="0.4"/>
<path d="M340 3.65387V6.08971H336.813V9.74346H334.688V6.08971H331.5V3.65387H334.688V0.00012207H336.813V3.65387H340Z" fill="#B0B0B0" fill-opacity="0.4"/>
<path d="M340.001 32.8839V35.3197H336.813V38.9734H334.688V35.3197H331.501V32.8839H334.688V29.2301H336.813V32.8839H340.001Z" fill="#B0B0B0" fill-opacity="0.4"/>
<path d="M340.001 62.1137V64.5495H336.813V68.2033H334.688V64.5495H331.501V62.1137H334.688V58.46H336.813V62.1137H340.001Z" fill="#B0B0B0" fill-opacity="0.4"/>
<path d="M340.001 91.3439V93.7798H336.813V97.4335H334.688V93.7798H331.501V91.3439H334.688V87.6902H336.813V91.3439H340.001Z" fill="#B0B0B0" fill-opacity="0.4"/>
<path d="M340.001 120.574V123.01H336.813V126.663H334.688V123.01H331.501V120.574H334.688V116.92H336.813V120.574H340.001Z" fill="#B0B0B0" fill-opacity="0.4"/>
<path d="M340.001 149.804V152.24H336.813V155.893H334.688V152.24H331.501V149.804H334.688V146.15H336.813V149.804H340.001Z" fill="#B0B0B0" fill-opacity="0.4"/>
<path d="M340.001 179.034V181.47H336.813V185.123H334.688V181.47H331.501V179.034H334.688V175.38H336.813V179.034H340.001Z" fill="#B0B0B0" fill-opacity="0.4"/>
<path d="M340.001 208.264V210.699H336.813V214.353H334.688V210.699H331.501V208.264H334.688V204.61H336.813V208.264H340.001Z" fill="#B0B0B0" fill-opacity="0.4"/>
<path d="M340.001 237.494V239.929H336.813V243.583H334.688V239.929H331.501V237.494H334.688V233.84H336.813V237.494H340.001Z" fill="#B0B0B0" fill-opacity="0.4"/>
<path d="M340.001 266.724V269.16H336.813V272.813H334.688V269.16H331.501V266.724H334.688V263.07H336.813V266.724H340.001Z" fill="#B0B0B0" fill-opacity="0.4"/>
<path d="M340.001 295.954V298.389H336.813V302.043H334.688V298.389H331.501V295.954H334.688V292.3H336.813V295.954H340.001Z" fill="#B0B0B0" fill-opacity="0.4"/>
<path d="M340.001 325.184V327.62H336.813V331.273H334.688V327.62H331.501V325.184H334.688V321.53H336.813V325.184H340.001Z" fill="#B0B0B0" fill-opacity="0.4"/>
<path d="M340.001 354.414V356.85H336.813V360.503H334.688V356.85H331.501V354.414H334.688V350.76H336.813V354.414H340.001Z" fill="#B0B0B0" fill-opacity="0.4"/>
<path d="M340.001 383.644V386.08H336.813V389.734H334.688V386.08H331.501V383.644H334.688V379.99H336.813V383.644H340.001Z" fill="#B0B0B0" fill-opacity="0.4"/>
<path d="M340.001 412.874V415.309H336.813V418.963H334.688V415.309H331.501V412.874H334.688V409.22H336.813V412.874H340.001Z" fill="#B0B0B0" fill-opacity="0.4"/>
<path d="M340.001 442.104V444.54H336.813V448.193H334.688V444.54H331.501V442.104H334.688V438.45H336.813V442.104H340.001Z" fill="#B0B0B0" fill-opacity="0.4"/>
<path d="M340.001 471.334V473.769H336.813V477.423H334.688V473.769H331.501V471.334H334.688V467.68H336.813V471.334H340.001Z" fill="#B0B0B0" fill-opacity="0.4"/>
<path d="M340.001 500.564V503H336.813V506.653H334.688V503H331.501V500.564H334.688V496.91H336.813V500.564H340.001Z" fill="#B0B0B0" fill-opacity="0.4"/>
<path d="M340.001 529.794V532.23H336.813V535.883H334.688V532.23H331.501V529.794H334.688V526.14H336.813V529.794H340.001Z" fill="#B0B0B0" fill-opacity="0.4"/>
<path d="M340.001 559.024V561.46H336.813V565.113H334.688V561.46H331.501V559.024H334.688V555.37H336.813V559.024H340.001Z" fill="#B0B0B0" fill-opacity="0.4"/>
<path d="M314.5 3.65387V6.08971H311.313V9.74346H309.188V6.08971H306V3.65387H309.188V0.00012207H311.313V3.65387H314.5Z" fill="#B0B0B0" fill-opacity="0.4"/>
<path d="M314.5 32.8839V35.3197H311.313V38.9734H309.188V35.3197H306V32.8839H309.188V29.2301H311.313V32.8839H314.5Z" fill="#B0B0B0" fill-opacity="0.4"/>
<path d="M314.5 62.1137V64.5495H311.313V68.2033H309.188V64.5495H306V62.1137H309.188V58.46H311.313V62.1137H314.5Z" fill="#B0B0B0" fill-opacity="0.4"/>
<path d="M314.5 91.3439V93.7798H311.313V97.4335H309.188V93.7798H306V91.3439H309.188V87.6902H311.313V91.3439H314.5Z" fill="#B0B0B0" fill-opacity="0.4"/>
<path d="M314.5 120.574V123.01H311.313V126.663H309.188V123.01H306V120.574H309.188V116.92H311.313V120.574H314.5Z" fill="#B0B0B0" fill-opacity="0.4"/>
<path d="M314.5 149.804V152.24H311.313V155.893H309.188V152.24H306V149.804H309.188V146.15H311.313V149.804H314.5Z" fill="#B0B0B0" fill-opacity="0.4"/>
<path d="M314.5 179.034V181.47H311.313V185.123H309.188V181.47H306V179.034H309.188V175.38H311.313V179.034H314.5Z" fill="#B0B0B0" fill-opacity="0.4"/>
<path d="M314.5 208.264V210.699H311.313V214.353H309.188V210.699H306V208.264H309.188V204.61H311.313V208.264H314.5Z" fill="#B0B0B0" fill-opacity="0.4"/>
<path d="M314.5 237.494V239.929H311.313V243.583H309.188V239.929H306V237.494H309.188V233.84H311.313V237.494H314.5Z" fill="#B0B0B0" fill-opacity="0.4"/>
<path d="M314.5 266.724V269.16H311.313V272.813H309.188V269.16H306V266.724H309.188V263.07H311.313V266.724H314.5Z" fill="#B0B0B0" fill-opacity="0.4"/>
<path d="M314.5 295.954V298.389H311.313V302.043H309.188V298.389H306V295.954H309.188V292.3H311.313V295.954H314.5Z" fill="#B0B0B0" fill-opacity="0.4"/>
<path d="M314.5 325.184V327.62H311.313V331.273H309.188V327.62H306V325.184H309.188V321.53H311.313V325.184H314.5Z" fill="#B0B0B0" fill-opacity="0.4"/>
<path d="M314.5 354.414V356.85H311.313V360.503H309.188V356.85H306V354.414H309.188V350.76H311.313V354.414H314.5Z" fill="#B0B0B0" fill-opacity="0.4"/>
<path d="M314.5 383.644V386.08H311.313V389.734H309.188V386.08H306V383.644H309.188V379.99H311.313V383.644H314.5Z" fill="#B0B0B0" fill-opacity="0.4"/>
<path d="M314.5 412.874V415.309H311.313V418.963H309.188V415.309H306V412.874H309.188V409.22H311.313V412.874H314.5Z" fill="#B0B0B0" fill-opacity="0.4"/>
<path d="M314.5 442.104V444.54H311.313V448.193H309.188V444.54H306V442.104H309.188V438.45H311.313V442.104H314.5Z" fill="#B0B0B0" fill-opacity="0.4"/>
<path d="M314.5 471.334V473.769H311.313V477.423H309.188V473.769H306V471.334H309.188V467.68H311.313V471.334H314.5Z" fill="#B0B0B0" fill-opacity="0.4"/>
<path d="M314.5 500.564V503H311.313V506.653H309.188V503H306V500.564H309.188V496.91H311.313V500.564H314.5Z" fill="#B0B0B0" fill-opacity="0.4"/>
<path d="M314.5 529.794V532.23H311.313V535.883H309.188V532.23H306V529.794H309.188V526.14H311.313V529.794H314.5Z" fill="#B0B0B0" fill-opacity="0.4"/>
<path d="M314.5 559.024V561.46H311.313V565.113H309.188V561.46H306V559.024H309.188V555.37H311.313V559.024H314.5Z" fill="#B0B0B0" fill-opacity="0.4"/>
<path d="M289.001 3.65387V6.08971H285.813V9.74346H283.688V6.08971H280.501V3.65387H283.688V0.00012207H285.813V3.65387H289.001Z" fill="#B0B0B0" fill-opacity="0.4"/>
<path d="M289 32.8839V35.3197H285.813V38.9734H283.688V35.3197H280.5V32.8839H283.688V29.2301H285.813V32.8839H289Z" fill="#B0B0B0" fill-opacity="0.4"/>
<path d="M289 62.1137V64.5495H285.813V68.2033H283.688V64.5495H280.5V62.1137H283.688V58.46H285.813V62.1137H289Z" fill="#B0B0B0" fill-opacity="0.4"/>
<path d="M289 91.3439V93.7798H285.813V97.4335H283.688V93.7798H280.5V91.3439H283.688V87.6902H285.813V91.3439H289Z" fill="#B0B0B0" fill-opacity="0.4"/>
<path d="M289 120.574V123.01H285.813V126.663H283.688V123.01H280.5V120.574H283.688V116.92H285.813V120.574H289Z" fill="#B0B0B0" fill-opacity="0.4"/>
<path d="M289 149.804V152.24H285.813V155.893H283.688V152.24H280.5V149.804H283.688V146.15H285.813V149.804H289Z" fill="#B0B0B0" fill-opacity="0.4"/>
<path d="M289 179.034V181.47H285.813V185.123H283.688V181.47H280.5V179.034H283.688V175.38H285.813V179.034H289Z" fill="#B0B0B0" fill-opacity="0.4"/>
<path d="M289 208.264V210.699H285.813V214.353H283.688V210.699H280.5V208.264H283.688V204.61H285.813V208.264H289Z" fill="#B0B0B0" fill-opacity="0.4"/>
<path d="M289 237.494V239.929H285.813V243.583H283.688V239.929H280.5V237.494H283.688V233.84H285.813V237.494H289Z" fill="#B0B0B0" fill-opacity="0.4"/>
<path d="M289 266.724V269.16H285.813V272.813H283.688V269.16H280.5V266.724H283.688V263.07H285.813V266.724H289Z" fill="#B0B0B0" fill-opacity="0.4"/>
<path d="M289 295.954V298.389H285.813V302.043H283.688V298.389H280.5V295.954H283.688V292.3H285.813V295.954H289Z" fill="#B0B0B0" fill-opacity="0.4"/>
<path d="M289 325.184V327.62H285.813V331.273H283.688V327.62H280.5V325.184H283.688V321.53H285.813V325.184H289Z" fill="#B0B0B0" fill-opacity="0.4"/>
<path d="M289 354.414V356.85H285.813V360.503H283.688V356.85H280.5V354.414H283.688V350.76H285.813V354.414H289Z" fill="#B0B0B0" fill-opacity="0.4"/>
<path d="M289 383.644V386.08H285.813V389.734H283.688V386.08H280.5V383.644H283.688V379.99H285.813V383.644H289Z" fill="#B0B0B0" fill-opacity="0.4"/>
<path d="M289 412.874V415.309H285.813V418.963H283.688V415.309H280.5V412.874H283.688V409.22H285.813V412.874H289Z" fill="#B0B0B0" fill-opacity="0.4"/>
<path d="M289 442.104V444.54H285.813V448.193H283.688V444.54H280.5V442.104H283.688V438.45H285.813V442.104H289Z" fill="#B0B0B0" fill-opacity="0.4"/>
<path d="M289 471.334V473.769H285.813V477.423H283.688V473.769H280.5V471.334H283.688V467.68H285.813V471.334H289Z" fill="#B0B0B0" fill-opacity="0.4"/>
<path d="M289 500.564V503H285.813V506.653H283.688V503H280.5V500.564H283.688V496.91H285.813V500.564H289Z" fill="#B0B0B0" fill-opacity="0.4"/>
<path d="M289 529.794V532.23H285.813V535.883H283.688V532.23H280.5V529.794H283.688V526.14H285.813V529.794H289Z" fill="#B0B0B0" fill-opacity="0.4"/>
<path d="M289 559.024V561.46H285.813V565.113H283.688V561.46H280.5V559.024H283.688V555.37H285.813V559.024H289Z" fill="#B0B0B0" fill-opacity="0.4"/>
<path d="M263.5 3.65387V6.08971H260.313V9.74346H258.188V6.08971H255V3.65387H258.188V0.00012207H260.313V3.65387H263.5Z" fill="#B0B0B0" fill-opacity="0.4"/>
<path d="M263.5 32.8839V35.3197H260.313V38.9734H258.188V35.3197H255V32.8839H258.188V29.2301H260.313V32.8839H263.5Z" fill="#B0B0B0" fill-opacity="0.4"/>
<path d="M263.5 62.1137V64.5495H260.313V68.2033H258.188V64.5495H255V62.1137H258.188V58.46H260.313V62.1137H263.5Z" fill="#B0B0B0" fill-opacity="0.4"/>
<path d="M263.5 91.3439V93.7798H260.313V97.4335H258.188V93.7798H255V91.3439H258.188V87.6902H260.313V91.3439H263.5Z" fill="#B0B0B0" fill-opacity="0.4"/>
<path d="M263.5 120.574V123.01H260.313V126.663H258.188V123.01H255V120.574H258.188V116.92H260.313V120.574H263.5Z" fill="#B0B0B0" fill-opacity="0.4"/>
<path d="M263.5 149.804V152.24H260.313V155.893H258.188V152.24H255V149.804H258.188V146.15H260.313V149.804H263.5Z" fill="#B0B0B0" fill-opacity="0.4"/>
<path d="M263.5 179.034V181.47H260.313V185.123H258.188V181.47H255V179.034H258.188V175.38H260.313V179.034H263.5Z" fill="#B0B0B0" fill-opacity="0.4"/>
<path d="M263.5 208.264V210.699H260.313V214.353H258.188V210.699H255V208.264H258.188V204.61H260.313V208.264H263.5Z" fill="#B0B0B0" fill-opacity="0.4"/>
<path d="M263.5 237.494V239.929H260.313V243.583H258.188V239.929H255V237.494H258.188V233.84H260.313V237.494H263.5Z" fill="#B0B0B0" fill-opacity="0.4"/>
<path d="M263.5 266.724V269.16H260.313V272.813H258.188V269.16H255V266.724H258.188V263.07H260.313V266.724H263.5Z" fill="#B0B0B0" fill-opacity="0.4"/>
<path d="M263.5 295.954V298.389H260.313V302.043H258.188V298.389H255V295.954H258.188V292.3H260.313V295.954H263.5Z" fill="#B0B0B0" fill-opacity="0.4"/>
<path d="M263.5 325.184V327.62H260.313V331.273H258.188V327.62H255V325.184H258.188V321.53H260.313V325.184H263.5Z" fill="#B0B0B0" fill-opacity="0.4"/>
<path d="M263.5 354.414V356.85H260.313V360.503H258.188V356.85H255V354.414H258.188V350.76H260.313V354.414H263.5Z" fill="#B0B0B0" fill-opacity="0.4"/>
<path d="M263.5 383.644V386.08H260.313V389.734H258.188V386.08H255V383.644H258.188V379.99H260.313V383.644H263.5Z" fill="#B0B0B0" fill-opacity="0.4"/>
<path d="M263.5 412.874V415.309H260.313V418.963H258.188V415.309H255V412.874H258.188V409.22H260.313V412.874H263.5Z" fill="#B0B0B0" fill-opacity="0.4"/>
<path d="M263.5 442.104V444.54H260.313V448.193H258.188V444.54H255V442.104H258.188V438.45H260.313V442.104H263.5Z" fill="#B0B0B0" fill-opacity="0.4"/>
<path d="M263.5 471.334V473.769H260.313V477.423H258.188V473.769H255V471.334H258.188V467.68H260.313V471.334H263.5Z" fill="#B0B0B0" fill-opacity="0.4"/>
<path d="M263.5 500.564V503H260.313V506.653H258.188V503H255V500.564H258.188V496.91H260.313V500.564H263.5Z" fill="#B0B0B0" fill-opacity="0.4"/>
<path d="M263.5 529.794V532.23H260.313V535.883H258.188V532.23H255V529.794H258.188V526.14H260.313V529.794H263.5Z" fill="#B0B0B0" fill-opacity="0.4"/>
<path d="M263.5 559.024V561.46H260.313V565.113H258.188V561.46H255V559.024H258.188V555.37H260.313V559.024H263.5Z" fill="#B0B0B0" fill-opacity="0.4"/>
<path d="M238.001 3.65387V6.08971H234.813V9.74346H232.688V6.08971H229.501V3.65387H232.688V0.00012207H234.813V3.65387H238.001Z" fill="#B0B0B0" fill-opacity="0.4"/>
<path d="M238.001 32.8839V35.3197H234.813V38.9734H232.688V35.3197H229.501V32.8839H232.688V29.2301H234.813V32.8839H238.001Z" fill="#B0B0B0" fill-opacity="0.4"/>
<path d="M238.001 62.1137V64.5495H234.813V68.2033H232.688V64.5495H229.501V62.1137H232.688V58.46H234.813V62.1137H238.001Z" fill="#B0B0B0" fill-opacity="0.4"/>
<path d="M238.001 91.3439V93.7798H234.813V97.4335H232.688V93.7798H229.501V91.3439H232.688V87.6902H234.813V91.3439H238.001Z" fill="#B0B0B0" fill-opacity="0.4"/>
<path d="M238.001 120.574V123.01H234.813V126.663H232.688V123.01H229.501V120.574H232.688V116.92H234.813V120.574H238.001Z" fill="#B0B0B0" fill-opacity="0.4"/>
<path d="M238.001 149.804V152.24H234.813V155.893H232.688V152.24H229.501V149.804H232.688V146.15H234.813V149.804H238.001Z" fill="#B0B0B0" fill-opacity="0.4"/>
<path d="M238.001 179.034V181.47H234.813V185.123H232.688V181.47H229.501V179.034H232.688V175.38H234.813V179.034H238.001Z" fill="#B0B0B0" fill-opacity="0.4"/>
<path d="M238.001 208.264V210.699H234.813V214.353H232.688V210.699H229.501V208.264H232.688V204.61H234.813V208.264H238.001Z" fill="#B0B0B0" fill-opacity="0.4"/>
<path d="M238.001 237.494V239.929H234.813V243.583H232.688V239.929H229.501V237.494H232.688V233.84H234.813V237.494H238.001Z" fill="#B0B0B0" fill-opacity="0.4"/>
<path d="M238.001 266.724V269.16H234.813V272.813H232.688V269.16H229.501V266.724H232.688V263.07H234.813V266.724H238.001Z" fill="#B0B0B0" fill-opacity="0.4"/>
<path d="M238.001 295.954V298.389H234.813V302.043H232.688V298.389H229.501V295.954H232.688V292.3H234.813V295.954H238.001Z" fill="#B0B0B0" fill-opacity="0.4"/>
<path d="M238.001 325.184V327.62H234.813V331.273H232.688V327.62H229.501V325.184H232.688V321.53H234.813V325.184H238.001Z" fill="#B0B0B0" fill-opacity="0.4"/>
<path d="M238.001 354.414V356.85H234.813V360.503H232.688V356.85H229.501V354.414H232.688V350.76H234.813V354.414H238.001Z" fill="#B0B0B0" fill-opacity="0.4"/>
<path d="M238.001 383.644V386.08H234.813V389.734H232.688V386.08H229.501V383.644H232.688V379.99H234.813V383.644H238.001Z" fill="#B0B0B0" fill-opacity="0.4"/>
<path d="M238.001 412.874V415.309H234.813V418.963H232.688V415.309H229.501V412.874H232.688V409.22H234.813V412.874H238.001Z" fill="#B0B0B0" fill-opacity="0.4"/>
<path d="M238.001 442.104V444.54H234.813V448.193H232.688V444.54H229.501V442.104H232.688V438.45H234.813V442.104H238.001Z" fill="#B0B0B0" fill-opacity="0.4"/>
<path d="M238.001 471.334V473.769H234.813V477.423H232.688V473.769H229.501V471.334H232.688V467.68H234.813V471.334H238.001Z" fill="#B0B0B0" fill-opacity="0.4"/>
<path d="M238.001 500.564V503H234.813V506.653H232.688V503H229.501V500.564H232.688V496.91H234.813V500.564H238.001Z" fill="#B0B0B0" fill-opacity="0.4"/>
<path d="M238.001 529.794V532.23H234.813V535.883H232.688V532.23H229.501V529.794H232.688V526.14H234.813V529.794H238.001Z" fill="#B0B0B0" fill-opacity="0.4"/>
<path d="M238.001 559.024V561.46H234.813V565.113H232.688V561.46H229.501V559.024H232.688V555.37H234.813V559.024H238.001Z" fill="#B0B0B0" fill-opacity="0.4"/>
<path d="M212.5 3.65387V6.08971H209.313V9.74346H207.188V6.08971H204V3.65387H207.188V0.00012207H209.313V3.65387H212.5Z" fill="#B0B0B0" fill-opacity="0.4"/>
<path d="M212.501 32.8839V35.3197H209.313V38.9734H207.188V35.3197H204.001V32.8839H207.188V29.2301H209.313V32.8839H212.501Z" fill="#B0B0B0" fill-opacity="0.4"/>
<path d="M212.501 62.1137V64.5495H209.313V68.2033H207.188V64.5495H204.001V62.1137H207.188V58.46H209.313V62.1137H212.501Z" fill="#B0B0B0" fill-opacity="0.4"/>
<path d="M212.501 91.3439V93.7798H209.313V97.4335H207.188V93.7798H204.001V91.3439H207.188V87.6902H209.313V91.3439H212.501Z" fill="#B0B0B0" fill-opacity="0.4"/>
<path d="M212.501 120.574V123.01H209.313V126.663H207.188V123.01H204.001V120.574H207.188V116.92H209.313V120.574H212.501Z" fill="#B0B0B0" fill-opacity="0.4"/>
<path d="M212.501 149.804V152.24H209.313V155.893H207.188V152.24H204.001V149.804H207.188V146.15H209.313V149.804H212.501Z" fill="#B0B0B0" fill-opacity="0.4"/>
<path d="M212.501 179.034V181.47H209.313V185.123H207.188V181.47H204.001V179.034H207.188V175.38H209.313V179.034H212.501Z" fill="#B0B0B0" fill-opacity="0.4"/>
<path d="M212.501 208.264V210.699H209.313V214.353H207.188V210.699H204.001V208.264H207.188V204.61H209.313V208.264H212.501Z" fill="#B0B0B0" fill-opacity="0.4"/>
<path d="M212.501 237.494V239.929H209.313V243.583H207.188V239.929H204.001V237.494H207.188V233.84H209.313V237.494H212.501Z" fill="#B0B0B0" fill-opacity="0.4"/>
<path d="M212.501 266.724V269.16H209.313V272.813H207.188V269.16H204.001V266.724H207.188V263.07H209.313V266.724H212.501Z" fill="#B0B0B0" fill-opacity="0.4"/>
<path d="M212.501 295.954V298.389H209.313V302.043H207.188V298.389H204.001V295.954H207.188V292.3H209.313V295.954H212.501Z" fill="#B0B0B0" fill-opacity="0.4"/>
<path d="M212.501 325.184V327.62H209.313V331.273H207.188V327.62H204.001V325.184H207.188V321.53H209.313V325.184H212.501Z" fill="#B0B0B0" fill-opacity="0.4"/>
<path d="M212.501 354.414V356.85H209.313V360.503H207.188V356.85H204.001V354.414H207.188V350.76H209.313V354.414H212.501Z" fill="#B0B0B0" fill-opacity="0.4"/>
<path d="M212.501 383.644V386.08H209.313V389.734H207.188V386.08H204.001V383.644H207.188V379.99H209.313V383.644H212.501Z" fill="#B0B0B0" fill-opacity="0.4"/>
<path d="M212.501 412.874V415.309H209.313V418.963H207.188V415.309H204.001V412.874H207.188V409.22H209.313V412.874H212.501Z" fill="#B0B0B0" fill-opacity="0.4"/>
<path d="M212.501 442.104V444.54H209.313V448.193H207.188V444.54H204.001V442.104H207.188V438.45H209.313V442.104H212.501Z" fill="#B0B0B0" fill-opacity="0.4"/>
<path d="M212.501 471.334V473.769H209.313V477.423H207.188V473.769H204.001V471.334H207.188V467.68H209.313V471.334H212.501Z" fill="#B0B0B0" fill-opacity="0.4"/>
<path d="M212.501 500.564V503H209.313V506.653H207.188V503H204.001V500.564H207.188V496.91H209.313V500.564H212.501Z" fill="#B0B0B0" fill-opacity="0.4"/>
<path d="M212.501 529.794V532.23H209.313V535.883H207.188V532.23H204.001V529.794H207.188V526.14H209.313V529.794H212.501Z" fill="#B0B0B0" fill-opacity="0.4"/>
<path d="M212.501 559.024V561.46H209.313V565.113H207.188V561.46H204.001V559.024H207.188V555.37H209.313V559.024H212.501Z" fill="#B0B0B0" fill-opacity="0.4"/>
<path d="M187 3.65387V6.08971H183.813V9.74346H181.688V6.08971H178.5V3.65387H181.688V0.00012207H183.813V3.65387H187Z" fill="#B0B0B0" fill-opacity="0.4"/>
<path d="M187 32.8839V35.3197H183.813V38.9734H181.688V35.3197H178.5V32.8839H181.688V29.2301H183.813V32.8839H187Z" fill="#B0B0B0" fill-opacity="0.4"/>
<path d="M187 62.1137V64.5495H183.813V68.2033H181.688V64.5495H178.5V62.1137H181.688V58.46H183.813V62.1137H187Z" fill="#B0B0B0" fill-opacity="0.4"/>
<path d="M187 91.3439V93.7798H183.813V97.4335H181.688V93.7798H178.5V91.3439H181.688V87.6902H183.813V91.3439H187Z" fill="#B0B0B0" fill-opacity="0.4"/>
<path d="M187 120.574V123.01H183.813V126.663H181.688V123.01H178.5V120.574H181.688V116.92H183.813V120.574H187Z" fill="#B0B0B0" fill-opacity="0.4"/>
<path d="M187 149.804V152.24H183.813V155.893H181.688V152.24H178.5V149.804H181.688V146.15H183.813V149.804H187Z" fill="#B0B0B0" fill-opacity="0.4"/>
<path d="M187 179.034V181.47H183.813V185.123H181.688V181.47H178.5V179.034H181.688V175.38H183.813V179.034H187Z" fill="#B0B0B0" fill-opacity="0.4"/>
<path d="M187 208.264V210.699H183.813V214.353H181.688V210.699H178.5V208.264H181.688V204.61H183.813V208.264H187Z" fill="#B0B0B0" fill-opacity="0.4"/>
<path d="M187 237.494V239.929H183.813V243.583H181.688V239.929H178.5V237.494H181.688V233.84H183.813V237.494H187Z" fill="#B0B0B0" fill-opacity="0.4"/>
<path d="M187 266.724V269.16H183.813V272.813H181.688V269.16H178.5V266.724H181.688V263.07H183.813V266.724H187Z" fill="#B0B0B0" fill-opacity="0.4"/>
<path d="M187 295.954V298.389H183.813V302.043H181.688V298.389H178.5V295.954H181.688V292.3H183.813V295.954H187Z" fill="#B0B0B0" fill-opacity="0.4"/>
<path d="M187 325.184V327.62H183.813V331.273H181.688V327.62H178.5V325.184H181.688V321.53H183.813V325.184H187Z" fill="#B0B0B0" fill-opacity="0.4"/>
<path d="M187 354.414V356.85H183.813V360.503H181.688V356.85H178.5V354.414H181.688V350.76H183.813V354.414H187Z" fill="#B0B0B0" fill-opacity="0.4"/>
<path d="M187 383.644V386.08H183.813V389.734H181.688V386.08H178.5V383.644H181.688V379.99H183.813V383.644H187Z" fill="#B0B0B0" fill-opacity="0.4"/>
<path d="M187 412.874V415.309H183.813V418.963H181.688V415.309H178.5V412.874H181.688V409.22H183.813V412.874H187Z" fill="#B0B0B0" fill-opacity="0.4"/>
<path d="M187 442.104V444.54H183.813V448.193H181.688V444.54H178.5V442.104H181.688V438.45H183.813V442.104H187Z" fill="#B0B0B0" fill-opacity="0.4"/>
<path d="M187 471.334V473.769H183.813V477.423H181.688V473.769H178.5V471.334H181.688V467.68H183.813V471.334H187Z" fill="#B0B0B0" fill-opacity="0.4"/>
<path d="M187 500.564V503H183.813V506.653H181.688V503H178.5V500.564H181.688V496.91H183.813V500.564H187Z" fill="#B0B0B0" fill-opacity="0.4"/>
<path d="M187 529.794V532.23H183.813V535.883H181.688V532.23H178.5V529.794H181.688V526.14H183.813V529.794H187Z" fill="#B0B0B0" fill-opacity="0.4"/>
<path d="M187 559.024V561.46H183.813V565.113H181.688V561.46H178.5V559.024H181.688V555.37H183.813V559.024H187Z" fill="#B0B0B0" fill-opacity="0.4"/>
<path d="M161.5 3.65387V6.08971H158.312V9.74346H156.187V6.08971H153V3.65387H156.187V0.00012207H158.312V3.65387H161.5Z" fill="#B0B0B0" fill-opacity="0.4"/>
<path d="M161.5 32.8839V35.3197H158.312V38.9734H156.187V35.3197H153V32.8839H156.187V29.2301H158.312V32.8839H161.5Z" fill="#B0B0B0" fill-opacity="0.4"/>
<path d="M161.5 62.1137V64.5495H158.312V68.2033H156.187V64.5495H153V62.1137H156.187V58.46H158.312V62.1137H161.5Z" fill="#B0B0B0" fill-opacity="0.4"/>
<path d="M161.5 91.3439V93.7798H158.312V97.4335H156.187V93.7798H153V91.3439H156.187V87.6902H158.312V91.3439H161.5Z" fill="#B0B0B0" fill-opacity="0.4"/>
<path d="M161.5 120.574V123.01H158.312V126.663H156.187V123.01H153V120.574H156.187V116.92H158.312V120.574H161.5Z" fill="#B0B0B0" fill-opacity="0.4"/>
<path d="M161.5 149.804V152.24H158.312V155.893H156.187V152.24H153V149.804H156.187V146.15H158.312V149.804H161.5Z" fill="#B0B0B0" fill-opacity="0.4"/>
<path d="M161.5 179.034V181.47H158.312V185.123H156.187V181.47H153V179.034H156.187V175.38H158.312V179.034H161.5Z" fill="#B0B0B0" fill-opacity="0.4"/>
<path d="M161.5 208.264V210.699H158.312V214.353H156.187V210.699H153V208.264H156.187V204.61H158.312V208.264H161.5Z" fill="#B0B0B0" fill-opacity="0.4"/>
<path d="M161.5 237.494V239.929H158.312V243.583H156.187V239.929H153V237.494H156.187V233.84H158.312V237.494H161.5Z" fill="#B0B0B0" fill-opacity="0.4"/>
<path d="M161.5 266.724V269.16H158.312V272.813H156.187V269.16H153V266.724H156.187V263.07H158.312V266.724H161.5Z" fill="#B0B0B0" fill-opacity="0.4"/>
<path d="M161.5 295.954V298.389H158.312V302.043H156.187V298.389H153V295.954H156.187V292.3H158.312V295.954H161.5Z" fill="#B0B0B0" fill-opacity="0.4"/>
<path d="M161.5 325.184V327.62H158.312V331.273H156.187V327.62H153V325.184H156.187V321.53H158.312V325.184H161.5Z" fill="#B0B0B0" fill-opacity="0.4"/>
<path d="M161.5 354.414V356.85H158.312V360.503H156.187V356.85H153V354.414H156.187V350.76H158.312V354.414H161.5Z" fill="#B0B0B0" fill-opacity="0.4"/>
<path d="M161.5 383.644V386.08H158.312V389.734H156.187V386.08H153V383.644H156.187V379.99H158.312V383.644H161.5Z" fill="#B0B0B0" fill-opacity="0.4"/>
<path d="M161.5 412.874V415.309H158.312V418.963H156.187V415.309H153V412.874H156.187V409.22H158.312V412.874H161.5Z" fill="#B0B0B0" fill-opacity="0.4"/>
<path d="M161.5 442.104V444.54H158.312V448.193H156.187V444.54H153V442.104H156.187V438.45H158.312V442.104H161.5Z" fill="#B0B0B0" fill-opacity="0.4"/>
<path d="M161.5 471.334V473.769H158.312V477.423H156.187V473.769H153V471.334H156.187V467.68H158.312V471.334H161.5Z" fill="#B0B0B0" fill-opacity="0.4"/>
<path d="M161.5 500.564V503H158.312V506.653H156.187V503H153V500.564H156.187V496.91H158.312V500.564H161.5Z" fill="#B0B0B0" fill-opacity="0.4"/>
<path d="M161.5 529.794V532.23H158.312V535.883H156.187V532.23H153V529.794H156.187V526.14H158.312V529.794H161.5Z" fill="#B0B0B0" fill-opacity="0.4"/>
<path d="M161.5 559.024V561.46H158.312V565.113H156.187V561.46H153V559.024H156.187V555.37H158.312V559.024H161.5Z" fill="#B0B0B0" fill-opacity="0.4"/>
<path d="M136 3.65387V6.08971H132.813V9.74346H130.688V6.08971H127.5V3.65387H130.688V0.00012207H132.813V3.65387H136Z" fill="#B0B0B0" fill-opacity="0.4"/>
<path d="M136 32.8839V35.3197H132.813V38.9734H130.688V35.3197H127.5V32.8839H130.688V29.2301H132.813V32.8839H136Z" fill="#B0B0B0" fill-opacity="0.4"/>
<path d="M136 62.1137V64.5495H132.813V68.2033H130.688V64.5495H127.5V62.1137H130.688V58.46H132.813V62.1137H136Z" fill="#B0B0B0" fill-opacity="0.4"/>
<path d="M136 91.3439V93.7798H132.813V97.4335H130.688V93.7798H127.5V91.3439H130.688V87.6902H132.813V91.3439H136Z" fill="#B0B0B0" fill-opacity="0.4"/>
<path d="M136 120.574V123.01H132.813V126.663H130.688V123.01H127.5V120.574H130.688V116.92H132.813V120.574H136Z" fill="#B0B0B0" fill-opacity="0.4"/>
<path d="M136 149.804V152.24H132.813V155.893H130.688V152.24H127.5V149.804H130.688V146.15H132.813V149.804H136Z" fill="#B0B0B0" fill-opacity="0.4"/>
<path d="M136 179.034V181.47H132.813V185.123H130.688V181.47H127.5V179.034H130.688V175.38H132.813V179.034H136Z" fill="#B0B0B0" fill-opacity="0.4"/>
<path d="M136 208.264V210.699H132.813V214.353H130.688V210.699H127.5V208.264H130.688V204.61H132.813V208.264H136Z" fill="#B0B0B0" fill-opacity="0.4"/>
<path d="M136 237.494V239.929H132.813V243.583H130.688V239.929H127.5V237.494H130.688V233.84H132.813V237.494H136Z" fill="#B0B0B0" fill-opacity="0.4"/>
<path d="M136 266.724V269.16H132.813V272.813H130.688V269.16H127.5V266.724H130.688V263.07H132.813V266.724H136Z" fill="#B0B0B0" fill-opacity="0.4"/>
<path d="M136 295.954V298.389H132.813V302.043H130.688V298.389H127.5V295.954H130.688V292.3H132.813V295.954H136Z" fill="#B0B0B0" fill-opacity="0.4"/>
<path d="M136 325.184V327.62H132.813V331.273H130.688V327.62H127.5V325.184H130.688V321.53H132.813V325.184H136Z" fill="#B0B0B0" fill-opacity="0.4"/>
<path d="M136 354.414V356.85H132.813V360.503H130.688V356.85H127.5V354.414H130.688V350.76H132.813V354.414H136Z" fill="#B0B0B0" fill-opacity="0.4"/>
<path d="M136 383.644V386.08H132.813V389.734H130.688V386.08H127.5V383.644H130.688V379.99H132.813V383.644H136Z" fill="#B0B0B0" fill-opacity="0.4"/>
<path d="M136 412.874V415.309H132.813V418.963H130.688V415.309H127.5V412.874H130.688V409.22H132.813V412.874H136Z" fill="#B0B0B0" fill-opacity="0.4"/>
<path d="M136 442.104V444.54H132.813V448.193H130.688V444.54H127.5V442.104H130.688V438.45H132.813V442.104H136Z" fill="#B0B0B0" fill-opacity="0.4"/>
<path d="M136 471.334V473.769H132.813V477.423H130.688V473.769H127.5V471.334H130.688V467.68H132.813V471.334H136Z" fill="#B0B0B0" fill-opacity="0.4"/>
<path d="M136 500.564V503H132.813V506.653H130.688V503H127.5V500.564H130.688V496.91H132.813V500.564H136Z" fill="#B0B0B0" fill-opacity="0.4"/>
<path d="M136 529.794V532.23H132.813V535.883H130.688V532.23H127.5V529.794H130.688V526.14H132.813V529.794H136Z" fill="#B0B0B0" fill-opacity="0.4"/>
<path d="M136 559.024V561.46H132.813V565.113H130.688V561.46H127.5V559.024H130.688V555.37H132.813V559.024H136Z" fill="#B0B0B0" fill-opacity="0.4"/>
<path d="M110.5 3.65387V6.08971H107.313V9.74346H105.188V6.08971H102V3.65387H105.188V0.00012207H107.313V3.65387H110.5Z" fill="#B0B0B0" fill-opacity="0.4"/>
<path d="M110.5 32.8839V35.3197H107.313V38.9734H105.188V35.3197H102V32.8839H105.188V29.2301H107.313V32.8839H110.5Z" fill="#B0B0B0" fill-opacity="0.4"/>
<path d="M110.5 62.1137V64.5495H107.313V68.2033H105.188V64.5495H102V62.1137H105.188V58.46H107.313V62.1137H110.5Z" fill="#B0B0B0" fill-opacity="0.4"/>
<path d="M110.5 91.3439V93.7798H107.313V97.4335H105.188V93.7798H102V91.3439H105.188V87.6902H107.313V91.3439H110.5Z" fill="#B0B0B0" fill-opacity="0.4"/>
<path d="M110.5 120.574V123.01H107.313V126.663H105.188V123.01H102V120.574H105.188V116.92H107.313V120.574H110.5Z" fill="#B0B0B0" fill-opacity="0.4"/>
<path d="M110.5 149.804V152.24H107.313V155.893H105.188V152.24H102V149.804H105.188V146.15H107.313V149.804H110.5Z" fill="#B0B0B0" fill-opacity="0.4"/>
<path d="M110.5 179.034V181.47H107.313V185.123H105.188V181.47H102V179.034H105.188V175.38H107.313V179.034H110.5Z" fill="#B0B0B0" fill-opacity="0.4"/>
<path d="M110.5 208.264V210.699H107.313V214.353H105.188V210.699H102V208.264H105.188V204.61H107.313V208.264H110.5Z" fill="#B0B0B0" fill-opacity="0.4"/>
<path d="M110.5 237.494V239.929H107.313V243.583H105.188V239.929H102V237.494H105.188V233.84H107.313V237.494H110.5Z" fill="#B0B0B0" fill-opacity="0.4"/>
<path d="M110.5 266.724V269.16H107.313V272.813H105.188V269.16H102V266.724H105.188V263.07H107.313V266.724H110.5Z" fill="#B0B0B0" fill-opacity="0.4"/>
<path d="M110.5 295.954V298.389H107.313V302.043H105.188V298.389H102V295.954H105.188V292.3H107.313V295.954H110.5Z" fill="#B0B0B0" fill-opacity="0.4"/>
<path d="M110.5 325.184V327.62H107.313V331.273H105.188V327.62H102V325.184H105.188V321.53H107.313V325.184H110.5Z" fill="#B0B0B0" fill-opacity="0.4"/>
<path d="M110.5 354.414V356.85H107.313V360.503H105.188V356.85H102V354.414H105.188V350.76H107.313V354.414H110.5Z" fill="#B0B0B0" fill-opacity="0.4"/>
<path d="M110.5 383.644V386.08H107.313V389.734H105.188V386.08H102V383.644H105.188V379.99H107.313V383.644H110.5Z" fill="#B0B0B0" fill-opacity="0.4"/>
<path d="M110.5 412.874V415.309H107.313V418.963H105.188V415.309H102V412.874H105.188V409.22H107.313V412.874H110.5Z" fill="#B0B0B0" fill-opacity="0.4"/>
<path d="M110.5 442.104V444.54H107.313V448.193H105.188V444.54H102V442.104H105.188V438.45H107.313V442.104H110.5Z" fill="#B0B0B0" fill-opacity="0.4"/>
<path d="M110.5 471.334V473.769H107.313V477.423H105.188V473.769H102V471.334H105.188V467.68H107.313V471.334H110.5Z" fill="#B0B0B0" fill-opacity="0.4"/>
<path d="M110.5 500.564V503H107.313V506.653H105.188V503H102V500.564H105.188V496.91H107.313V500.564H110.5Z" fill="#B0B0B0" fill-opacity="0.4"/>
<path d="M110.5 529.794V532.23H107.313V535.883H105.188V532.23H102V529.794H105.188V526.14H107.313V529.794H110.5Z" fill="#B0B0B0" fill-opacity="0.4"/>
<path d="M110.5 559.024V561.46H107.313V565.113H105.188V561.46H102V559.024H105.188V555.37H107.313V559.024H110.5Z" fill="#B0B0B0" fill-opacity="0.4"/>
<path d="M85.0001 3.65387V6.08971H81.8126V9.74346H79.6876V6.08971H76.5001V3.65387H79.6876V0.00012207H81.8126V3.65387H85.0001Z" fill="#B0B0B0" fill-opacity="0.4"/>
<path d="M85.0001 32.8839V35.3197H81.8126V38.9734H79.6876V35.3197H76.5001V32.8839H79.6876V29.2301H81.8126V32.8839H85.0001Z" fill="#B0B0B0" fill-opacity="0.4"/>
<path d="M85.0001 62.1137V64.5495H81.8126V68.2033H79.6876V64.5495H76.5001V62.1137H79.6876V58.46H81.8126V62.1137H85.0001Z" fill="#B0B0B0" fill-opacity="0.4"/>
<path d="M85.0001 91.3439V93.7798H81.8126V97.4335H79.6876V93.7798H76.5001V91.3439H79.6876V87.6902H81.8126V91.3439H85.0001Z" fill="#B0B0B0" fill-opacity="0.4"/>
<path d="M85.0001 120.574V123.01H81.8126V126.663H79.6876V123.01H76.5001V120.574H79.6876V116.92H81.8126V120.574H85.0001Z" fill="#B0B0B0" fill-opacity="0.4"/>
<path d="M85.0001 149.804V152.24H81.8126V155.893H79.6876V152.24H76.5001V149.804H79.6876V146.15H81.8126V149.804H85.0001Z" fill="#B0B0B0" fill-opacity="0.4"/>
<path d="M85.0001 179.034V181.47H81.8126V185.123H79.6876V181.47H76.5001V179.034H79.6876V175.38H81.8126V179.034H85.0001Z" fill="#B0B0B0" fill-opacity="0.4"/>
<path d="M85.0001 208.264V210.699H81.8126V214.353H79.6876V210.699H76.5001V208.264H79.6876V204.61H81.8126V208.264H85.0001Z" fill="#B0B0B0" fill-opacity="0.4"/>
<path d="M85.0001 237.494V239.929H81.8126V243.583H79.6876V239.929H76.5001V237.494H79.6876V233.84H81.8126V237.494H85.0001Z" fill="#B0B0B0" fill-opacity="0.4"/>
<path d="M85.0001 266.724V269.16H81.8126V272.813H79.6876V269.16H76.5001V266.724H79.6876V263.07H81.8126V266.724H85.0001Z" fill="#B0B0B0" fill-opacity="0.4"/>
<path d="M85.0001 295.954V298.389H81.8126V302.043H79.6876V298.389H76.5001V295.954H79.6876V292.3H81.8126V295.954H85.0001Z" fill="#B0B0B0" fill-opacity="0.4"/>
<path d="M85.0001 325.184V327.62H81.8126V331.273H79.6876V327.62H76.5001V325.184H79.6876V321.53H81.8126V325.184H85.0001Z" fill="#B0B0B0" fill-opacity="0.4"/>
<path d="M85.0001 354.414V356.85H81.8126V360.503H79.6876V356.85H76.5001V354.414H79.6876V350.76H81.8126V354.414H85.0001Z" fill="#B0B0B0" fill-opacity="0.4"/>
<path d="M85.0001 383.644V386.08H81.8126V389.734H79.6876V386.08H76.5001V383.644H79.6876V379.99H81.8126V383.644H85.0001Z" fill="#B0B0B0" fill-opacity="0.4"/>
<path d="M85.0001 412.874V415.309H81.8126V418.963H79.6876V415.309H76.5001V412.874H79.6876V409.22H81.8126V412.874H85.0001Z" fill="#B0B0B0" fill-opacity="0.4"/>
<path d="M85.0001 442.104V444.54H81.8126V448.193H79.6876V444.54H76.5001V442.104H79.6876V438.45H81.8126V442.104H85.0001Z" fill="#B0B0B0" fill-opacity="0.4"/>
<path d="M85.0001 471.334V473.769H81.8126V477.423H79.6876V473.769H76.5001V471.334H79.6876V467.68H81.8126V471.334H85.0001Z" fill="#B0B0B0" fill-opacity="0.4"/>
<path d="M85.0001 500.564V503H81.8126V506.653H79.6876V503H76.5001V500.564H79.6876V496.91H81.8126V500.564H85.0001Z" fill="#B0B0B0" fill-opacity="0.4"/>
<path d="M85.0001 529.794V532.23H81.8126V535.883H79.6876V532.23H76.5001V529.794H79.6876V526.14H81.8126V529.794H85.0001Z" fill="#B0B0B0" fill-opacity="0.4"/>
<path d="M85.0001 559.024V561.46H81.8126V565.113H79.6876V561.46H76.5001V559.024H79.6876V555.37H81.8126V559.024H85.0001Z" fill="#B0B0B0" fill-opacity="0.4"/>
<path d="M59.5003 3.65387V6.08971H56.3128V9.74346H54.1878V6.08971H51.0002V3.65387H54.1878V0.00012207H56.3128V3.65387H59.5003Z" fill="#B0B0B0" fill-opacity="0.4"/>
<path d="M59.5003 32.8839V35.3197H56.3128V38.9734H54.1878V35.3197H51.0002V32.8839H54.1878V29.2301H56.3128V32.8839H59.5003Z" fill="#B0B0B0" fill-opacity="0.4"/>
<path d="M59.5003 62.1137V64.5495H56.3128V68.2033H54.1878V64.5495H51.0002V62.1137H54.1878V58.46H56.3128V62.1137H59.5003Z" fill="#B0B0B0" fill-opacity="0.4"/>
<path d="M59.5003 91.3439V93.7798H56.3128V97.4335H54.1878V93.7798H51.0002V91.3439H54.1878V87.6902H56.3128V91.3439H59.5003Z" fill="#B0B0B0" fill-opacity="0.4"/>
<path d="M59.5003 120.574V123.01H56.3128V126.663H54.1878V123.01H51.0002V120.574H54.1878V116.92H56.3128V120.574H59.5003Z" fill="#B0B0B0" fill-opacity="0.4"/>
<path d="M59.5003 149.804V152.24H56.3128V155.893H54.1878V152.24H51.0002V149.804H54.1878V146.15H56.3128V149.804H59.5003Z" fill="#B0B0B0" fill-opacity="0.4"/>
<path d="M59.5003 179.034V181.47H56.3128V185.123H54.1878V181.47H51.0002V179.034H54.1878V175.38H56.3128V179.034H59.5003Z" fill="#B0B0B0" fill-opacity="0.4"/>
<path d="M59.5003 208.264V210.699H56.3128V214.353H54.1878V210.699H51.0002V208.264H54.1878V204.61H56.3128V208.264H59.5003Z" fill="#B0B0B0" fill-opacity="0.4"/>
<path d="M59.5003 237.494V239.929H56.3128V243.583H54.1878V239.929H51.0002V237.494H54.1878V233.84H56.3128V237.494H59.5003Z" fill="#B0B0B0" fill-opacity="0.4"/>
<path d="M59.5003 266.724V269.16H56.3128V272.813H54.1878V269.16H51.0002V266.724H54.1878V263.07H56.3128V266.724H59.5003Z" fill="#B0B0B0" fill-opacity="0.4"/>
<path d="M59.5003 295.954V298.389H56.3128V302.043H54.1878V298.389H51.0002V295.954H54.1878V292.3H56.3128V295.954H59.5003Z" fill="#B0B0B0" fill-opacity="0.4"/>
<path d="M59.5003 325.184V327.62H56.3128V331.273H54.1878V327.62H51.0002V325.184H54.1878V321.53H56.3128V325.184H59.5003Z" fill="#B0B0B0" fill-opacity="0.4"/>
<path d="M59.5003 354.414V356.85H56.3128V360.503H54.1878V356.85H51.0002V354.414H54.1878V350.76H56.3128V354.414H59.5003Z" fill="#B0B0B0" fill-opacity="0.4"/>
<path d="M59.5003 383.644V386.08H56.3128V389.734H54.1878V386.08H51.0002V383.644H54.1878V379.99H56.3128V383.644H59.5003Z" fill="#B0B0B0" fill-opacity="0.4"/>
<path d="M59.5003 412.874V415.309H56.3128V418.963H54.1878V415.309H51.0002V412.874H54.1878V409.22H56.3128V412.874H59.5003Z" fill="#B0B0B0" fill-opacity="0.4"/>
<path d="M59.5003 442.104V444.54H56.3128V448.193H54.1878V444.54H51.0002V442.104H54.1878V438.45H56.3128V442.104H59.5003Z" fill="#B0B0B0" fill-opacity="0.4"/>
<path d="M59.5003 471.334V473.769H56.3128V477.423H54.1878V473.769H51.0002V471.334H54.1878V467.68H56.3128V471.334H59.5003Z" fill="#B0B0B0" fill-opacity="0.4"/>
<path d="M59.5003 500.564V503H56.3128V506.653H54.1878V503H51.0002V500.564H54.1878V496.91H56.3128V500.564H59.5003Z" fill="#B0B0B0" fill-opacity="0.4"/>
<path d="M59.5003 529.794V532.23H56.3128V535.883H54.1878V532.23H51.0002V529.794H54.1878V526.14H56.3128V529.794H59.5003Z" fill="#B0B0B0" fill-opacity="0.4"/>
<path d="M59.5003 559.024V561.46H56.3128V565.113H54.1878V561.46H51.0002V559.024H54.1878V555.37H56.3128V559.024H59.5003Z" fill="#B0B0B0" fill-opacity="0.4"/>
<path d="M34.0001 3.65387V6.08971H30.8126V9.74346H28.6876V6.08971H25.5001V3.65387H28.6876V0.00012207H30.8126V3.65387H34.0001Z" fill="#B0B0B0" fill-opacity="0.4"/>
<path d="M34.0001 32.8839V35.3197H30.8126V38.9734H28.6876V35.3197H25.5001V32.8839H28.6876V29.2301H30.8126V32.8839H34.0001Z" fill="#B0B0B0" fill-opacity="0.4"/>
<path d="M34.0001 62.1137V64.5495H30.8126V68.2033H28.6876V64.5495H25.5001V62.1137H28.6876V58.46H30.8126V62.1137H34.0001Z" fill="#B0B0B0" fill-opacity="0.4"/>
<path d="M34.0001 91.3439V93.7798H30.8126V97.4335H28.6876V93.7798H25.5001V91.3439H28.6876V87.6902H30.8126V91.3439H34.0001Z" fill="#B0B0B0" fill-opacity="0.4"/>
<path d="M34.0001 120.574V123.01H30.8126V126.663H28.6876V123.01H25.5001V120.574H28.6876V116.92H30.8126V120.574H34.0001Z" fill="#B0B0B0" fill-opacity="0.4"/>
<path d="M34.0001 149.804V152.24H30.8126V155.893H28.6876V152.24H25.5001V149.804H28.6876V146.15H30.8126V149.804H34.0001Z" fill="#B0B0B0" fill-opacity="0.4"/>
<path d="M34.0001 179.034V181.47H30.8126V185.123H28.6876V181.47H25.5001V179.034H28.6876V175.38H30.8126V179.034H34.0001Z" fill="#B0B0B0" fill-opacity="0.4"/>
<path d="M34.0001 208.264V210.699H30.8126V214.353H28.6876V210.699H25.5001V208.264H28.6876V204.61H30.8126V208.264H34.0001Z" fill="#B0B0B0" fill-opacity="0.4"/>
<path d="M34.0001 237.494V239.929H30.8126V243.583H28.6876V239.929H25.5001V237.494H28.6876V233.84H30.8126V237.494H34.0001Z" fill="#B0B0B0" fill-opacity="0.4"/>
<path d="M34.0001 266.724V269.16H30.8126V272.813H28.6876V269.16H25.5001V266.724H28.6876V263.07H30.8126V266.724H34.0001Z" fill="#B0B0B0" fill-opacity="0.4"/>
<path d="M34.0001 295.954V298.389H30.8126V302.043H28.6876V298.389H25.5001V295.954H28.6876V292.3H30.8126V295.954H34.0001Z" fill="#B0B0B0" fill-opacity="0.4"/>
<path d="M34.0001 325.184V327.62H30.8126V331.273H28.6876V327.62H25.5001V325.184H28.6876V321.53H30.8126V325.184H34.0001Z" fill="#B0B0B0" fill-opacity="0.4"/>
<path d="M34.0001 354.414V356.85H30.8126V360.503H28.6876V356.85H25.5001V354.414H28.6876V350.76H30.8126V354.414H34.0001Z" fill="#B0B0B0" fill-opacity="0.4"/>
<path d="M34.0001 383.644V386.08H30.8126V389.734H28.6876V386.08H25.5001V383.644H28.6876V379.99H30.8126V383.644H34.0001Z" fill="#B0B0B0" fill-opacity="0.4"/>
<path d="M34.0001 412.874V415.309H30.8126V418.963H28.6876V415.309H25.5001V412.874H28.6876V409.22H30.8126V412.874H34.0001Z" fill="#B0B0B0" fill-opacity="0.4"/>
<path d="M34.0001 442.104V444.54H30.8126V448.193H28.6876V444.54H25.5001V442.104H28.6876V438.45H30.8126V442.104H34.0001Z" fill="#B0B0B0" fill-opacity="0.4"/>
<path d="M34.0001 471.334V473.769H30.8126V477.423H28.6876V473.769H25.5001V471.334H28.6876V467.68H30.8126V471.334H34.0001Z" fill="#B0B0B0" fill-opacity="0.4"/>
<path d="M34.0001 500.564V503H30.8126V506.653H28.6876V503H25.5001V500.564H28.6876V496.91H30.8126V500.564H34.0001Z" fill="#B0B0B0" fill-opacity="0.4"/>
<path d="M34.0001 529.794V532.23H30.8126V535.883H28.6876V532.23H25.5001V529.794H28.6876V526.14H30.8126V529.794H34.0001Z" fill="#B0B0B0" fill-opacity="0.4"/>
<path d="M34.0001 559.024V561.46H30.8126V565.113H28.6876V561.46H25.5001V559.024H28.6876V555.37H30.8126V559.024H34.0001Z" fill="#B0B0B0" fill-opacity="0.4"/>
<path d="M8.50002 3.65375V6.08959H5.31251V9.74334H3.18751V6.08959H0V3.65375H3.18751V0H5.31251V3.65375H8.50002Z" fill="#B0B0B0" fill-opacity="0.4"/>
<path d="M8.50014 32.8839V35.3197H5.31263V38.9734H3.18763V35.3197H0.00012207V32.8839H3.18763V29.2301H5.31263V32.8839H8.50014Z" fill="#B0B0B0" fill-opacity="0.4"/>
<path d="M8.50014 62.1137V64.5495H5.31263V68.2033H3.18763V64.5495H0.00012207V62.1137H3.18763V58.46H5.31263V62.1137H8.50014Z" fill="#B0B0B0" fill-opacity="0.4"/>
<path d="M8.50014 91.3439V93.7798H5.31263V97.4335H3.18763V93.7798H0.00012207V91.3439H3.18763V87.6902H5.31263V91.3439H8.50014Z" fill="#B0B0B0" fill-opacity="0.4"/>
<path d="M8.50014 120.574V123.01H5.31263V126.663H3.18763V123.01H0.00012207V120.574H3.18763V116.92H5.31263V120.574H8.50014Z" fill="#B0B0B0" fill-opacity="0.4"/>
<path d="M8.50014 149.804V152.24H5.31263V155.893H3.18763V152.24H0.00012207V149.804H3.18763V146.15H5.31263V149.804H8.50014Z" fill="#B0B0B0" fill-opacity="0.4"/>
<path d="M8.50014 179.034V181.47H5.31263V185.123H3.18763V181.47H0.00012207V179.034H3.18763V175.38H5.31263V179.034H8.50014Z" fill="#B0B0B0" fill-opacity="0.4"/>
<path d="M8.50014 208.264V210.699H5.31263V214.353H3.18763V210.699H0.00012207V208.264H3.18763V204.61H5.31263V208.264H8.50014Z" fill="#B0B0B0" fill-opacity="0.4"/>
<path d="M8.50014 237.494V239.929H5.31263V243.583H3.18763V239.929H0.00012207V237.494H3.18763V233.84H5.31263V237.494H8.50014Z" fill="#B0B0B0" fill-opacity="0.4"/>
<path d="M8.50014 266.724V269.16H5.31263V272.813H3.18763V269.16H0.00012207V266.724H3.18763V263.07H5.31263V266.724H8.50014Z" fill="#B0B0B0" fill-opacity="0.4"/>
<path d="M8.50014 295.954V298.389H5.31263V302.043H3.18763V298.389H0.00012207V295.954H3.18763V292.3H5.31263V295.954H8.50014Z" fill="#B0B0B0" fill-opacity="0.4"/>
<path d="M8.50014 325.184V327.62H5.31263V331.273H3.18763V327.62H0.00012207V325.184H3.18763V321.53H5.31263V325.184H8.50014Z" fill="#B0B0B0" fill-opacity="0.4"/>
<path d="M8.50014 354.414V356.85H5.31263V360.503H3.18763V356.85H0.00012207V354.414H3.18763V350.76H5.31263V354.414H8.50014Z" fill="#B0B0B0" fill-opacity="0.4"/>
<path d="M8.50014 383.644V386.08H5.31263V389.734H3.18763V386.08H0.00012207V383.644H3.18763V379.99H5.31263V383.644H8.50014Z" fill="#B0B0B0" fill-opacity="0.4"/>
<path d="M8.50014 412.874V415.309H5.31263V418.963H3.18763V415.309H0.00012207V412.874H3.18763V409.22H5.31263V412.874H8.50014Z" fill="#B0B0B0" fill-opacity="0.4"/>
<path d="M8.50014 442.104V444.54H5.31263V448.193H3.18763V444.54H0.00012207V442.104H3.18763V438.45H5.31263V442.104H8.50014Z" fill="#B0B0B0" fill-opacity="0.4"/>
<path d="M8.50014 471.334V473.769H5.31263V477.423H3.18763V473.769H0.00012207V471.334H3.18763V467.68H5.31263V471.334H8.50014Z" fill="#B0B0B0" fill-opacity="0.4"/>
<path d="M8.50014 500.564V503H5.31263V506.653H3.18763V503H0.00012207V500.564H3.18763V496.91H5.31263V500.564H8.50014Z" fill="#B0B0B0" fill-opacity="0.4"/>
<path d="M8.50014 529.794V532.23H5.31263V535.883H3.18763V532.23H0.00012207V529.794H3.18763V526.14H5.31263V529.794H8.50014Z" fill="#B0B0B0" fill-opacity="0.4"/>
<path d="M8.50014 559.024V561.46H5.31263V565.113H3.18763V561.46H0.00012207V559.024H3.18763V555.37H5.31263V559.024H8.50014Z" fill="#B0B0B0" fill-opacity="0.4"/>
</g>
</svg>
