<svg width="455" height="522" viewBox="0 0 455 522" fill="none" xmlns="http://www.w3.org/2000/svg">
<g opacity="0.4">
<path d="M454.615 3.36927V5.61545H451.675V8.98472H449.716V5.61545H446.776V3.36927H449.716V0H451.675V3.36927H454.615Z" fill="#B0B0B0" fill-opacity="0.4"/>
<path d="M454.615 30.3236V32.5698H451.675V35.9391H449.716V32.5698H446.776V30.3236H449.716V26.9543H451.675V30.3236H454.615Z" fill="#B0B0B0" fill-opacity="0.4"/>
<path d="M454.615 57.2775V59.5237H451.675V62.8929H449.716V59.5237H446.776V57.2775H449.716V53.9082H451.675V57.2775H454.615Z" fill="#B0B0B0" fill-opacity="0.4"/>
<path d="M454.615 84.2318V86.478H451.675V89.8472H449.716V86.478H446.776V84.2318H449.716V80.8625H451.675V84.2318H454.615Z" fill="#B0B0B0" fill-opacity="0.4"/>
<path d="M454.615 111.186V113.432H451.675V116.801H449.716V113.432H446.776V111.186H449.716V107.816H451.675V111.186H454.615Z" fill="#B0B0B0" fill-opacity="0.4"/>
<path d="M454.615 138.14V140.386H451.675V143.755H449.716V140.386H446.776V138.14H449.716V134.771H451.675V138.14H454.615Z" fill="#B0B0B0" fill-opacity="0.4"/>
<path d="M454.615 165.094V167.34H451.675V170.71H449.716V167.34H446.776V165.094H449.716V161.725H451.675V165.094H454.615Z" fill="#B0B0B0" fill-opacity="0.4"/>
<path d="M454.615 192.048V194.294H451.675V197.663H449.716V194.294H446.776V192.048H449.716V188.679H451.675V192.048H454.615Z" fill="#B0B0B0" fill-opacity="0.4"/>
<path d="M454.615 219.002V221.248H451.675V224.618H449.716V221.248H446.776V219.002H449.716V215.633H451.675V219.002H454.615Z" fill="#B0B0B0" fill-opacity="0.4"/>
<path d="M454.615 245.957V248.203H451.675V251.572H449.716V248.203H446.776V245.957H449.716V242.587H451.675V245.957H454.615Z" fill="#B0B0B0" fill-opacity="0.4"/>
<path d="M454.615 272.911V275.157H451.675V278.526H449.716V275.157H446.776V272.911H449.716V269.541H451.675V272.911H454.615Z" fill="#B0B0B0" fill-opacity="0.4"/>
<path d="M454.615 299.865V302.111H451.675V305.48H449.716V302.111H446.776V299.865H449.716V296.496H451.675V299.865H454.615Z" fill="#B0B0B0" fill-opacity="0.4"/>
<path d="M454.615 326.819V329.065H451.675V332.434H449.716V329.065H446.776V326.819H449.716V323.45H451.675V326.819H454.615Z" fill="#B0B0B0" fill-opacity="0.4"/>
<path d="M454.615 353.773V356.02H451.675V359.389H449.716V356.02H446.776V353.773H449.716V350.404H451.675V353.773H454.615Z" fill="#B0B0B0" fill-opacity="0.4"/>
<path d="M454.615 380.727V382.973H451.675V386.343H449.716V382.973H446.776V380.727H449.716V377.358H451.675V380.727H454.615Z" fill="#B0B0B0" fill-opacity="0.4"/>
<path d="M454.615 407.681V409.928H451.675V413.297H449.716V409.928H446.776V407.681H449.716V404.312H451.675V407.681H454.615Z" fill="#B0B0B0" fill-opacity="0.4"/>
<path d="M454.615 434.635V436.882H451.675V440.251H449.716V436.882H446.776V434.635H449.716V431.266H451.675V434.635H454.615Z" fill="#B0B0B0" fill-opacity="0.4"/>
<path d="M454.615 461.589V463.836H451.675V467.205H449.716V463.836H446.776V461.589H449.716V458.22H451.675V461.589H454.615Z" fill="#B0B0B0" fill-opacity="0.4"/>
<path d="M454.615 488.544V490.79H451.675V494.159H449.716V490.79H446.776V488.544H449.716V485.175H451.675V488.544H454.615Z" fill="#B0B0B0" fill-opacity="0.4"/>
<path d="M454.615 515.498V517.744H451.675V521.113H449.716V517.744H446.776V515.498H449.716V512.129H451.675V515.498H454.615Z" fill="#B0B0B0" fill-opacity="0.4"/>
<path d="M431.101 3.36927V5.61545H428.161V8.98472H426.202V5.61545H423.262V3.36927H426.202V0H428.161V3.36927H431.101Z" fill="#B0B0B0" fill-opacity="0.4"/>
<path d="M431.101 30.3236V32.5698H428.162V35.9391H426.202V32.5698H423.263V30.3236H426.202V26.9543H428.162V30.3236H431.101Z" fill="#B0B0B0" fill-opacity="0.4"/>
<path d="M431.101 57.2775V59.5237H428.162V62.8929H426.202V59.5237H423.263V57.2775H426.202V53.9082H428.162V57.2775H431.101Z" fill="#B0B0B0" fill-opacity="0.4"/>
<path d="M431.101 84.2318V86.478H428.162V89.8472H426.202V86.478H423.263V84.2318H426.202V80.8625H428.162V84.2318H431.101Z" fill="#B0B0B0" fill-opacity="0.4"/>
<path d="M431.101 111.186V113.432H428.162V116.801H426.202V113.432H423.263V111.186H426.202V107.816H428.162V111.186H431.101Z" fill="#B0B0B0" fill-opacity="0.4"/>
<path d="M431.101 138.14V140.386H428.162V143.755H426.202V140.386H423.263V138.14H426.202V134.771H428.162V138.14H431.101Z" fill="#B0B0B0" fill-opacity="0.4"/>
<path d="M431.101 165.094V167.34H428.162V170.71H426.202V167.34H423.263V165.094H426.202V161.725H428.162V165.094H431.101Z" fill="#B0B0B0" fill-opacity="0.4"/>
<path d="M431.101 192.048V194.294H428.162V197.663H426.202V194.294H423.263V192.048H426.202V188.679H428.162V192.048H431.101Z" fill="#B0B0B0" fill-opacity="0.4"/>
<path d="M431.101 219.002V221.248H428.162V224.618H426.202V221.248H423.263V219.002H426.202V215.633H428.162V219.002H431.101Z" fill="#B0B0B0" fill-opacity="0.4"/>
<path d="M431.101 245.957V248.203H428.162V251.572H426.202V248.203H423.263V245.957H426.202V242.587H428.162V245.957H431.101Z" fill="#B0B0B0" fill-opacity="0.4"/>
<path d="M431.101 272.911V275.157H428.162V278.526H426.202V275.157H423.263V272.911H426.202V269.541H428.162V272.911H431.101Z" fill="#B0B0B0" fill-opacity="0.4"/>
<path d="M431.101 299.865V302.111H428.162V305.48H426.202V302.111H423.263V299.865H426.202V296.496H428.162V299.865H431.101Z" fill="#B0B0B0" fill-opacity="0.4"/>
<path d="M431.101 326.819V329.065H428.162V332.434H426.202V329.065H423.263V326.819H426.202V323.45H428.162V326.819H431.101Z" fill="#B0B0B0" fill-opacity="0.4"/>
<path d="M431.101 353.773V356.02H428.162V359.389H426.202V356.02H423.263V353.773H426.202V350.404H428.162V353.773H431.101Z" fill="#B0B0B0" fill-opacity="0.4"/>
<path d="M431.101 380.727V382.973H428.162V386.343H426.202V382.973H423.263V380.727H426.202V377.358H428.162V380.727H431.101Z" fill="#B0B0B0" fill-opacity="0.4"/>
<path d="M431.101 407.681V409.928H428.162V413.297H426.202V409.928H423.263V407.681H426.202V404.312H428.162V407.681H431.101Z" fill="#B0B0B0" fill-opacity="0.4"/>
<path d="M431.101 434.635V436.882H428.162V440.251H426.202V436.882H423.263V434.635H426.202V431.266H428.162V434.635H431.101Z" fill="#B0B0B0" fill-opacity="0.4"/>
<path d="M431.101 461.589V463.836H428.162V467.205H426.202V463.836H423.263V461.589H426.202V458.22H428.162V461.589H431.101Z" fill="#B0B0B0" fill-opacity="0.4"/>
<path d="M431.101 488.544V490.79H428.162V494.159H426.202V490.79H423.263V488.544H426.202V485.175H428.162V488.544H431.101Z" fill="#B0B0B0" fill-opacity="0.4"/>
<path d="M431.101 515.498V517.744H428.162V521.113H426.202V517.744H423.263V515.498H426.202V512.129H428.162V515.498H431.101Z" fill="#B0B0B0" fill-opacity="0.4"/>
<path d="M407.586 3.36927V5.61545H404.646V8.98472H402.687V5.61545H399.748V3.36927H402.687V0H404.646V3.36927H407.586Z" fill="#B0B0B0" fill-opacity="0.4"/>
<path d="M407.586 30.3236V32.5698H404.646V35.9391H402.687V32.5698H399.748V30.3236H402.687V26.9543H404.646V30.3236H407.586Z" fill="#B0B0B0" fill-opacity="0.4"/>
<path d="M407.586 57.2775V59.5237H404.646V62.8929H402.687V59.5237H399.748V57.2775H402.687V53.9082H404.646V57.2775H407.586Z" fill="#B0B0B0" fill-opacity="0.4"/>
<path d="M407.586 84.2318V86.478H404.646V89.8472H402.687V86.478H399.748V84.2318H402.687V80.8625H404.646V84.2318H407.586Z" fill="#B0B0B0" fill-opacity="0.4"/>
<path d="M407.586 111.186V113.432H404.646V116.801H402.687V113.432H399.748V111.186H402.687V107.816H404.646V111.186H407.586Z" fill="#B0B0B0" fill-opacity="0.4"/>
<path d="M407.586 138.14V140.386H404.646V143.755H402.687V140.386H399.748V138.14H402.687V134.771H404.646V138.14H407.586Z" fill="#B0B0B0" fill-opacity="0.4"/>
<path d="M407.586 165.094V167.34H404.646V170.71H402.687V167.34H399.748V165.094H402.687V161.725H404.646V165.094H407.586Z" fill="#B0B0B0" fill-opacity="0.4"/>
<path d="M407.586 192.048V194.294H404.646V197.663H402.687V194.294H399.748V192.048H402.687V188.679H404.646V192.048H407.586Z" fill="#B0B0B0" fill-opacity="0.4"/>
<path d="M407.586 219.002V221.248H404.646V224.618H402.687V221.248H399.748V219.002H402.687V215.633H404.646V219.002H407.586Z" fill="#B0B0B0" fill-opacity="0.4"/>
<path d="M407.586 245.957V248.203H404.646V251.572H402.687V248.203H399.748V245.957H402.687V242.587H404.646V245.957H407.586Z" fill="#B0B0B0" fill-opacity="0.4"/>
<path d="M407.586 272.911V275.157H404.646V278.526H402.687V275.157H399.748V272.911H402.687V269.541H404.646V272.911H407.586Z" fill="#B0B0B0" fill-opacity="0.4"/>
<path d="M407.586 299.865V302.111H404.646V305.48H402.687V302.111H399.748V299.865H402.687V296.496H404.646V299.865H407.586Z" fill="#B0B0B0" fill-opacity="0.4"/>
<path d="M407.586 326.819V329.065H404.646V332.434H402.687V329.065H399.748V326.819H402.687V323.45H404.646V326.819H407.586Z" fill="#B0B0B0" fill-opacity="0.4"/>
<path d="M407.586 353.773V356.02H404.646V359.389H402.687V356.02H399.748V353.773H402.687V350.404H404.646V353.773H407.586Z" fill="#B0B0B0" fill-opacity="0.4"/>
<path d="M407.586 380.727V382.973H404.646V386.343H402.687V382.973H399.748V380.727H402.687V377.358H404.646V380.727H407.586Z" fill="#B0B0B0" fill-opacity="0.4"/>
<path d="M407.586 407.681V409.928H404.646V413.297H402.687V409.928H399.748V407.681H402.687V404.312H404.646V407.681H407.586Z" fill="#B0B0B0" fill-opacity="0.4"/>
<path d="M407.586 434.635V436.882H404.646V440.251H402.687V436.882H399.748V434.635H402.687V431.266H404.646V434.635H407.586Z" fill="#B0B0B0" fill-opacity="0.4"/>
<path d="M407.586 461.589V463.836H404.646V467.205H402.687V463.836H399.748V461.589H402.687V458.22H404.646V461.589H407.586Z" fill="#B0B0B0" fill-opacity="0.4"/>
<path d="M407.586 488.544V490.79H404.646V494.159H402.687V490.79H399.748V488.544H402.687V485.175H404.646V488.544H407.586Z" fill="#B0B0B0" fill-opacity="0.4"/>
<path d="M407.586 515.498V517.744H404.646V521.113H402.687V517.744H399.748V515.498H402.687V512.129H404.646V515.498H407.586Z" fill="#B0B0B0" fill-opacity="0.4"/>
<path d="M384.072 3.36927V5.61545H381.133V8.98472H379.173V5.61545H376.234V3.36927H379.173V0H381.133V3.36927H384.072Z" fill="#B0B0B0" fill-opacity="0.4"/>
<path d="M384.071 30.3236V32.5698H381.132V35.9391H379.172V32.5698H376.233V30.3236H379.172V26.9543H381.132V30.3236H384.071Z" fill="#B0B0B0" fill-opacity="0.4"/>
<path d="M384.071 57.2775V59.5237H381.132V62.8929H379.172V59.5237H376.233V57.2775H379.172V53.9082H381.132V57.2775H384.071Z" fill="#B0B0B0" fill-opacity="0.4"/>
<path d="M384.071 84.2318V86.478H381.132V89.8472H379.172V86.478H376.233V84.2318H379.172V80.8625H381.132V84.2318H384.071Z" fill="#B0B0B0" fill-opacity="0.4"/>
<path d="M384.071 111.186V113.432H381.132V116.801H379.172V113.432H376.233V111.186H379.172V107.816H381.132V111.186H384.071Z" fill="#B0B0B0" fill-opacity="0.4"/>
<path d="M384.071 138.14V140.386H381.132V143.755H379.172V140.386H376.233V138.14H379.172V134.771H381.132V138.14H384.071Z" fill="#B0B0B0" fill-opacity="0.4"/>
<path d="M384.071 165.094V167.34H381.132V170.71H379.172V167.34H376.233V165.094H379.172V161.725H381.132V165.094H384.071Z" fill="#B0B0B0" fill-opacity="0.4"/>
<path d="M384.071 192.048V194.294H381.132V197.663H379.172V194.294H376.233V192.048H379.172V188.679H381.132V192.048H384.071Z" fill="#B0B0B0" fill-opacity="0.4"/>
<path d="M384.071 219.002V221.248H381.132V224.618H379.172V221.248H376.233V219.002H379.172V215.633H381.132V219.002H384.071Z" fill="#B0B0B0" fill-opacity="0.4"/>
<path d="M384.071 245.957V248.203H381.132V251.572H379.172V248.203H376.233V245.957H379.172V242.587H381.132V245.957H384.071Z" fill="#B0B0B0" fill-opacity="0.4"/>
<path d="M384.071 272.911V275.157H381.132V278.526H379.172V275.157H376.233V272.911H379.172V269.541H381.132V272.911H384.071Z" fill="#B0B0B0" fill-opacity="0.4"/>
<path d="M384.071 299.865V302.111H381.132V305.48H379.172V302.111H376.233V299.865H379.172V296.496H381.132V299.865H384.071Z" fill="#B0B0B0" fill-opacity="0.4"/>
<path d="M384.071 326.819V329.065H381.132V332.434H379.172V329.065H376.233V326.819H379.172V323.45H381.132V326.819H384.071Z" fill="#B0B0B0" fill-opacity="0.4"/>
<path d="M384.071 353.773V356.02H381.132V359.389H379.172V356.02H376.233V353.773H379.172V350.404H381.132V353.773H384.071Z" fill="#B0B0B0" fill-opacity="0.4"/>
<path d="M384.071 380.727V382.973H381.132V386.343H379.172V382.973H376.233V380.727H379.172V377.358H381.132V380.727H384.071Z" fill="#B0B0B0" fill-opacity="0.4"/>
<path d="M384.071 407.681V409.928H381.132V413.297H379.172V409.928H376.233V407.681H379.172V404.312H381.132V407.681H384.071Z" fill="#B0B0B0" fill-opacity="0.4"/>
<path d="M384.071 434.635V436.882H381.132V440.251H379.172V436.882H376.233V434.635H379.172V431.266H381.132V434.635H384.071Z" fill="#B0B0B0" fill-opacity="0.4"/>
<path d="M384.071 461.589V463.836H381.132V467.205H379.172V463.836H376.233V461.589H379.172V458.22H381.132V461.589H384.071Z" fill="#B0B0B0" fill-opacity="0.4"/>
<path d="M384.071 488.544V490.79H381.132V494.159H379.172V490.79H376.233V488.544H379.172V485.175H381.132V488.544H384.071Z" fill="#B0B0B0" fill-opacity="0.4"/>
<path d="M384.071 515.498V517.744H381.132V521.113H379.172V517.744H376.233V515.498H379.172V512.129H381.132V515.498H384.071Z" fill="#B0B0B0" fill-opacity="0.4"/>
<path d="M360.557 3.36927V5.61545H357.618V8.98472H355.658V5.61545H352.719V3.36927H355.658V0H357.618V3.36927H360.557Z" fill="#B0B0B0" fill-opacity="0.4"/>
<path d="M360.557 30.3236V32.5698H357.618V35.9391H355.658V32.5698H352.719V30.3236H355.658V26.9543H357.618V30.3236H360.557Z" fill="#B0B0B0" fill-opacity="0.4"/>
<path d="M360.557 57.2775V59.5237H357.618V62.8929H355.658V59.5237H352.719V57.2775H355.658V53.9082H357.618V57.2775H360.557Z" fill="#B0B0B0" fill-opacity="0.4"/>
<path d="M360.557 84.2318V86.478H357.618V89.8472H355.658V86.478H352.719V84.2318H355.658V80.8625H357.618V84.2318H360.557Z" fill="#B0B0B0" fill-opacity="0.4"/>
<path d="M360.557 111.186V113.432H357.618V116.801H355.658V113.432H352.719V111.186H355.658V107.816H357.618V111.186H360.557Z" fill="#B0B0B0" fill-opacity="0.4"/>
<path d="M360.557 138.14V140.386H357.618V143.755H355.658V140.386H352.719V138.14H355.658V134.771H357.618V138.14H360.557Z" fill="#B0B0B0" fill-opacity="0.4"/>
<path d="M360.557 165.094V167.34H357.618V170.71H355.658V167.34H352.719V165.094H355.658V161.725H357.618V165.094H360.557Z" fill="#B0B0B0" fill-opacity="0.4"/>
<path d="M360.557 192.048V194.294H357.618V197.663H355.658V194.294H352.719V192.048H355.658V188.679H357.618V192.048H360.557Z" fill="#B0B0B0" fill-opacity="0.4"/>
<path d="M360.557 219.002V221.248H357.618V224.618H355.658V221.248H352.719V219.002H355.658V215.633H357.618V219.002H360.557Z" fill="#B0B0B0" fill-opacity="0.4"/>
<path d="M360.557 245.957V248.203H357.618V251.572H355.658V248.203H352.719V245.957H355.658V242.587H357.618V245.957H360.557Z" fill="#B0B0B0" fill-opacity="0.4"/>
<path d="M360.557 272.911V275.157H357.618V278.526H355.658V275.157H352.719V272.911H355.658V269.541H357.618V272.911H360.557Z" fill="#B0B0B0" fill-opacity="0.4"/>
<path d="M360.557 299.865V302.111H357.618V305.48H355.658V302.111H352.719V299.865H355.658V296.496H357.618V299.865H360.557Z" fill="#B0B0B0" fill-opacity="0.4"/>
<path d="M360.557 326.819V329.065H357.618V332.434H355.658V329.065H352.719V326.819H355.658V323.45H357.618V326.819H360.557Z" fill="#B0B0B0" fill-opacity="0.4"/>
<path d="M360.557 353.773V356.02H357.618V359.389H355.658V356.02H352.719V353.773H355.658V350.404H357.618V353.773H360.557Z" fill="#B0B0B0" fill-opacity="0.4"/>
<path d="M360.557 380.727V382.973H357.618V386.343H355.658V382.973H352.719V380.727H355.658V377.358H357.618V380.727H360.557Z" fill="#B0B0B0" fill-opacity="0.4"/>
<path d="M360.557 407.681V409.928H357.618V413.297H355.658V409.928H352.719V407.681H355.658V404.312H357.618V407.681H360.557Z" fill="#B0B0B0" fill-opacity="0.4"/>
<path d="M360.557 434.635V436.882H357.618V440.251H355.658V436.882H352.719V434.635H355.658V431.266H357.618V434.635H360.557Z" fill="#B0B0B0" fill-opacity="0.4"/>
<path d="M360.557 461.589V463.836H357.618V467.205H355.658V463.836H352.719V461.589H355.658V458.22H357.618V461.589H360.557Z" fill="#B0B0B0" fill-opacity="0.4"/>
<path d="M360.557 488.544V490.79H357.618V494.159H355.658V490.79H352.719V488.544H355.658V485.175H357.618V488.544H360.557Z" fill="#B0B0B0" fill-opacity="0.4"/>
<path d="M360.557 515.498V517.744H357.618V521.113H355.658V517.744H352.719V515.498H355.658V512.129H357.618V515.498H360.557Z" fill="#B0B0B0" fill-opacity="0.4"/>
<path d="M337.042 3.36927V5.61545H334.103V8.98472H332.144V5.61545H329.204V3.36927H332.144V0H334.103V3.36927H337.042Z" fill="#B0B0B0" fill-opacity="0.4"/>
<path d="M337.042 30.3236V32.5698H334.103V35.9391H332.144V32.5698H329.204V30.3236H332.144V26.9543H334.103V30.3236H337.042Z" fill="#B0B0B0" fill-opacity="0.4"/>
<path d="M337.042 57.2775V59.5237H334.103V62.8929H332.144V59.5237H329.204V57.2775H332.144V53.9082H334.103V57.2775H337.042Z" fill="#B0B0B0" fill-opacity="0.4"/>
<path d="M337.042 84.2318V86.478H334.103V89.8472H332.144V86.478H329.204V84.2318H332.144V80.8625H334.103V84.2318H337.042Z" fill="#B0B0B0" fill-opacity="0.4"/>
<path d="M337.042 111.186V113.432H334.103V116.801H332.144V113.432H329.204V111.186H332.144V107.816H334.103V111.186H337.042Z" fill="#B0B0B0" fill-opacity="0.4"/>
<path d="M337.042 138.14V140.386H334.103V143.755H332.144V140.386H329.204V138.14H332.144V134.771H334.103V138.14H337.042Z" fill="#B0B0B0" fill-opacity="0.4"/>
<path d="M337.042 165.094V167.34H334.103V170.71H332.144V167.34H329.204V165.094H332.144V161.725H334.103V165.094H337.042Z" fill="#B0B0B0" fill-opacity="0.4"/>
<path d="M337.042 192.048V194.294H334.103V197.663H332.144V194.294H329.204V192.048H332.144V188.679H334.103V192.048H337.042Z" fill="#B0B0B0" fill-opacity="0.4"/>
<path d="M337.042 219.002V221.248H334.103V224.618H332.144V221.248H329.204V219.002H332.144V215.633H334.103V219.002H337.042Z" fill="#B0B0B0" fill-opacity="0.4"/>
<path d="M337.042 245.957V248.203H334.103V251.572H332.144V248.203H329.204V245.957H332.144V242.587H334.103V245.957H337.042Z" fill="#B0B0B0" fill-opacity="0.4"/>
<path d="M337.042 272.911V275.157H334.103V278.526H332.144V275.157H329.204V272.911H332.144V269.541H334.103V272.911H337.042Z" fill="#B0B0B0" fill-opacity="0.4"/>
<path d="M337.042 299.865V302.111H334.103V305.48H332.144V302.111H329.204V299.865H332.144V296.496H334.103V299.865H337.042Z" fill="#B0B0B0" fill-opacity="0.4"/>
<path d="M337.042 326.819V329.065H334.103V332.434H332.144V329.065H329.204V326.819H332.144V323.45H334.103V326.819H337.042Z" fill="#B0B0B0" fill-opacity="0.4"/>
<path d="M337.042 353.773V356.02H334.103V359.389H332.144V356.02H329.204V353.773H332.144V350.404H334.103V353.773H337.042Z" fill="#B0B0B0" fill-opacity="0.4"/>
<path d="M337.042 380.727V382.973H334.103V386.343H332.144V382.973H329.204V380.727H332.144V377.358H334.103V380.727H337.042Z" fill="#B0B0B0" fill-opacity="0.4"/>
<path d="M337.042 407.681V409.928H334.103V413.297H332.144V409.928H329.204V407.681H332.144V404.312H334.103V407.681H337.042Z" fill="#B0B0B0" fill-opacity="0.4"/>
<path d="M337.042 434.635V436.882H334.103V440.251H332.144V436.882H329.204V434.635H332.144V431.266H334.103V434.635H337.042Z" fill="#B0B0B0" fill-opacity="0.4"/>
<path d="M337.042 461.589V463.836H334.103V467.205H332.144V463.836H329.204V461.589H332.144V458.22H334.103V461.589H337.042Z" fill="#B0B0B0" fill-opacity="0.4"/>
<path d="M337.042 488.544V490.79H334.103V494.159H332.144V490.79H329.204V488.544H332.144V485.175H334.103V488.544H337.042Z" fill="#B0B0B0" fill-opacity="0.4"/>
<path d="M337.042 515.498V517.744H334.103V521.113H332.144V517.744H329.204V515.498H332.144V512.129H334.103V515.498H337.042Z" fill="#B0B0B0" fill-opacity="0.4"/>
<path d="M313.528 3.36927V5.61545H310.588V8.98472H308.629V5.61545H305.69V3.36927H308.629V0H310.588V3.36927H313.528Z" fill="#B0B0B0" fill-opacity="0.4"/>
<path d="M313.528 30.3236V32.5698H310.589V35.9391H308.629V32.5698H305.69V30.3236H308.629V26.9543H310.589V30.3236H313.528Z" fill="#B0B0B0" fill-opacity="0.4"/>
<path d="M313.528 57.2775V59.5237H310.589V62.8929H308.629V59.5237H305.69V57.2775H308.629V53.9082H310.589V57.2775H313.528Z" fill="#B0B0B0" fill-opacity="0.4"/>
<path d="M313.528 84.2318V86.478H310.589V89.8472H308.629V86.478H305.69V84.2318H308.629V80.8625H310.589V84.2318H313.528Z" fill="#B0B0B0" fill-opacity="0.4"/>
<path d="M313.528 111.186V113.432H310.589V116.801H308.629V113.432H305.69V111.186H308.629V107.816H310.589V111.186H313.528Z" fill="#B0B0B0" fill-opacity="0.4"/>
<path d="M313.528 138.14V140.386H310.589V143.755H308.629V140.386H305.69V138.14H308.629V134.771H310.589V138.14H313.528Z" fill="#B0B0B0" fill-opacity="0.4"/>
<path d="M313.528 165.094V167.34H310.589V170.71H308.629V167.34H305.69V165.094H308.629V161.725H310.589V165.094H313.528Z" fill="#B0B0B0" fill-opacity="0.4"/>
<path d="M313.528 192.048V194.294H310.589V197.663H308.629V194.294H305.69V192.048H308.629V188.679H310.589V192.048H313.528Z" fill="#B0B0B0" fill-opacity="0.4"/>
<path d="M313.528 219.002V221.248H310.589V224.618H308.629V221.248H305.69V219.002H308.629V215.633H310.589V219.002H313.528Z" fill="#B0B0B0" fill-opacity="0.4"/>
<path d="M313.528 245.957V248.203H310.589V251.572H308.629V248.203H305.69V245.957H308.629V242.587H310.589V245.957H313.528Z" fill="#B0B0B0" fill-opacity="0.4"/>
<path d="M313.528 272.911V275.157H310.589V278.526H308.629V275.157H305.69V272.911H308.629V269.541H310.589V272.911H313.528Z" fill="#B0B0B0" fill-opacity="0.4"/>
<path d="M313.528 299.865V302.111H310.589V305.48H308.629V302.111H305.69V299.865H308.629V296.496H310.589V299.865H313.528Z" fill="#B0B0B0" fill-opacity="0.4"/>
<path d="M313.528 326.819V329.065H310.589V332.434H308.629V329.065H305.69V326.819H308.629V323.45H310.589V326.819H313.528Z" fill="#B0B0B0" fill-opacity="0.4"/>
<path d="M313.528 353.773V356.02H310.589V359.389H308.629V356.02H305.69V353.773H308.629V350.404H310.589V353.773H313.528Z" fill="#B0B0B0" fill-opacity="0.4"/>
<path d="M313.528 380.727V382.973H310.589V386.343H308.629V382.973H305.69V380.727H308.629V377.358H310.589V380.727H313.528Z" fill="#B0B0B0" fill-opacity="0.4"/>
<path d="M313.528 407.681V409.928H310.589V413.297H308.629V409.928H305.69V407.681H308.629V404.312H310.589V407.681H313.528Z" fill="#B0B0B0" fill-opacity="0.4"/>
<path d="M313.528 434.635V436.882H310.589V440.251H308.629V436.882H305.69V434.635H308.629V431.266H310.589V434.635H313.528Z" fill="#B0B0B0" fill-opacity="0.4"/>
<path d="M313.528 461.589V463.836H310.589V467.205H308.629V463.836H305.69V461.589H308.629V458.22H310.589V461.589H313.528Z" fill="#B0B0B0" fill-opacity="0.4"/>
<path d="M313.528 488.544V490.79H310.589V494.159H308.629V490.79H305.69V488.544H308.629V485.175H310.589V488.544H313.528Z" fill="#B0B0B0" fill-opacity="0.4"/>
<path d="M313.528 515.498V517.744H310.589V521.113H308.629V517.744H305.69V515.498H308.629V512.129H310.589V515.498H313.528Z" fill="#B0B0B0" fill-opacity="0.4"/>
<path d="M290.013 3.36927V5.61545H287.074V8.98472H285.114V5.61545H282.175V3.36927H285.114V0H287.074V3.36927H290.013Z" fill="#B0B0B0" fill-opacity="0.4"/>
<path d="M290.013 30.3236V32.5698H287.074V35.9391H285.114V32.5698H282.175V30.3236H285.114V26.9543H287.074V30.3236H290.013Z" fill="#B0B0B0" fill-opacity="0.4"/>
<path d="M290.013 57.2775V59.5237H287.074V62.8929H285.114V59.5237H282.175V57.2775H285.114V53.9082H287.074V57.2775H290.013Z" fill="#B0B0B0" fill-opacity="0.4"/>
<path d="M290.013 84.2318V86.478H287.074V89.8472H285.114V86.478H282.175V84.2318H285.114V80.8625H287.074V84.2318H290.013Z" fill="#B0B0B0" fill-opacity="0.4"/>
<path d="M290.013 111.186V113.432H287.074V116.801H285.114V113.432H282.175V111.186H285.114V107.816H287.074V111.186H290.013Z" fill="#B0B0B0" fill-opacity="0.4"/>
<path d="M290.013 138.14V140.386H287.074V143.755H285.114V140.386H282.175V138.14H285.114V134.771H287.074V138.14H290.013Z" fill="#B0B0B0" fill-opacity="0.4"/>
<path d="M290.013 165.094V167.34H287.074V170.71H285.114V167.34H282.175V165.094H285.114V161.725H287.074V165.094H290.013Z" fill="#B0B0B0" fill-opacity="0.4"/>
<path d="M290.013 192.048V194.294H287.074V197.663H285.114V194.294H282.175V192.048H285.114V188.679H287.074V192.048H290.013Z" fill="#B0B0B0" fill-opacity="0.4"/>
<path d="M290.013 219.002V221.248H287.074V224.618H285.114V221.248H282.175V219.002H285.114V215.633H287.074V219.002H290.013Z" fill="#B0B0B0" fill-opacity="0.4"/>
<path d="M290.013 245.957V248.203H287.074V251.572H285.114V248.203H282.175V245.957H285.114V242.587H287.074V245.957H290.013Z" fill="#B0B0B0" fill-opacity="0.4"/>
<path d="M290.013 272.911V275.157H287.074V278.526H285.114V275.157H282.175V272.911H285.114V269.541H287.074V272.911H290.013Z" fill="#B0B0B0" fill-opacity="0.4"/>
<path d="M290.013 299.865V302.111H287.074V305.48H285.114V302.111H282.175V299.865H285.114V296.496H287.074V299.865H290.013Z" fill="#B0B0B0" fill-opacity="0.4"/>
<path d="M290.013 326.819V329.065H287.074V332.434H285.114V329.065H282.175V326.819H285.114V323.45H287.074V326.819H290.013Z" fill="#B0B0B0" fill-opacity="0.4"/>
<path d="M290.013 353.773V356.02H287.074V359.389H285.114V356.02H282.175V353.773H285.114V350.404H287.074V353.773H290.013Z" fill="#B0B0B0" fill-opacity="0.4"/>
<path d="M290.013 380.727V382.973H287.074V386.343H285.114V382.973H282.175V380.727H285.114V377.358H287.074V380.727H290.013Z" fill="#B0B0B0" fill-opacity="0.4"/>
<path d="M290.013 407.681V409.928H287.074V413.297H285.114V409.928H282.175V407.681H285.114V404.312H287.074V407.681H290.013Z" fill="#B0B0B0" fill-opacity="0.4"/>
<path d="M290.013 434.635V436.882H287.074V440.251H285.114V436.882H282.175V434.635H285.114V431.266H287.074V434.635H290.013Z" fill="#B0B0B0" fill-opacity="0.4"/>
<path d="M290.013 461.589V463.836H287.074V467.205H285.114V463.836H282.175V461.589H285.114V458.22H287.074V461.589H290.013Z" fill="#B0B0B0" fill-opacity="0.4"/>
<path d="M290.013 488.544V490.79H287.074V494.159H285.114V490.79H282.175V488.544H285.114V485.175H287.074V488.544H290.013Z" fill="#B0B0B0" fill-opacity="0.4"/>
<path d="M290.013 515.498V517.744H287.074V521.113H285.114V517.744H282.175V515.498H285.114V512.129H287.074V515.498H290.013Z" fill="#B0B0B0" fill-opacity="0.4"/>
<path d="M266.499 3.36927V5.61545H263.56V8.98472H261.6V5.61545H258.661V3.36927H261.6V0H263.56V3.36927H266.499Z" fill="#B0B0B0" fill-opacity="0.4"/>
<path d="M266.498 30.3236V32.5698H263.559V35.9391H261.6V32.5698H258.66V30.3236H261.6V26.9543H263.559V30.3236H266.498Z" fill="#B0B0B0" fill-opacity="0.4"/>
<path d="M266.498 57.2775V59.5237H263.559V62.8929H261.6V59.5237H258.66V57.2775H261.6V53.9082H263.559V57.2775H266.498Z" fill="#B0B0B0" fill-opacity="0.4"/>
<path d="M266.498 84.2318V86.478H263.559V89.8472H261.6V86.478H258.66V84.2318H261.6V80.8625H263.559V84.2318H266.498Z" fill="#B0B0B0" fill-opacity="0.4"/>
<path d="M266.498 111.186V113.432H263.559V116.801H261.6V113.432H258.66V111.186H261.6V107.816H263.559V111.186H266.498Z" fill="#B0B0B0" fill-opacity="0.4"/>
<path d="M266.498 138.14V140.386H263.559V143.755H261.6V140.386H258.66V138.14H261.6V134.771H263.559V138.14H266.498Z" fill="#B0B0B0" fill-opacity="0.4"/>
<path d="M266.498 165.094V167.34H263.559V170.71H261.6V167.34H258.66V165.094H261.6V161.725H263.559V165.094H266.498Z" fill="#B0B0B0" fill-opacity="0.4"/>
<path d="M266.498 192.048V194.294H263.559V197.663H261.6V194.294H258.66V192.048H261.6V188.679H263.559V192.048H266.498Z" fill="#B0B0B0" fill-opacity="0.4"/>
<path d="M266.498 219.002V221.248H263.559V224.618H261.6V221.248H258.66V219.002H261.6V215.633H263.559V219.002H266.498Z" fill="#B0B0B0" fill-opacity="0.4"/>
<path d="M266.498 245.957V248.203H263.559V251.572H261.6V248.203H258.66V245.957H261.6V242.587H263.559V245.957H266.498Z" fill="#B0B0B0" fill-opacity="0.4"/>
<path d="M266.498 272.911V275.157H263.559V278.526H261.6V275.157H258.66V272.911H261.6V269.541H263.559V272.911H266.498Z" fill="#B0B0B0" fill-opacity="0.4"/>
<path d="M266.498 299.865V302.111H263.559V305.48H261.6V302.111H258.66V299.865H261.6V296.496H263.559V299.865H266.498Z" fill="#B0B0B0" fill-opacity="0.4"/>
<path d="M266.498 326.819V329.065H263.559V332.434H261.6V329.065H258.66V326.819H261.6V323.45H263.559V326.819H266.498Z" fill="#B0B0B0" fill-opacity="0.4"/>
<path d="M266.498 353.773V356.02H263.559V359.389H261.6V356.02H258.66V353.773H261.6V350.404H263.559V353.773H266.498Z" fill="#B0B0B0" fill-opacity="0.4"/>
<path d="M266.498 380.727V382.973H263.559V386.343H261.6V382.973H258.66V380.727H261.6V377.358H263.559V380.727H266.498Z" fill="#B0B0B0" fill-opacity="0.4"/>
<path d="M266.498 407.681V409.928H263.559V413.297H261.6V409.928H258.66V407.681H261.6V404.312H263.559V407.681H266.498Z" fill="#B0B0B0" fill-opacity="0.4"/>
<path d="M266.498 434.635V436.882H263.559V440.251H261.6V436.882H258.66V434.635H261.6V431.266H263.559V434.635H266.498Z" fill="#B0B0B0" fill-opacity="0.4"/>
<path d="M266.498 461.589V463.836H263.559V467.205H261.6V463.836H258.66V461.589H261.6V458.22H263.559V461.589H266.498Z" fill="#B0B0B0" fill-opacity="0.4"/>
<path d="M266.498 488.544V490.79H263.559V494.159H261.6V490.79H258.66V488.544H261.6V485.175H263.559V488.544H266.498Z" fill="#B0B0B0" fill-opacity="0.4"/>
<path d="M266.498 515.498V517.744H263.559V521.113H261.6V517.744H258.66V515.498H261.6V512.129H263.559V515.498H266.498Z" fill="#B0B0B0" fill-opacity="0.4"/>
<path d="M242.984 3.36927V5.61545H240.045V8.98472H238.085V5.61545H235.146V3.36927H238.085V0H240.045V3.36927H242.984Z" fill="#B0B0B0" fill-opacity="0.4"/>
<path d="M242.984 30.3236V32.5698H240.045V35.9391H238.085V32.5698H235.146V30.3236H238.085V26.9543H240.045V30.3236H242.984Z" fill="#B0B0B0" fill-opacity="0.4"/>
<path d="M242.984 57.2775V59.5237H240.045V62.8929H238.085V59.5237H235.146V57.2775H238.085V53.9082H240.045V57.2775H242.984Z" fill="#B0B0B0" fill-opacity="0.4"/>
<path d="M242.984 84.2318V86.478H240.045V89.8472H238.085V86.478H235.146V84.2318H238.085V80.8625H240.045V84.2318H242.984Z" fill="#B0B0B0" fill-opacity="0.4"/>
<path d="M242.984 111.186V113.432H240.045V116.801H238.085V113.432H235.146V111.186H238.085V107.816H240.045V111.186H242.984Z" fill="#B0B0B0" fill-opacity="0.4"/>
<path d="M242.984 138.14V140.386H240.045V143.755H238.085V140.386H235.146V138.14H238.085V134.771H240.045V138.14H242.984Z" fill="#B0B0B0" fill-opacity="0.4"/>
<path d="M242.984 165.094V167.34H240.045V170.71H238.085V167.34H235.146V165.094H238.085V161.725H240.045V165.094H242.984Z" fill="#B0B0B0" fill-opacity="0.4"/>
<path d="M242.984 192.048V194.294H240.045V197.663H238.085V194.294H235.146V192.048H238.085V188.679H240.045V192.048H242.984Z" fill="#B0B0B0" fill-opacity="0.4"/>
<path d="M242.984 219.002V221.248H240.045V224.618H238.085V221.248H235.146V219.002H238.085V215.633H240.045V219.002H242.984Z" fill="#B0B0B0" fill-opacity="0.4"/>
<path d="M242.984 245.957V248.203H240.045V251.572H238.085V248.203H235.146V245.957H238.085V242.587H240.045V245.957H242.984Z" fill="#B0B0B0" fill-opacity="0.4"/>
<path d="M242.984 272.911V275.157H240.045V278.526H238.085V275.157H235.146V272.911H238.085V269.541H240.045V272.911H242.984Z" fill="#B0B0B0" fill-opacity="0.4"/>
<path d="M242.984 299.865V302.111H240.045V305.48H238.085V302.111H235.146V299.865H238.085V296.496H240.045V299.865H242.984Z" fill="#B0B0B0" fill-opacity="0.4"/>
<path d="M242.984 326.819V329.065H240.045V332.434H238.085V329.065H235.146V326.819H238.085V323.45H240.045V326.819H242.984Z" fill="#B0B0B0" fill-opacity="0.4"/>
<path d="M242.984 353.773V356.02H240.045V359.389H238.085V356.02H235.146V353.773H238.085V350.404H240.045V353.773H242.984Z" fill="#B0B0B0" fill-opacity="0.4"/>
<path d="M242.984 380.727V382.973H240.045V386.343H238.085V382.973H235.146V380.727H238.085V377.358H240.045V380.727H242.984Z" fill="#B0B0B0" fill-opacity="0.4"/>
<path d="M242.984 407.681V409.928H240.045V413.297H238.085V409.928H235.146V407.681H238.085V404.312H240.045V407.681H242.984Z" fill="#B0B0B0" fill-opacity="0.4"/>
<path d="M242.984 434.635V436.882H240.045V440.251H238.085V436.882H235.146V434.635H238.085V431.266H240.045V434.635H242.984Z" fill="#B0B0B0" fill-opacity="0.4"/>
<path d="M242.984 461.589V463.836H240.045V467.205H238.085V463.836H235.146V461.589H238.085V458.22H240.045V461.589H242.984Z" fill="#B0B0B0" fill-opacity="0.4"/>
<path d="M242.984 488.544V490.79H240.045V494.159H238.085V490.79H235.146V488.544H238.085V485.175H240.045V488.544H242.984Z" fill="#B0B0B0" fill-opacity="0.4"/>
<path d="M242.984 515.498V517.744H240.045V521.113H238.085V517.744H235.146V515.498H238.085V512.129H240.045V515.498H242.984Z" fill="#B0B0B0" fill-opacity="0.4"/>
<path d="M219.47 3.36927V5.61545H216.53V8.98472H214.571V5.61545H211.632V3.36927H214.571V0H216.53V3.36927H219.47Z" fill="#B0B0B0" fill-opacity="0.4"/>
<path d="M219.47 30.3236V32.5698H216.53V35.9391H214.571V32.5698H211.632V30.3236H214.571V26.9543H216.53V30.3236H219.47Z" fill="#B0B0B0" fill-opacity="0.4"/>
<path d="M219.47 57.2775V59.5237H216.53V62.8929H214.571V59.5237H211.632V57.2775H214.571V53.9082H216.53V57.2775H219.47Z" fill="#B0B0B0" fill-opacity="0.4"/>
<path d="M219.47 84.2318V86.478H216.53V89.8472H214.571V86.478H211.632V84.2318H214.571V80.8625H216.53V84.2318H219.47Z" fill="#B0B0B0" fill-opacity="0.4"/>
<path d="M219.47 111.186V113.432H216.53V116.801H214.571V113.432H211.632V111.186H214.571V107.816H216.53V111.186H219.47Z" fill="#B0B0B0" fill-opacity="0.4"/>
<path d="M219.47 138.14V140.386H216.53V143.755H214.571V140.386H211.632V138.14H214.571V134.771H216.53V138.14H219.47Z" fill="#B0B0B0" fill-opacity="0.4"/>
<path d="M219.47 165.094V167.34H216.53V170.71H214.571V167.34H211.632V165.094H214.571V161.725H216.53V165.094H219.47Z" fill="#B0B0B0" fill-opacity="0.4"/>
<path d="M219.47 192.048V194.294H216.53V197.663H214.571V194.294H211.632V192.048H214.571V188.679H216.53V192.048H219.47Z" fill="#B0B0B0" fill-opacity="0.4"/>
<path d="M219.47 219.002V221.248H216.53V224.618H214.571V221.248H211.632V219.002H214.571V215.633H216.53V219.002H219.47Z" fill="#B0B0B0" fill-opacity="0.4"/>
<path d="M219.47 245.957V248.203H216.53V251.572H214.571V248.203H211.632V245.957H214.571V242.587H216.53V245.957H219.47Z" fill="#B0B0B0" fill-opacity="0.4"/>
<path d="M219.47 272.911V275.157H216.53V278.526H214.571V275.157H211.632V272.911H214.571V269.541H216.53V272.911H219.47Z" fill="#B0B0B0" fill-opacity="0.4"/>
<path d="M219.47 299.865V302.111H216.53V305.48H214.571V302.111H211.632V299.865H214.571V296.496H216.53V299.865H219.47Z" fill="#B0B0B0" fill-opacity="0.4"/>
<path d="M219.47 326.819V329.065H216.53V332.434H214.571V329.065H211.632V326.819H214.571V323.45H216.53V326.819H219.47Z" fill="#B0B0B0" fill-opacity="0.4"/>
<path d="M219.47 353.773V356.02H216.53V359.389H214.571V356.02H211.632V353.773H214.571V350.404H216.53V353.773H219.47Z" fill="#B0B0B0" fill-opacity="0.4"/>
<path d="M219.47 380.727V382.973H216.53V386.343H214.571V382.973H211.632V380.727H214.571V377.358H216.53V380.727H219.47Z" fill="#B0B0B0" fill-opacity="0.4"/>
<path d="M219.47 407.681V409.928H216.53V413.297H214.571V409.928H211.632V407.681H214.571V404.312H216.53V407.681H219.47Z" fill="#B0B0B0" fill-opacity="0.4"/>
<path d="M219.47 434.635V436.882H216.53V440.251H214.571V436.882H211.632V434.635H214.571V431.266H216.53V434.635H219.47Z" fill="#B0B0B0" fill-opacity="0.4"/>
<path d="M219.47 461.589V463.836H216.53V467.205H214.571V463.836H211.632V461.589H214.571V458.22H216.53V461.589H219.47Z" fill="#B0B0B0" fill-opacity="0.4"/>
<path d="M219.47 488.544V490.79H216.53V494.159H214.571V490.79H211.632V488.544H214.571V485.175H216.53V488.544H219.47Z" fill="#B0B0B0" fill-opacity="0.4"/>
<path d="M219.47 515.498V517.744H216.53V521.113H214.571V517.744H211.632V515.498H214.571V512.129H216.53V515.498H219.47Z" fill="#B0B0B0" fill-opacity="0.4"/>
<path d="M195.955 3.36927V5.61545H193.016V8.98472H191.056V5.61545H188.117V3.36927H191.056V0H193.016V3.36927H195.955Z" fill="#B0B0B0" fill-opacity="0.4"/>
<path d="M195.955 30.3236V32.5698H193.016V35.9391H191.056V32.5698H188.117V30.3236H191.056V26.9543H193.016V30.3236H195.955Z" fill="#B0B0B0" fill-opacity="0.4"/>
<path d="M195.955 57.2775V59.5237H193.016V62.8929H191.056V59.5237H188.117V57.2775H191.056V53.9082H193.016V57.2775H195.955Z" fill="#B0B0B0" fill-opacity="0.4"/>
<path d="M195.955 84.2318V86.478H193.016V89.8472H191.056V86.478H188.117V84.2318H191.056V80.8625H193.016V84.2318H195.955Z" fill="#B0B0B0" fill-opacity="0.4"/>
<path d="M195.955 111.186V113.432H193.016V116.801H191.056V113.432H188.117V111.186H191.056V107.816H193.016V111.186H195.955Z" fill="#B0B0B0" fill-opacity="0.4"/>
<path d="M195.955 138.14V140.386H193.016V143.755H191.056V140.386H188.117V138.14H191.056V134.771H193.016V138.14H195.955Z" fill="#B0B0B0" fill-opacity="0.4"/>
<path d="M195.955 165.094V167.34H193.016V170.71H191.056V167.34H188.117V165.094H191.056V161.725H193.016V165.094H195.955Z" fill="#B0B0B0" fill-opacity="0.4"/>
<path d="M195.955 192.048V194.294H193.016V197.663H191.056V194.294H188.117V192.048H191.056V188.679H193.016V192.048H195.955Z" fill="#B0B0B0" fill-opacity="0.4"/>
<path d="M195.955 219.002V221.248H193.016V224.618H191.056V221.248H188.117V219.002H191.056V215.633H193.016V219.002H195.955Z" fill="#B0B0B0" fill-opacity="0.4"/>
<path d="M195.955 245.957V248.203H193.016V251.572H191.056V248.203H188.117V245.957H191.056V242.587H193.016V245.957H195.955Z" fill="#B0B0B0" fill-opacity="0.4"/>
<path d="M195.955 272.911V275.157H193.016V278.526H191.056V275.157H188.117V272.911H191.056V269.541H193.016V272.911H195.955Z" fill="#B0B0B0" fill-opacity="0.4"/>
<path d="M195.955 299.865V302.111H193.016V305.48H191.056V302.111H188.117V299.865H191.056V296.496H193.016V299.865H195.955Z" fill="#B0B0B0" fill-opacity="0.4"/>
<path d="M195.955 326.819V329.065H193.016V332.434H191.056V329.065H188.117V326.819H191.056V323.45H193.016V326.819H195.955Z" fill="#B0B0B0" fill-opacity="0.4"/>
<path d="M195.955 353.773V356.02H193.016V359.389H191.056V356.02H188.117V353.773H191.056V350.404H193.016V353.773H195.955Z" fill="#B0B0B0" fill-opacity="0.4"/>
<path d="M195.955 380.727V382.973H193.016V386.343H191.056V382.973H188.117V380.727H191.056V377.358H193.016V380.727H195.955Z" fill="#B0B0B0" fill-opacity="0.4"/>
<path d="M195.955 407.681V409.928H193.016V413.297H191.056V409.928H188.117V407.681H191.056V404.312H193.016V407.681H195.955Z" fill="#B0B0B0" fill-opacity="0.4"/>
<path d="M195.955 434.635V436.882H193.016V440.251H191.056V436.882H188.117V434.635H191.056V431.266H193.016V434.635H195.955Z" fill="#B0B0B0" fill-opacity="0.4"/>
<path d="M195.955 461.589V463.836H193.016V467.205H191.056V463.836H188.117V461.589H191.056V458.22H193.016V461.589H195.955Z" fill="#B0B0B0" fill-opacity="0.4"/>
<path d="M195.955 488.544V490.79H193.016V494.159H191.056V490.79H188.117V488.544H191.056V485.175H193.016V488.544H195.955Z" fill="#B0B0B0" fill-opacity="0.4"/>
<path d="M195.955 515.498V517.744H193.016V521.113H191.056V517.744H188.117V515.498H191.056V512.129H193.016V515.498H195.955Z" fill="#B0B0B0" fill-opacity="0.4"/>
<path d="M172.44 3.36927V5.61545H169.501V8.98472H167.542V5.61545H164.602V3.36927H167.542V0H169.501V3.36927H172.44Z" fill="#B0B0B0" fill-opacity="0.4"/>
<path d="M172.44 30.3236V32.5698H169.501V35.9391H167.542V32.5698H164.602V30.3236H167.542V26.9543H169.501V30.3236H172.44Z" fill="#B0B0B0" fill-opacity="0.4"/>
<path d="M172.44 57.2775V59.5237H169.501V62.8929H167.542V59.5237H164.602V57.2775H167.542V53.9082H169.501V57.2775H172.44Z" fill="#B0B0B0" fill-opacity="0.4"/>
<path d="M172.44 84.2318V86.478H169.501V89.8472H167.542V86.478H164.602V84.2318H167.542V80.8625H169.501V84.2318H172.44Z" fill="#B0B0B0" fill-opacity="0.4"/>
<path d="M172.44 111.186V113.432H169.501V116.801H167.542V113.432H164.602V111.186H167.542V107.816H169.501V111.186H172.44Z" fill="#B0B0B0" fill-opacity="0.4"/>
<path d="M172.44 138.14V140.386H169.501V143.755H167.542V140.386H164.602V138.14H167.542V134.771H169.501V138.14H172.44Z" fill="#B0B0B0" fill-opacity="0.4"/>
<path d="M172.44 165.094V167.34H169.501V170.71H167.542V167.34H164.602V165.094H167.542V161.725H169.501V165.094H172.44Z" fill="#B0B0B0" fill-opacity="0.4"/>
<path d="M172.44 192.048V194.294H169.501V197.663H167.542V194.294H164.602V192.048H167.542V188.679H169.501V192.048H172.44Z" fill="#B0B0B0" fill-opacity="0.4"/>
<path d="M172.44 219.002V221.248H169.501V224.618H167.542V221.248H164.602V219.002H167.542V215.633H169.501V219.002H172.44Z" fill="#B0B0B0" fill-opacity="0.4"/>
<path d="M172.44 245.957V248.203H169.501V251.572H167.542V248.203H164.602V245.957H167.542V242.587H169.501V245.957H172.44Z" fill="#B0B0B0" fill-opacity="0.4"/>
<path d="M172.44 272.911V275.157H169.501V278.526H167.542V275.157H164.602V272.911H167.542V269.541H169.501V272.911H172.44Z" fill="#B0B0B0" fill-opacity="0.4"/>
<path d="M172.44 299.865V302.111H169.501V305.48H167.542V302.111H164.602V299.865H167.542V296.496H169.501V299.865H172.44Z" fill="#B0B0B0" fill-opacity="0.4"/>
<path d="M172.44 326.819V329.065H169.501V332.434H167.542V329.065H164.602V326.819H167.542V323.45H169.501V326.819H172.44Z" fill="#B0B0B0" fill-opacity="0.4"/>
<path d="M172.44 353.773V356.02H169.501V359.389H167.542V356.02H164.602V353.773H167.542V350.404H169.501V353.773H172.44Z" fill="#B0B0B0" fill-opacity="0.4"/>
<path d="M172.44 380.727V382.973H169.501V386.343H167.542V382.973H164.602V380.727H167.542V377.358H169.501V380.727H172.44Z" fill="#B0B0B0" fill-opacity="0.4"/>
<path d="M172.44 407.681V409.928H169.501V413.297H167.542V409.928H164.602V407.681H167.542V404.312H169.501V407.681H172.44Z" fill="#B0B0B0" fill-opacity="0.4"/>
<path d="M172.44 434.635V436.882H169.501V440.251H167.542V436.882H164.602V434.635H167.542V431.266H169.501V434.635H172.44Z" fill="#B0B0B0" fill-opacity="0.4"/>
<path d="M172.44 461.589V463.836H169.501V467.205H167.542V463.836H164.602V461.589H167.542V458.22H169.501V461.589H172.44Z" fill="#B0B0B0" fill-opacity="0.4"/>
<path d="M172.44 488.544V490.79H169.501V494.159H167.542V490.79H164.602V488.544H167.542V485.175H169.501V488.544H172.44Z" fill="#B0B0B0" fill-opacity="0.4"/>
<path d="M172.44 515.498V517.744H169.501V521.113H167.542V517.744H164.602V515.498H167.542V512.129H169.501V515.498H172.44Z" fill="#B0B0B0" fill-opacity="0.4"/>
<path d="M148.925 3.36927V5.61545H145.986V8.98472H144.026V5.61545H141.087V3.36927H144.026V0H145.986V3.36927H148.925Z" fill="#B0B0B0" fill-opacity="0.4"/>
<path d="M148.925 30.3236V32.5698H145.986V35.9391H144.026V32.5698H141.087V30.3236H144.026V26.9543H145.986V30.3236H148.925Z" fill="#B0B0B0" fill-opacity="0.4"/>
<path d="M148.925 57.2775V59.5237H145.986V62.8929H144.026V59.5237H141.087V57.2775H144.026V53.9082H145.986V57.2775H148.925Z" fill="#B0B0B0" fill-opacity="0.4"/>
<path d="M148.925 84.2318V86.478H145.986V89.8472H144.026V86.478H141.087V84.2318H144.026V80.8625H145.986V84.2318H148.925Z" fill="#B0B0B0" fill-opacity="0.4"/>
<path d="M148.925 111.186V113.432H145.986V116.801H144.026V113.432H141.087V111.186H144.026V107.816H145.986V111.186H148.925Z" fill="#B0B0B0" fill-opacity="0.4"/>
<path d="M148.925 138.14V140.386H145.986V143.755H144.026V140.386H141.087V138.14H144.026V134.771H145.986V138.14H148.925Z" fill="#B0B0B0" fill-opacity="0.4"/>
<path d="M148.925 165.094V167.34H145.986V170.71H144.026V167.34H141.087V165.094H144.026V161.725H145.986V165.094H148.925Z" fill="#B0B0B0" fill-opacity="0.4"/>
<path d="M148.925 192.048V194.294H145.986V197.663H144.026V194.294H141.087V192.048H144.026V188.679H145.986V192.048H148.925Z" fill="#B0B0B0" fill-opacity="0.4"/>
<path d="M148.925 219.002V221.248H145.986V224.618H144.026V221.248H141.087V219.002H144.026V215.633H145.986V219.002H148.925Z" fill="#B0B0B0" fill-opacity="0.4"/>
<path d="M148.925 245.957V248.203H145.986V251.572H144.026V248.203H141.087V245.957H144.026V242.587H145.986V245.957H148.925Z" fill="#B0B0B0" fill-opacity="0.4"/>
<path d="M148.925 272.911V275.157H145.986V278.526H144.026V275.157H141.087V272.911H144.026V269.541H145.986V272.911H148.925Z" fill="#B0B0B0" fill-opacity="0.4"/>
<path d="M148.925 299.865V302.111H145.986V305.48H144.026V302.111H141.087V299.865H144.026V296.496H145.986V299.865H148.925Z" fill="#B0B0B0" fill-opacity="0.4"/>
<path d="M148.925 326.819V329.065H145.986V332.434H144.026V329.065H141.087V326.819H144.026V323.45H145.986V326.819H148.925Z" fill="#B0B0B0" fill-opacity="0.4"/>
<path d="M148.925 353.773V356.02H145.986V359.389H144.026V356.02H141.087V353.773H144.026V350.404H145.986V353.773H148.925Z" fill="#B0B0B0" fill-opacity="0.4"/>
<path d="M148.925 380.727V382.973H145.986V386.343H144.026V382.973H141.087V380.727H144.026V377.358H145.986V380.727H148.925Z" fill="#B0B0B0" fill-opacity="0.4"/>
<path d="M148.925 407.681V409.928H145.986V413.297H144.026V409.928H141.087V407.681H144.026V404.312H145.986V407.681H148.925Z" fill="#B0B0B0" fill-opacity="0.4"/>
<path d="M148.925 434.635V436.882H145.986V440.251H144.026V436.882H141.087V434.635H144.026V431.266H145.986V434.635H148.925Z" fill="#B0B0B0" fill-opacity="0.4"/>
<path d="M148.925 461.589V463.836H145.986V467.205H144.026V463.836H141.087V461.589H144.026V458.22H145.986V461.589H148.925Z" fill="#B0B0B0" fill-opacity="0.4"/>
<path d="M148.925 488.544V490.79H145.986V494.159H144.026V490.79H141.087V488.544H144.026V485.175H145.986V488.544H148.925Z" fill="#B0B0B0" fill-opacity="0.4"/>
<path d="M148.925 515.498V517.744H145.986V521.113H144.026V517.744H141.087V515.498H144.026V512.129H145.986V515.498H148.925Z" fill="#B0B0B0" fill-opacity="0.4"/>
<path d="M125.411 3.36927V5.61545H122.472V8.98472H120.512V5.61545H117.573V3.36927H120.512V0H122.472V3.36927H125.411Z" fill="#B0B0B0" fill-opacity="0.4"/>
<path d="M125.411 30.3236V32.5698H122.472V35.9391H120.512V32.5698H117.573V30.3236H120.512V26.9543H122.472V30.3236H125.411Z" fill="#B0B0B0" fill-opacity="0.4"/>
<path d="M125.411 57.2775V59.5237H122.472V62.8929H120.512V59.5237H117.573V57.2775H120.512V53.9082H122.472V57.2775H125.411Z" fill="#B0B0B0" fill-opacity="0.4"/>
<path d="M125.411 84.2318V86.478H122.472V89.8472H120.512V86.478H117.573V84.2318H120.512V80.8625H122.472V84.2318H125.411Z" fill="#B0B0B0" fill-opacity="0.4"/>
<path d="M125.411 111.186V113.432H122.472V116.801H120.512V113.432H117.573V111.186H120.512V107.816H122.472V111.186H125.411Z" fill="#B0B0B0" fill-opacity="0.4"/>
<path d="M125.411 138.14V140.386H122.472V143.755H120.512V140.386H117.573V138.14H120.512V134.771H122.472V138.14H125.411Z" fill="#B0B0B0" fill-opacity="0.4"/>
<path d="M125.411 165.094V167.34H122.472V170.71H120.512V167.34H117.573V165.094H120.512V161.725H122.472V165.094H125.411Z" fill="#B0B0B0" fill-opacity="0.4"/>
<path d="M125.411 192.048V194.294H122.472V197.663H120.512V194.294H117.573V192.048H120.512V188.679H122.472V192.048H125.411Z" fill="#B0B0B0" fill-opacity="0.4"/>
<path d="M125.411 219.002V221.248H122.472V224.618H120.512V221.248H117.573V219.002H120.512V215.633H122.472V219.002H125.411Z" fill="#B0B0B0" fill-opacity="0.4"/>
<path d="M125.411 245.957V248.203H122.472V251.572H120.512V248.203H117.573V245.957H120.512V242.587H122.472V245.957H125.411Z" fill="#B0B0B0" fill-opacity="0.4"/>
<path d="M125.411 272.911V275.157H122.472V278.526H120.512V275.157H117.573V272.911H120.512V269.541H122.472V272.911H125.411Z" fill="#B0B0B0" fill-opacity="0.4"/>
<path d="M125.411 299.865V302.111H122.472V305.48H120.512V302.111H117.573V299.865H120.512V296.496H122.472V299.865H125.411Z" fill="#B0B0B0" fill-opacity="0.4"/>
<path d="M125.411 326.819V329.065H122.472V332.434H120.512V329.065H117.573V326.819H120.512V323.45H122.472V326.819H125.411Z" fill="#B0B0B0" fill-opacity="0.4"/>
<path d="M125.411 353.773V356.02H122.472V359.389H120.512V356.02H117.573V353.773H120.512V350.404H122.472V353.773H125.411Z" fill="#B0B0B0" fill-opacity="0.4"/>
<path d="M125.411 380.727V382.973H122.472V386.343H120.512V382.973H117.573V380.727H120.512V377.358H122.472V380.727H125.411Z" fill="#B0B0B0" fill-opacity="0.4"/>
<path d="M125.411 407.681V409.928H122.472V413.297H120.512V409.928H117.573V407.681H120.512V404.312H122.472V407.681H125.411Z" fill="#B0B0B0" fill-opacity="0.4"/>
<path d="M125.411 434.635V436.882H122.472V440.251H120.512V436.882H117.573V434.635H120.512V431.266H122.472V434.635H125.411Z" fill="#B0B0B0" fill-opacity="0.4"/>
<path d="M125.411 461.589V463.836H122.472V467.205H120.512V463.836H117.573V461.589H120.512V458.22H122.472V461.589H125.411Z" fill="#B0B0B0" fill-opacity="0.4"/>
<path d="M125.411 488.544V490.79H122.472V494.159H120.512V490.79H117.573V488.544H120.512V485.175H122.472V488.544H125.411Z" fill="#B0B0B0" fill-opacity="0.4"/>
<path d="M125.411 515.498V517.744H122.472V521.113H120.512V517.744H117.573V515.498H120.512V512.129H122.472V515.498H125.411Z" fill="#B0B0B0" fill-opacity="0.4"/>
<path d="M101.897 3.36927V5.61545H98.9575V8.98472H96.9979V5.61545H94.0586V3.36927H96.9979V0H98.9575V3.36927H101.897Z" fill="#B0B0B0" fill-opacity="0.4"/>
<path d="M101.897 30.3236V32.5698H98.9575V35.9391H96.9979V32.5698H94.0586V30.3236H96.9979V26.9543H98.9575V30.3236H101.897Z" fill="#B0B0B0" fill-opacity="0.4"/>
<path d="M101.897 57.2775V59.5237H98.9575V62.8929H96.9979V59.5237H94.0586V57.2775H96.9979V53.9082H98.9575V57.2775H101.897Z" fill="#B0B0B0" fill-opacity="0.4"/>
<path d="M101.897 84.2318V86.478H98.9575V89.8472H96.9979V86.478H94.0586V84.2318H96.9979V80.8625H98.9575V84.2318H101.897Z" fill="#B0B0B0" fill-opacity="0.4"/>
<path d="M101.897 111.186V113.432H98.9575V116.801H96.9979V113.432H94.0586V111.186H96.9979V107.816H98.9575V111.186H101.897Z" fill="#B0B0B0" fill-opacity="0.4"/>
<path d="M101.897 138.14V140.386H98.9575V143.755H96.9979V140.386H94.0586V138.14H96.9979V134.771H98.9575V138.14H101.897Z" fill="#B0B0B0" fill-opacity="0.4"/>
<path d="M101.897 165.094V167.34H98.9575V170.71H96.9979V167.34H94.0586V165.094H96.9979V161.725H98.9575V165.094H101.897Z" fill="#B0B0B0" fill-opacity="0.4"/>
<path d="M101.897 192.048V194.294H98.9575V197.663H96.9979V194.294H94.0586V192.048H96.9979V188.679H98.9575V192.048H101.897Z" fill="#B0B0B0" fill-opacity="0.4"/>
<path d="M101.897 219.002V221.248H98.9575V224.618H96.9979V221.248H94.0586V219.002H96.9979V215.633H98.9575V219.002H101.897Z" fill="#B0B0B0" fill-opacity="0.4"/>
<path d="M101.897 245.957V248.203H98.9575V251.572H96.9979V248.203H94.0586V245.957H96.9979V242.587H98.9575V245.957H101.897Z" fill="#B0B0B0" fill-opacity="0.4"/>
<path d="M101.897 272.911V275.157H98.9575V278.526H96.9979V275.157H94.0586V272.911H96.9979V269.541H98.9575V272.911H101.897Z" fill="#B0B0B0" fill-opacity="0.4"/>
<path d="M101.897 299.865V302.111H98.9575V305.48H96.9979V302.111H94.0586V299.865H96.9979V296.496H98.9575V299.865H101.897Z" fill="#B0B0B0" fill-opacity="0.4"/>
<path d="M101.897 326.819V329.065H98.9575V332.434H96.9979V329.065H94.0586V326.819H96.9979V323.45H98.9575V326.819H101.897Z" fill="#B0B0B0" fill-opacity="0.4"/>
<path d="M101.897 353.773V356.02H98.9575V359.389H96.9979V356.02H94.0586V353.773H96.9979V350.404H98.9575V353.773H101.897Z" fill="#B0B0B0" fill-opacity="0.4"/>
<path d="M101.897 380.727V382.973H98.9575V386.343H96.9979V382.973H94.0586V380.727H96.9979V377.358H98.9575V380.727H101.897Z" fill="#B0B0B0" fill-opacity="0.4"/>
<path d="M101.897 407.681V409.928H98.9575V413.297H96.9979V409.928H94.0586V407.681H96.9979V404.312H98.9575V407.681H101.897Z" fill="#B0B0B0" fill-opacity="0.4"/>
<path d="M101.897 434.635V436.882H98.9575V440.251H96.9979V436.882H94.0586V434.635H96.9979V431.266H98.9575V434.635H101.897Z" fill="#B0B0B0" fill-opacity="0.4"/>
<path d="M101.897 461.589V463.836H98.9575V467.205H96.9979V463.836H94.0586V461.589H96.9979V458.22H98.9575V461.589H101.897Z" fill="#B0B0B0" fill-opacity="0.4"/>
<path d="M101.897 488.544V490.79H98.9575V494.159H96.9979V490.79H94.0586V488.544H96.9979V485.175H98.9575V488.544H101.897Z" fill="#B0B0B0" fill-opacity="0.4"/>
<path d="M101.897 515.498V517.744H98.9575V521.113H96.9979V517.744H94.0586V515.498H96.9979V512.129H98.9575V515.498H101.897Z" fill="#B0B0B0" fill-opacity="0.4"/>
<path d="M78.382 3.36927V5.61545H75.4426V8.98472H73.4831V5.61545H70.5438V3.36927H73.4831V0H75.4426V3.36927H78.382Z" fill="#B0B0B0" fill-opacity="0.4"/>
<path d="M78.382 30.3236V32.5698H75.4426V35.9391H73.4831V32.5698H70.5438V30.3236H73.4831V26.9543H75.4426V30.3236H78.382Z" fill="#B0B0B0" fill-opacity="0.4"/>
<path d="M78.382 57.2775V59.5237H75.4426V62.8929H73.4831V59.5237H70.5438V57.2775H73.4831V53.9082H75.4426V57.2775H78.382Z" fill="#B0B0B0" fill-opacity="0.4"/>
<path d="M78.382 84.2318V86.478H75.4426V89.8472H73.4831V86.478H70.5438V84.2318H73.4831V80.8625H75.4426V84.2318H78.382Z" fill="#B0B0B0" fill-opacity="0.4"/>
<path d="M78.382 111.186V113.432H75.4426V116.801H73.4831V113.432H70.5438V111.186H73.4831V107.816H75.4426V111.186H78.382Z" fill="#B0B0B0" fill-opacity="0.4"/>
<path d="M78.382 138.14V140.386H75.4426V143.755H73.4831V140.386H70.5438V138.14H73.4831V134.771H75.4426V138.14H78.382Z" fill="#B0B0B0" fill-opacity="0.4"/>
<path d="M78.382 165.094V167.34H75.4426V170.71H73.4831V167.34H70.5438V165.094H73.4831V161.725H75.4426V165.094H78.382Z" fill="#B0B0B0" fill-opacity="0.4"/>
<path d="M78.382 192.048V194.294H75.4426V197.663H73.4831V194.294H70.5438V192.048H73.4831V188.679H75.4426V192.048H78.382Z" fill="#B0B0B0" fill-opacity="0.4"/>
<path d="M78.382 219.002V221.248H75.4426V224.618H73.4831V221.248H70.5438V219.002H73.4831V215.633H75.4426V219.002H78.382Z" fill="#B0B0B0" fill-opacity="0.4"/>
<path d="M78.382 245.957V248.203H75.4426V251.572H73.4831V248.203H70.5438V245.957H73.4831V242.587H75.4426V245.957H78.382Z" fill="#B0B0B0" fill-opacity="0.4"/>
<path d="M78.382 272.911V275.157H75.4426V278.526H73.4831V275.157H70.5438V272.911H73.4831V269.541H75.4426V272.911H78.382Z" fill="#B0B0B0" fill-opacity="0.4"/>
<path d="M78.382 299.865V302.111H75.4426V305.48H73.4831V302.111H70.5438V299.865H73.4831V296.496H75.4426V299.865H78.382Z" fill="#B0B0B0" fill-opacity="0.4"/>
<path d="M78.382 326.819V329.065H75.4426V332.434H73.4831V329.065H70.5438V326.819H73.4831V323.45H75.4426V326.819H78.382Z" fill="#B0B0B0" fill-opacity="0.4"/>
<path d="M78.382 353.773V356.02H75.4426V359.389H73.4831V356.02H70.5438V353.773H73.4831V350.404H75.4426V353.773H78.382Z" fill="#B0B0B0" fill-opacity="0.4"/>
<path d="M78.382 380.727V382.973H75.4426V386.343H73.4831V382.973H70.5438V380.727H73.4831V377.358H75.4426V380.727H78.382Z" fill="#B0B0B0" fill-opacity="0.4"/>
<path d="M78.382 407.681V409.928H75.4426V413.297H73.4831V409.928H70.5438V407.681H73.4831V404.312H75.4426V407.681H78.382Z" fill="#B0B0B0" fill-opacity="0.4"/>
<path d="M78.382 434.635V436.882H75.4426V440.251H73.4831V436.882H70.5438V434.635H73.4831V431.266H75.4426V434.635H78.382Z" fill="#B0B0B0" fill-opacity="0.4"/>
<path d="M78.382 461.589V463.836H75.4426V467.205H73.4831V463.836H70.5438V461.589H73.4831V458.22H75.4426V461.589H78.382Z" fill="#B0B0B0" fill-opacity="0.4"/>
<path d="M78.382 488.544V490.79H75.4426V494.159H73.4831V490.79H70.5438V488.544H73.4831V485.175H75.4426V488.544H78.382Z" fill="#B0B0B0" fill-opacity="0.4"/>
<path d="M78.382 515.498V517.744H75.4426V521.113H73.4831V517.744H70.5438V515.498H73.4831V512.129H75.4426V515.498H78.382Z" fill="#B0B0B0" fill-opacity="0.4"/>
<path d="M54.8676 3.36927V5.61545H51.9282V8.98472H49.9687V5.61545H47.0294V3.36927H49.9687V0H51.9282V3.36927H54.8676Z" fill="#B0B0B0" fill-opacity="0.4"/>
<path d="M54.8676 30.3236V32.5698H51.9282V35.9391H49.9687V32.5698H47.0294V30.3236H49.9687V26.9543H51.9282V30.3236H54.8676Z" fill="#B0B0B0" fill-opacity="0.4"/>
<path d="M54.8676 57.2775V59.5237H51.9282V62.8929H49.9687V59.5237H47.0294V57.2775H49.9687V53.9082H51.9282V57.2775H54.8676Z" fill="#B0B0B0" fill-opacity="0.4"/>
<path d="M54.8676 84.2318V86.478H51.9282V89.8472H49.9687V86.478H47.0294V84.2318H49.9687V80.8625H51.9282V84.2318H54.8676Z" fill="#B0B0B0" fill-opacity="0.4"/>
<path d="M54.8676 111.186V113.432H51.9282V116.801H49.9687V113.432H47.0294V111.186H49.9687V107.816H51.9282V111.186H54.8676Z" fill="#B0B0B0" fill-opacity="0.4"/>
<path d="M54.8676 138.14V140.386H51.9282V143.755H49.9687V140.386H47.0294V138.14H49.9687V134.771H51.9282V138.14H54.8676Z" fill="#B0B0B0" fill-opacity="0.4"/>
<path d="M54.8676 165.094V167.34H51.9282V170.71H49.9687V167.34H47.0294V165.094H49.9687V161.725H51.9282V165.094H54.8676Z" fill="#B0B0B0" fill-opacity="0.4"/>
<path d="M54.8676 192.048V194.294H51.9282V197.663H49.9687V194.294H47.0294V192.048H49.9687V188.679H51.9282V192.048H54.8676Z" fill="#B0B0B0" fill-opacity="0.4"/>
<path d="M54.8676 219.002V221.248H51.9282V224.618H49.9687V221.248H47.0294V219.002H49.9687V215.633H51.9282V219.002H54.8676Z" fill="#B0B0B0" fill-opacity="0.4"/>
<path d="M54.8676 245.957V248.203H51.9282V251.572H49.9687V248.203H47.0294V245.957H49.9687V242.587H51.9282V245.957H54.8676Z" fill="#B0B0B0" fill-opacity="0.4"/>
<path d="M54.8676 272.911V275.157H51.9282V278.526H49.9687V275.157H47.0294V272.911H49.9687V269.541H51.9282V272.911H54.8676Z" fill="#B0B0B0" fill-opacity="0.4"/>
<path d="M54.8676 299.865V302.111H51.9282V305.48H49.9687V302.111H47.0294V299.865H49.9687V296.496H51.9282V299.865H54.8676Z" fill="#B0B0B0" fill-opacity="0.4"/>
<path d="M54.8676 326.819V329.065H51.9282V332.434H49.9687V329.065H47.0294V326.819H49.9687V323.45H51.9282V326.819H54.8676Z" fill="#B0B0B0" fill-opacity="0.4"/>
<path d="M54.8676 353.773V356.02H51.9282V359.389H49.9687V356.02H47.0294V353.773H49.9687V350.404H51.9282V353.773H54.8676Z" fill="#B0B0B0" fill-opacity="0.4"/>
<path d="M54.8676 380.727V382.973H51.9282V386.343H49.9687V382.973H47.0294V380.727H49.9687V377.358H51.9282V380.727H54.8676Z" fill="#B0B0B0" fill-opacity="0.4"/>
<path d="M54.8676 407.681V409.928H51.9282V413.297H49.9687V409.928H47.0294V407.681H49.9687V404.312H51.9282V407.681H54.8676Z" fill="#B0B0B0" fill-opacity="0.4"/>
<path d="M54.8676 434.635V436.882H51.9282V440.251H49.9687V436.882H47.0294V434.635H49.9687V431.266H51.9282V434.635H54.8676Z" fill="#B0B0B0" fill-opacity="0.4"/>
<path d="M54.8676 461.589V463.836H51.9282V467.205H49.9687V463.836H47.0294V461.589H49.9687V458.22H51.9282V461.589H54.8676Z" fill="#B0B0B0" fill-opacity="0.4"/>
<path d="M54.8676 488.544V490.79H51.9282V494.159H49.9687V490.79H47.0294V488.544H49.9687V485.175H51.9282V488.544H54.8676Z" fill="#B0B0B0" fill-opacity="0.4"/>
<path d="M54.8676 515.498V517.744H51.9282V521.113H49.9687V517.744H47.0294V515.498H49.9687V512.129H51.9282V515.498H54.8676Z" fill="#B0B0B0" fill-opacity="0.4"/>
<path d="M31.3528 3.36927V5.61545H28.4135V8.98472H26.4539V5.61545H23.5146V3.36927H26.4539V0H28.4135V3.36927H31.3528Z" fill="#B0B0B0" fill-opacity="0.4"/>
<path d="M31.3528 30.3236V32.5698H28.4135V35.9391H26.4539V32.5698H23.5146V30.3236H26.4539V26.9543H28.4135V30.3236H31.3528Z" fill="#B0B0B0" fill-opacity="0.4"/>
<path d="M31.3528 57.2775V59.5237H28.4135V62.8929H26.4539V59.5237H23.5146V57.2775H26.4539V53.9082H28.4135V57.2775H31.3528Z" fill="#B0B0B0" fill-opacity="0.4"/>
<path d="M31.3528 84.2318V86.478H28.4135V89.8472H26.4539V86.478H23.5146V84.2318H26.4539V80.8625H28.4135V84.2318H31.3528Z" fill="#B0B0B0" fill-opacity="0.4"/>
<path d="M31.3528 111.186V113.432H28.4135V116.801H26.4539V113.432H23.5146V111.186H26.4539V107.816H28.4135V111.186H31.3528Z" fill="#B0B0B0" fill-opacity="0.4"/>
<path d="M31.3528 138.14V140.386H28.4135V143.755H26.4539V140.386H23.5146V138.14H26.4539V134.771H28.4135V138.14H31.3528Z" fill="#B0B0B0" fill-opacity="0.4"/>
<path d="M31.3528 165.094V167.34H28.4135V170.71H26.4539V167.34H23.5146V165.094H26.4539V161.725H28.4135V165.094H31.3528Z" fill="#B0B0B0" fill-opacity="0.4"/>
<path d="M31.3528 192.048V194.294H28.4135V197.663H26.4539V194.294H23.5146V192.048H26.4539V188.679H28.4135V192.048H31.3528Z" fill="#B0B0B0" fill-opacity="0.4"/>
<path d="M31.3528 219.002V221.248H28.4135V224.618H26.4539V221.248H23.5146V219.002H26.4539V215.633H28.4135V219.002H31.3528Z" fill="#B0B0B0" fill-opacity="0.4"/>
<path d="M31.3528 245.957V248.203H28.4135V251.572H26.4539V248.203H23.5146V245.957H26.4539V242.587H28.4135V245.957H31.3528Z" fill="#B0B0B0" fill-opacity="0.4"/>
<path d="M31.3528 272.911V275.157H28.4135V278.526H26.4539V275.157H23.5146V272.911H26.4539V269.541H28.4135V272.911H31.3528Z" fill="#B0B0B0" fill-opacity="0.4"/>
<path d="M31.3528 299.865V302.111H28.4135V305.48H26.4539V302.111H23.5146V299.865H26.4539V296.496H28.4135V299.865H31.3528Z" fill="#B0B0B0" fill-opacity="0.4"/>
<path d="M31.3528 326.819V329.065H28.4135V332.434H26.4539V329.065H23.5146V326.819H26.4539V323.45H28.4135V326.819H31.3528Z" fill="#B0B0B0" fill-opacity="0.4"/>
<path d="M31.3528 353.773V356.02H28.4135V359.389H26.4539V356.02H23.5146V353.773H26.4539V350.404H28.4135V353.773H31.3528Z" fill="#B0B0B0" fill-opacity="0.4"/>
<path d="M31.3528 380.727V382.973H28.4135V386.343H26.4539V382.973H23.5146V380.727H26.4539V377.358H28.4135V380.727H31.3528Z" fill="#B0B0B0" fill-opacity="0.4"/>
<path d="M31.3528 407.681V409.928H28.4135V413.297H26.4539V409.928H23.5146V407.681H26.4539V404.312H28.4135V407.681H31.3528Z" fill="#B0B0B0" fill-opacity="0.4"/>
<path d="M31.3528 434.635V436.882H28.4135V440.251H26.4539V436.882H23.5146V434.635H26.4539V431.266H28.4135V434.635H31.3528Z" fill="#B0B0B0" fill-opacity="0.4"/>
<path d="M31.3528 461.589V463.836H28.4135V467.205H26.4539V463.836H23.5146V461.589H26.4539V458.22H28.4135V461.589H31.3528Z" fill="#B0B0B0" fill-opacity="0.4"/>
<path d="M31.3528 488.544V490.79H28.4135V494.159H26.4539V490.79H23.5146V488.544H26.4539V485.175H28.4135V488.544H31.3528Z" fill="#B0B0B0" fill-opacity="0.4"/>
<path d="M31.3528 515.498V517.744H28.4135V521.113H26.4539V517.744H23.5146V515.498H26.4539V512.129H28.4135V515.498H31.3528Z" fill="#B0B0B0" fill-opacity="0.4"/>
<path d="M7.8382 3.36927V5.61545H4.89888V8.98472H2.93933V5.61545H0V3.36927H2.93933V0H4.89888V3.36927H7.8382Z" fill="#B0B0B0" fill-opacity="0.4"/>
<path d="M7.83833 30.3236V32.5698H4.899V35.9391H2.93945V32.5698H0.00012207V30.3236H2.93945V26.9543H4.899V30.3236H7.83833Z" fill="#B0B0B0" fill-opacity="0.4"/>
<path d="M7.83833 57.2775V59.5237H4.899V62.8929H2.93945V59.5237H0.00012207V57.2775H2.93945V53.9082H4.899V57.2775H7.83833Z" fill="#B0B0B0" fill-opacity="0.4"/>
<path d="M7.83833 84.2318V86.478H4.899V89.8472H2.93945V86.478H0.00012207V84.2318H2.93945V80.8625H4.899V84.2318H7.83833Z" fill="#B0B0B0" fill-opacity="0.4"/>
<path d="M7.83833 111.186V113.432H4.899V116.801H2.93945V113.432H0.00012207V111.186H2.93945V107.816H4.899V111.186H7.83833Z" fill="#B0B0B0" fill-opacity="0.4"/>
<path d="M7.83833 138.14V140.386H4.899V143.755H2.93945V140.386H0.00012207V138.14H2.93945V134.771H4.899V138.14H7.83833Z" fill="#B0B0B0" fill-opacity="0.4"/>
<path d="M7.83833 165.094V167.34H4.899V170.71H2.93945V167.34H0.00012207V165.094H2.93945V161.725H4.899V165.094H7.83833Z" fill="#B0B0B0" fill-opacity="0.4"/>
<path d="M7.83833 192.048V194.294H4.899V197.663H2.93945V194.294H0.00012207V192.048H2.93945V188.679H4.899V192.048H7.83833Z" fill="#B0B0B0" fill-opacity="0.4"/>
<path d="M7.83833 219.002V221.248H4.899V224.618H2.93945V221.248H0.00012207V219.002H2.93945V215.633H4.899V219.002H7.83833Z" fill="#B0B0B0" fill-opacity="0.4"/>
<path d="M7.83833 245.957V248.203H4.899V251.572H2.93945V248.203H0.00012207V245.957H2.93945V242.587H4.899V245.957H7.83833Z" fill="#B0B0B0" fill-opacity="0.4"/>
<path d="M7.83833 272.911V275.157H4.899V278.526H2.93945V275.157H0.00012207V272.911H2.93945V269.541H4.899V272.911H7.83833Z" fill="#B0B0B0" fill-opacity="0.4"/>
<path d="M7.83833 299.865V302.111H4.899V305.48H2.93945V302.111H0.00012207V299.865H2.93945V296.496H4.899V299.865H7.83833Z" fill="#B0B0B0" fill-opacity="0.4"/>
<path d="M7.83833 326.819V329.065H4.899V332.434H2.93945V329.065H0.00012207V326.819H2.93945V323.45H4.899V326.819H7.83833Z" fill="#B0B0B0" fill-opacity="0.4"/>
<path d="M7.83833 353.773V356.02H4.899V359.389H2.93945V356.02H0.00012207V353.773H2.93945V350.404H4.899V353.773H7.83833Z" fill="#B0B0B0" fill-opacity="0.4"/>
<path d="M7.83833 380.727V382.973H4.899V386.343H2.93945V382.973H0.00012207V380.727H2.93945V377.358H4.899V380.727H7.83833Z" fill="#B0B0B0" fill-opacity="0.4"/>
<path d="M7.83833 407.681V409.928H4.899V413.297H2.93945V409.928H0.00012207V407.681H2.93945V404.312H4.899V407.681H7.83833Z" fill="#B0B0B0" fill-opacity="0.4"/>
<path d="M7.83833 434.635V436.882H4.899V440.251H2.93945V436.882H0.00012207V434.635H2.93945V431.266H4.899V434.635H7.83833Z" fill="#B0B0B0" fill-opacity="0.4"/>
<path d="M7.83833 461.589V463.836H4.899V467.205H2.93945V463.836H0.00012207V461.589H2.93945V458.22H4.899V461.589H7.83833Z" fill="#B0B0B0" fill-opacity="0.4"/>
<path d="M7.83833 488.544V490.79H4.899V494.159H2.93945V490.79H0.00012207V488.544H2.93945V485.175H4.899V488.544H7.83833Z" fill="#B0B0B0" fill-opacity="0.4"/>
<path d="M7.83833 515.498V517.744H4.899V521.113H2.93945V517.744H0.00012207V515.498H2.93945V512.129H4.899V515.498H7.83833Z" fill="#B0B0B0" fill-opacity="0.4"/>
</g>
</svg>
