<svg width="207" height="209" viewBox="0 0 207 209" fill="none" xmlns="http://www.w3.org/2000/svg">
<circle cx="99.5" cy="87.5" r="87.5" fill="#9E9E9E" fill-opacity="0.1"/>
<g clip-path="url(#clip0)">
<path d="M100.103 114.32C99.2413 115.182 97.9482 116.475 96.2239 117.338L88.8965 110.01L97.9482 108.286L100.103 114.32Z" fill="#FFD15C"/>
<path d="M98.3799 167.768C97.5179 166.475 96.2248 165.613 94.5005 164.32C82.8626 157.855 53.5524 151.389 53.5524 151.389H28.1211V167.768H98.3799Z" fill="#344A5E"/>
<path d="M74.6723 167.768C73.8104 166.906 71.655 165.613 67.7757 163.889C60.879 161.303 36.7412 152.682 36.31 152.682L27.6895 150.958V167.337H74.6723V167.768Z" fill="#415A6B"/>
<path d="M136.311 167.768L145.362 150.096C145.362 150.096 128.121 155.699 123.811 157.423C119.5 159.148 109.587 161.303 107.432 167.337C107.432 167.768 107.432 167.768 107.432 168.199H136.311V167.768H136.311Z" fill="#344A5E"/>
<path d="M46.2244 52.2513L45.7932 54.8375C45.7932 54.8375 47.9482 60.0099 47.9482 61.7342C47.9482 63.4585 47.0863 64.3204 47.0863 64.3204C47.0863 64.3204 48.8106 66.9066 49.2413 68.6309C49.6725 70.3552 48.8102 70.7859 48.3794 70.7859C47.9482 70.7859 47.0863 71.2171 47.0863 71.2171C47.0863 71.2171 46.6551 72.9414 47.0863 73.8033C47.5175 74.2345 46.6551 75.0964 46.2244 74.6652C46.2244 74.6652 47.5175 75.5272 46.6555 76.8203C45.7936 78.1134 47.5175 81.9927 43.6382 82.8546C39.7589 83.7165 39.3277 84.1477 39.3277 84.1477L38.0346 92.3375L21.2242 77.2514L20.3623 75.0964L25.9659 53.9756L37.6038 48.372L46.2244 52.2513Z" fill="#FFD15C"/>
<path d="M35.0176 88.027L37.6038 87.165L38.4657 86.7339L44.9312 91.0443L50.1037 128.113L50.966 138.027H37.6038" fill="#CED6E0"/>
<path d="M20.3615 74.6648C20.3615 74.6648 24.672 73.3717 25.1028 66.9062C25.5335 60.4407 27.689 59.1476 29.4132 59.5787C31.1375 60.0099 32.4306 63.0269 32.4306 63.0269H34.5857C34.5857 63.0269 34.1545 60.0095 35.0168 59.1475C36.3099 58.2856 37.603 58.2856 37.603 56.5613C37.603 56.1302 37.603 55.6994 37.603 55.2682C37.603 52.682 40.1892 50.9578 42.3443 51.8201C42.3443 51.8201 42.7755 51.8201 42.7755 52.2513C44.4997 53.5444 45.3617 54.4063 45.3617 54.4063C45.3617 54.4063 49.6721 53.5444 47.5167 49.2339C45.3617 44.9234 33.2926 41.9064 26.3959 46.2165C19.4992 50.5266 16.913 60.4407 17.7753 66.475C19.0684 72.5098 20.3615 74.6648 20.3615 74.6648Z" fill="#415A6B"/>
<path d="M31.14 63.6286C30.9056 61.0206 29.3701 59.0273 27.7103 59.1764C26.0506 59.3255 24.895 61.5607 25.1294 64.1687C25.3637 66.7768 26.8992 68.7701 28.559 68.621C30.2188 68.4718 31.3743 66.2367 31.14 63.6286Z" fill="#FFD15C"/>
<path d="M40.1891 90.182L46.6546 104.406L54.4132 130.699C54.4132 130.699 55.7063 132.854 62.1718 134.579C68.2062 135.872 78.551 138.889 78.551 138.889C78.551 138.889 76.396 136.303 77.2579 132.855C78.1198 128.976 80.706 126.821 83.2922 126.821C83.2922 126.821 78.551 125.527 77.6887 125.096C76.3956 124.665 75.1025 124.234 73.8094 123.372C72.5163 122.51 70.3612 122.079 68.6369 120.786C66.9127 119.493 64.7576 118.2 64.7576 118.2C64.7576 118.2 55.7059 105.269 54.4128 102.682C53.1197 100.096 52.2578 97.5099 51.8266 94.9237C51.3954 92.3375 47.5161 88.027 43.6368 87.5963C39.7579 87.1651 40.1891 90.182 40.1891 90.182Z" fill="#2B4151"/>
<path d="M39.7588 85.4407C39.7588 85.4407 41.9138 87.165 43.6381 88.0269C45.3624 88.8889 48.3793 91.9063 49.6724 94.4925C50.9656 97.0787 53.1206 128.975 53.9829 131.561C54.4141 134.148 64.3278 153.113 64.7589 155.268C65.1901 157.855 64.7589 160.441 64.7589 160.441L48.3798 152.682C48.3798 152.682 43.2073 95.7856 41.4831 92.3374C39.7588 88.4581 39.7588 85.4407 39.7588 85.4407Z" fill="#344A5E"/>
<path d="M39.3277 85.8719L41.9139 88.4582L41.4827 91.4755L43.6377 91.9067C43.6377 91.9067 49.2413 106.562 50.9652 117.769C52.6891 128.976 52.2583 132.424 52.2583 132.424C52.2583 132.424 48.8101 118.2 47.517 113.459C46.2239 109.148 38.8965 86.7347 38.8965 86.7347L39.3277 85.8719Z" fill="#415A6B"/>
<path d="M19.9307 78.9752L20.7926 74.6647C20.7926 74.6647 26.8269 76.389 31.1374 80.2683C35.4479 84.1476 37.6029 87.165 37.6029 87.165L35.0167 94.0617L19.9307 78.9752Z" fill="#F3F3F3"/>
<path d="M0.534359 139.32C0.965528 141.475 4.41367 162.165 5.2756 167.768H33.2927C39.3271 164.751 43.2064 160.441 43.6375 153.544C44.4995 145.785 43.6375 133.716 43.6375 133.716C43.6375 133.716 40.6202 110.44 36.3101 99.6644C32 88.8884 19.4997 77.6816 19.4997 77.6816L18.6378 78.1128C18.6378 78.1128 15.1897 78.544 12.1723 80.2678C9.15491 81.9917 3.12057 91.0438 0.965528 97.0782C-0.758745 103.544 0.103594 121.216 1.3967 125.095C2.6894 129.837 0.10319 136.734 0.534359 139.32Z" fill="#344A5E"/>
<path d="M99.2407 106.562L90.6202 102.251C90.189 101.82 89.3271 101.82 88.8959 102.251C88.4647 102.251 87.6028 102.682 87.1716 102.682C85.8785 103.113 85.4474 103.113 83.2923 102.682C81.9992 102.251 78.1199 102.251 75.1025 101.82V111.734C77.2576 111.734 80.275 111.734 80.7061 112.165C81.9992 112.596 81.9992 112.596 82.8612 113.458C83.7231 114.32 89.7578 117.769 89.7578 118.631C89.7578 119.493 89.3267 119.493 89.3267 119.493C89.3267 120.355 89.7578 120.355 90.6198 120.355C91.4817 120.355 91.9129 119.923 91.9129 119.923C93.206 120.355 95.361 119.061 95.361 119.061C96.223 119.061 96.6541 118.63 97.5161 118.2C97.9472 117.338 98.8092 116.475 98.378 116.044C98.378 115.613 97.0849 113.458 96.6537 113.027C97.0849 113.458 98.378 114.32 98.378 114.32C98.378 114.751 99.2399 116.475 99.2399 116.475C99.2399 119.923 101.395 119.061 101.395 119.061V117.768C101.395 117.337 101.826 116.906 101.826 116.906V115.182C103.12 112.596 99.2407 106.562 99.2407 106.562Z" fill="#F7B64C"/>
<path d="M112.172 119.493C112.172 119.493 110.017 122.079 107.862 121.648C105.706 121.216 105.707 107.855 107.862 105.699L115.189 110.01L112.172 119.493Z" fill="#344A5E"/>
<path d="M109.155 109.579L107 118.199C103.983 118.199 107 106.13 107 106.13L109.155 109.579Z" fill="#ADB3BA"/>
<path d="M109.156 106.13L100.966 106.562C100.966 106.562 99.6727 105.7 97.5177 104.407C95.3626 103.545 94.9315 102.252 93.6384 102.252C92.7764 101.82 89.3279 102.252 89.3279 102.252C89.3279 102.252 88.466 102.683 88.466 103.545L87.1729 104.407C87.1729 104.407 88.466 107.424 91.0522 105.268C91.0522 105.268 92.3453 104.837 92.7764 105.268C92.7764 105.268 96.2246 107.424 97.0869 108.286C97.9489 109.148 100.535 110.872 100.966 112.165C101.397 113.458 101.828 114.751 101.828 114.751L113.897 117.769L112.604 109.579L109.156 106.13Z" fill="#FFD15C"/>
<path d="M110.017 105.699H107C107 105.699 109.155 114.32 107 117.768L113.897 117.337C113.897 117.337 117.345 108.717 110.017 105.699Z" fill="#F3F3F3"/>
<path d="M161.311 80.6996C161.311 80.6996 158.725 81.9927 156.569 85.872C154.414 89.3201 153.983 90.6132 153.983 90.6132C153.983 90.6132 151.828 93.1994 150.966 94.4926C150.104 95.3545 149.673 95.3545 149.242 96.2168C148.81 97.0792 148.38 97.0788 147.517 97.5099C146.655 97.9411 146.655 97.9411 144.5 99.2342C142.345 100.527 137.173 103.114 134.155 103.114C131.138 103.114 125.103 104.407 122.948 104.838C120.793 105.269 107.862 105.7 107.862 105.7C107.862 105.7 113.466 110.872 111.742 116.045C110.017 121.217 109.155 121.648 107.862 121.648C107.862 121.648 109.155 122.51 111.742 121.648C114.328 120.786 118.638 120.355 122.086 119.924C125.104 119.493 137.604 118.2 141.052 117.338C144.5 116.476 151.397 113.458 153.121 113.027C154.845 112.596 156.569 111.734 156.569 111.734L161.311 80.6996Z" fill="#415A6B"/>
<path d="M181.139 167.768L171.656 147.51L137.173 156.993L133.294 160.872C133.294 160.872 131.139 164.751 131.139 167.769H181.139V167.768Z" fill="#415A6B"/>
<path d="M166.914 47.9407C166.914 47.9407 163.466 47.5095 162.173 50.0958C160.88 52.682 158.294 56.9924 158.294 57.8544C158.294 58.7163 158.725 59.5787 158.294 60.4406C157.863 60.8718 155.276 64.3199 155.276 65.1818C155.276 66.0438 155.276 66.4749 156.138 66.9061C157 67.3373 157.863 67.3373 157.863 67.3373C157.863 67.3373 156.569 69.9235 158.294 70.3546C158.294 70.3546 157.001 70.7858 157.863 72.0789C158.725 72.9409 156.569 77.6825 160.018 78.1133C163.466 78.5444 166.483 77.6821 167.345 79.4064C168.207 81.1306 166.914 87.5962 166.914 87.5962L185.879 76.8202L185.017 73.8028L184.155 51.82L166.914 47.9407Z" fill="#FFD15C"/>
<path d="M156.138 117.337L153.12 132.854C153.12 132.854 147.948 147.078 145.793 150.958C143.638 154.837 143.638 154.837 143.638 154.837L158.293 150.096L160.017 101.389L156.138 117.337Z" fill="#344A5E"/>
<path d="M88.0343 167.768L87.1723 146.648H77.6895L78.9826 167.768H88.0343Z" fill="#F3705A"/>
<path d="M22.9482 147.079C22.9482 150.096 48.8103 151.389 81.1379 149.234C113.465 147.079 139.328 143.199 139.328 140.182V135.009C139.328 131.992 113.465 130.699 81.1379 132.854C48.8103 134.579 22.9482 138.889 22.9482 141.906V147.079Z" fill="#F05540"/>
<path d="M139.328 135.01C139.328 138.027 113.465 142.337 81.1379 144.062C48.8103 145.786 22.9482 144.924 22.9482 141.907C22.9482 138.89 48.8103 134.579 81.1379 132.855C113.035 131.131 139.328 131.993 139.328 135.01Z" fill="#F3705A"/>
<path d="M119.069 136.734H123.379C123.379 136.734 127.258 136.734 128.983 134.147H94.0689C94.0689 134.147 86.7414 136.734 79.8447 135.872L98.3793 136.734H119.069Z" fill="#F3F3F3"/>
<path d="M81.5691 137.596L123.38 137.165C123.38 137.165 122.948 137.165 120.793 136.734L79.4141 136.303L81.5691 137.596Z" fill="#CED6E0"/>
<path d="M82.8618 127.251C82.8618 127.251 84.1549 127.682 85.0168 127.251C85.448 126.82 88.465 125.096 89.7581 124.665C91.0512 124.234 91.4824 124.234 92.7755 125.096C94.0686 125.958 94.9305 126.821 94.9305 126.821C94.9305 126.821 95.7924 126.389 97.0855 128.114C98.3786 129.838 98.8098 131.131 98.8098 131.131C98.8098 131.131 92.3443 132.424 91.9131 132.424C91.482 132.424 91.9131 130.269 91.9131 130.269C91.9131 130.269 90.62 130.269 90.1888 129.407L88.8957 130.269C88.8957 130.269 90.62 130.269 91.0508 131.131C91.4819 131.993 91.4819 133.286 90.6196 133.286C89.7577 133.286 88.4646 134.148 87.1715 132.855C87.1715 132.855 85.8784 134.579 83.7233 134.579C81.5683 134.579 77.2578 133.717 77.2578 133.717C77.2578 133.717 77.2578 131.131 78.1197 129.838C79.4137 128.975 82.8618 127.251 82.8618 127.251Z" fill="#FFD15C"/>
<path d="M88.8961 131.992L106.138 129.406C106.138 129.406 97.517 133.717 94.0685 135.01C90.6204 136.303 84.5856 138.027 81.1375 137.596L78.9824 136.303C78.9824 136.303 81.9998 136.303 84.586 135.872C87.603 135.441 88.8961 132.854 88.8961 131.992Z" fill="#E8EAE9"/>
<path d="M167.776 83.7165L179.414 82.4234L169.069 145.354L155.276 147.94L157.431 99.6645L165.621 81.561C165.19 81.9926 167.776 83.7165 167.776 83.7165Z" fill="#4ABAA5"/>
<path d="M154.413 146.648C154.413 146.648 153.12 147.51 151.827 147.941C150.534 148.372 150.534 148.372 150.103 148.372C149.672 148.372 146.224 147.941 143.637 149.234C141.051 150.527 139.327 150.096 139.327 151.82C139.327 153.544 138.465 153.975 138.465 153.975C138.465 153.975 135.879 154.837 135.017 155.699C134.155 156.131 134.155 157.854 134.155 157.854L133.293 160.009C133.293 160.009 133.724 160.871 134.586 160.871C135.448 160.44 135.879 159.147 136.31 159.147C136.742 159.147 138.465 158.285 138.897 157.854C138.897 157.854 142.345 157.423 144.931 157.854C147.517 157.854 153.551 157.854 155.276 156.561C156.569 155.268 157.431 154.406 157.862 153.975C158.724 153.544 162.172 151.389 162.172 151.389L154.413 146.648Z" fill="#FFD15C"/>
<path d="M156.57 144.923L153.983 146.648C153.983 146.648 156.138 148.372 157.432 149.665C158.725 150.958 161.742 154.406 161.742 154.838C161.742 155.269 161.311 155.269 161.311 155.269C161.311 155.269 161.742 155.7 162.173 155.7C163.035 155.7 166.914 152.252 166.914 152.252L156.57 144.923Z" fill="#F3F3F3"/>
<path d="M168.638 63.0268L171.224 63.458C171.224 63.458 171.224 60.4406 175.104 60.0098C178.983 59.5787 178.983 64.7511 179.845 66.9065C180.707 69.0616 185.449 73.372 185.449 73.372C185.449 73.372 186.311 68.6308 187.604 66.9065C188.897 65.1823 191.052 59.1479 189.328 53.5443C187.604 47.9407 185.017 44.4926 177.69 43.1995C170.363 41.9064 163.897 44.0614 162.604 45.3545C161.311 46.6476 163.035 49.665 163.035 49.665C163.035 49.665 166.483 47.9407 168.639 48.3719C170.363 48.8031 170.363 49.2338 170.363 49.2338C170.363 49.2338 166.484 52.2512 168.208 55.6994C169.5 60.0098 168.638 63.0268 168.638 63.0268Z" fill="#415A6B"/>
<path d="M185.879 75.9578C185.879 75.9578 178.983 82.4233 176.396 84.5783C173.379 86.7334 170.793 90.6127 170.793 90.6127L167.775 83.716L172.517 79.4055C173.81 78.1124 175.103 77.2505 176.396 76.8193C179.844 75.095 185.017 73.3712 185.017 73.3712L185.879 75.9578Z" fill="#F3F3F3"/>
<path d="M167.776 81.5614C167.345 82.4234 166.914 82.8545 166.483 83.7165C166.052 84.1476 165.621 85.0096 165.621 85.4407C164.759 86.7338 163.897 88.0269 163.466 89.32C162.173 91.9063 161.311 94.4925 160.449 97.5098C159.587 100.096 158.725 103.113 157.863 105.7C157.001 108.717 156.57 112.165 156.138 115.183C156.138 116.044 156.57 116.476 157.432 116.476C157.432 116.907 157.432 116.907 157.432 117.338L153.983 127.251C154.415 124.665 154.415 103.113 154.415 98.3718C154.415 93.1994 157.863 83.2857 159.156 81.5614C160.449 79.8372 160.88 79.8372 163.035 78.9752C163.897 78.5441 165.621 78.544 166.914 78.1133L167.346 78.5445C167.776 79.4064 167.776 80.2683 167.776 81.5614Z" fill="#344A5E"/>
<path d="M167.775 81.1303C166.913 82.8545 165.189 85.4407 163.896 89.7508C162.172 96.2163 159.155 108.716 157.431 117.768C155.706 126.82 153.12 133.285 153.12 133.285C153.982 130.699 154.413 121.216 154.413 114.751C154.413 108.285 160.017 88.8885 162.172 85.0092C163.465 82.423 166.482 80.6987 167.775 80.2679C167.775 80.2683 167.775 80.6995 167.775 81.1303Z" fill="#415A6B"/>
<path d="M173.811 163.458C174.242 165.613 175.104 166.906 176.397 167.769H207C207 167.769 206.569 157.424 206.138 152.683C205.707 147.941 200.966 124.665 201.397 121.648C201.828 118.631 203.121 108.717 203.983 103.976C204.845 99.2346 203.983 87.1655 200.535 83.2862C197.087 79.4068 187.173 77.6826 187.173 77.6826L185.449 77.2514C177.259 82.4238 164.759 104.838 162.604 111.303C160.449 117.769 160.449 123.372 161.311 127.252C162.173 131.131 172.518 159.148 173.811 163.458Z" fill="#344A5E"/>
<path d="M185.017 73.3716C185.017 73.3716 181.569 76.8197 179.414 78.544C177.689 80.2683 175.103 85.4407 172.948 88.8888C170.793 92.337 163.896 105.268 161.31 112.596C158.724 119.923 160.879 127.682 160.879 127.682C160.879 127.682 160.017 119.923 160.879 116.906C161.741 113.889 168.206 98.8025 177.258 87.5957L176.827 87.1645L179.413 85.0095C179.413 85.0095 183.724 79.4059 187.172 77.6821C187.603 78.1132 186.741 74.6647 185.017 73.3716Z" fill="#415A6B"/>
<path d="M184.155 105.699C184.155 105.699 180.707 101.389 182 95.3544C182 95.3544 185.017 82.4233 195.362 81.5614C197.948 81.1302 200.534 82.8545 201.828 85.0095C203.121 87.1646 203.983 90.182 203.552 94.9232C203.121 104.406 201.828 110.009 199.673 116.475C197.518 122.94 194.5 129.406 191.052 134.147C187.604 138.888 168.638 156.992 168.638 156.992C168.638 156.992 160.879 150.095 158.724 147.94C156.569 145.785 155.707 145.354 155.707 145.354C155.707 145.354 163.897 138.888 165.621 136.302C167.776 133.716 166.914 133.285 168.638 132.423C170.362 131.992 174.672 125.526 176.397 123.802C178.121 121.647 178.983 119.923 179.414 118.199C179.845 116.906 182.431 108.716 182.431 108.716C182.862 108.285 184.155 105.699 184.155 105.699Z" fill="#415A6B"/>
<path d="M167.776 79.8371C168.207 80.699 168.207 81.9921 168.207 83.7164C168.207 83.7164 165.621 84.5783 165.621 86.7338C165.19 86.3026 166.914 80.6994 167.776 79.8371Z" fill="#F3F3F3"/>
<path d="M89.328 120.355C89.328 120.355 88.0349 120.355 87.6037 118.2C87.6037 118.2 86.7418 118.631 85.8795 118.2C85.0171 117.768 85.4483 116.906 85.4483 116.906C85.4483 116.906 84.5864 117.338 84.1552 116.475C83.724 116.044 83.2933 115.613 83.2933 114.751C83.2933 114.751 82.4313 115.182 81.569 114.751C80.7071 114.32 81.1378 112.596 81.569 112.165C82.0002 111.734 83.724 113.027 83.724 113.889C83.724 113.889 85.0171 113.027 86.3102 113.027C87.6033 113.027 87.6033 114.32 87.6033 114.32C87.6033 114.32 88.0345 113.458 89.3276 113.889C90.6207 114.32 89.7588 116.044 89.7588 116.044C89.7588 116.044 90.6207 116.475 90.6207 117.337C90.6207 118.199 89.328 119.493 89.328 120.355Z" fill="#FFD15C"/>
<path d="M107 118.199C110.017 118.199 109.155 110.01 109.155 110.01L107 118.199Z" fill="#F3F3F3"/>
<path d="M78.5519 102.251C78.5519 102.251 78.5519 112.165 78.1207 113.458H67.3447L68.6378 101.82L78.5519 102.251Z" fill="#F3F3F3"/>
<path d="M20.3616 75.0959C20.3616 75.0959 33.2926 87.5958 35.4476 91.4751C38.0338 95.3544 42.7751 114.32 43.2063 120.785C43.6374 127.682 43.6374 134.148 43.6374 134.148C43.6374 134.148 41.0512 123.372 39.7581 116.475C38.465 110.01 32.8614 94.4925 29.8445 88.8889C26.8271 83.2853 18.6377 77.6822 18.6377 77.6822L20.3616 75.0959Z" fill="#415A6B"/>
<path d="M11.3101 107.855C11.3101 107.855 5.2757 105.268 4.41337 97.941C3.55103 90.6135 4.84454 83.7169 11.3101 81.1306C17.7756 78.5444 26.3961 85.8719 28.5516 89.7512C30.7066 93.6305 29.8447 94.4924 29.8447 94.4924C29.8447 94.4924 38.4652 99.6649 40.1895 100.096C41.9138 100.527 43.2069 100.958 43.6376 100.527C44.0688 100.096 55.7067 100.958 60.448 100.958C65.1892 100.958 73.8102 101.82 73.8102 101.82C73.8102 101.82 73.8102 114.751 72.9483 116.044C72.9483 116.044 49.2412 115.613 44.9311 115.613C40.6211 115.613 37.1725 116.044 33.7244 115.182C30.2758 114.751 11.3101 107.855 11.3101 107.855Z" fill="#415A6B"/>
<path d="M38.4648 86.7338L40.1891 91.9062C40.1891 91.9062 41.4822 89.7512 41.0511 87.5958C40.6199 85.4403 39.7579 83.2853 39.7579 83.2853C39.7579 83.2853 38.896 86.3027 38.4648 86.7338Z" fill="#F3F3F3"/>
<path d="M75.534 136.303L79.4133 137.165C79.4133 137.165 78.1202 133.286 78.9821 130.699C79.8441 128.113 83.7234 127.251 83.7234 127.251L79.4129 126.389L71.6543 129.407L75.534 136.303Z" fill="#E8EAE9"/>
<path d="M76.3967 132.424C75.5347 136.303 77.6898 138.458 77.6898 138.458C77.6898 138.458 67.7761 135.441 61.3106 134.147C59.1555 133.716 57.8624 133.286 56.5693 132.423V124.233C56.5693 124.233 75.9659 124.665 76.3971 124.665C77.6902 125.096 82.0006 126.389 82.0006 126.389C79.8448 126.389 77.6898 128.544 76.3967 132.424Z" fill="#2B4151"/>
<path d="M91.0519 131.131C90.6207 130.269 88.8969 130.269 88.8969 130.269L89.328 129.837H85.8799V134.579C86.7418 134.148 87.6042 133.286 87.6042 133.286C88.8973 134.148 89.7592 133.717 91.0523 133.717C91.4827 133.286 91.4827 131.992 91.0519 131.131Z" fill="#FFD15C"/>
</g>
<defs>
<clipPath id="clip0">
<rect width="207" height="207" fill="white" transform="translate(0 2)"/>
</clipPath>
</defs>
</svg>
