<svg width="207" height="227" viewBox="0 0 207 227" fill="none" xmlns="http://www.w3.org/2000/svg">
<circle cx="91.5" cy="87.5" r="87.5" fill="#9E9E9E" fill-opacity="0.1"/>
<path d="M131.488 141.149L144.43 201.547L158.667 197.664C158.667 197.664 152.627 126.049 137.528 119.578L131.488 141.149Z" fill="#344A5E"/>
<path d="M43.9109 115.264C43.9109 115.264 33.1254 117.421 31.8312 118.284C30.1054 119.146 24.9284 131.226 27.9484 144.6C30.9685 157.974 37.8709 179.976 48.2248 192.056C58.5788 204.135 71.5212 211.901 71.5212 211.901C71.5212 211.901 79.2867 219.235 90.0722 218.372C100.858 217.509 147.882 215.352 147.882 215.352C147.882 215.352 150.902 195.507 137.959 177.387L116.82 179.544L88.778 179.113L71.5212 149.345L71.9528 132.52C71.5216 132.52 50.8137 116.126 43.9109 115.264Z" fill="#425A6B"/>
<path d="M152.628 227H126.311L112.506 195.075C112.506 195.075 120.703 173.936 119.409 156.68C118.546 139.423 108.624 108.361 108.624 108.361C108.624 108.361 115.526 110.949 120.703 113.106C125.88 115.263 137.097 119.578 137.097 119.578C137.097 119.578 144.862 129.069 145.294 140.286C145.294 151.934 145.294 177.387 145.294 177.387C150.039 186.016 151.334 206.724 152.628 227Z" fill="#344A5E"/>
<path d="M54.2652 227C55.5595 216.646 53.4025 205.86 48.6567 196.801C37.0085 173.504 33.1257 163.582 33.1257 163.582C47.3624 166.17 58.5791 172.21 65.4819 184.721C69.3646 169.19 71.9531 153.66 71.0904 147.62C68.5019 133.383 53.4025 121.735 46.9313 118.284C41.7543 115.695 34.8515 116.99 32.6946 117.852C34.8515 116.99 40.4601 115.264 43.9113 113.107C48.2255 110.95 59.4422 105.341 59.4422 105.341L64.6192 106.204C64.6192 106.204 98.7011 138.992 102.584 145.894C106.467 152.797 121.998 195.938 121.998 195.938L128.469 227H54.2652Z" fill="#344A5E"/>
<path d="M32.6943 117.852C32.2628 117.852 31.8317 118.284 31.8317 118.284C31.8317 118.283 32.2628 117.852 32.6943 117.852Z" fill="#344A5E"/>
<path d="M118.978 221.823C118.978 221.823 106.467 219.235 99.5638 213.626C93.0926 208.017 110.349 201.546 110.349 201.546L118.978 222.686" fill="#FFD15C"/>
<path d="M116.389 41.9229L118.114 53.1396C118.114 53.1396 118.977 56.5908 118.114 59.1792C117.252 61.7677 118.546 64.3562 118.546 68.239C118.546 72.1217 114.663 83.3384 115.095 85.9268C115.095 88.5153 115.957 99.732 106.898 99.732L105.603 119.146L69.3645 102.752C69.3645 102.752 72.8157 93.2608 72.8157 89.378C72.8157 85.0637 69.3645 73.8471 69.3645 73.8471L66.3445 59.6104C66.3445 59.6104 70.6588 36.314 82.307 31.5685C93.5237 26.8235 110.78 26.8235 116.389 41.9229Z" fill="#FFD15C"/>
<path d="M112.938 40.1975C111.643 38.0406 105.172 38.4717 100.427 38.0406C96.1123 37.609 84.8957 39.3348 83.6014 40.629C82.3072 41.9233 87.0526 44.9433 86.1899 48.8261C85.7584 52.2773 81.0129 54.4346 80.1502 57.4542C78.856 60.9054 80.1502 69.534 80.1502 69.534L77.5617 70.8282C77.5617 70.8282 71.9532 64.357 68.9336 64.7886C65.9135 65.2201 72.3848 79.0253 72.3848 84.6338C72.3848 90.2423 72.3848 89.8108 72.3848 89.8108C72.3848 89.8108 67.6393 78.1626 65.9135 73.4171C64.1877 68.6717 59.8739 56.5919 59.8739 48.8265C59.8739 41.061 66.7766 30.2755 73.2479 27.2559C79.7191 24.2362 99.9955 17.7646 109.055 20.7846C118.115 23.8047 120.272 35.884 119.409 39.7668C118.546 43.6495 118.115 53.5719 118.115 53.5719C118.115 53.5719 114.232 42.3544 112.938 40.1975Z" fill="#425A6B"/>
<path d="M74.5422 84.2019C84.8962 98.8702 106.467 100.164 106.467 100.164L105.173 116.558C82.7388 105.341 74.5422 84.2019 74.5422 84.2019Z" fill="#F5B54C"/>
<path d="M84.8956 126.48C93.0926 134.677 100.858 143.306 102.583 146.326C105.172 150.64 112.506 170.054 117.252 182.996L122.429 170.916L109.055 109.655L105.604 107.067L96.9754 110.087H87.4841L84.8956 126.48Z" fill="#E8EAE8"/>
<path d="M96.5437 116.558L96.9753 121.303L106.898 156.248L113.8 173.505L118.546 170.485L114.663 141.58C114.663 141.58 103.015 121.735 103.015 118.715C103.015 115.695 102.583 115.264 102.583 115.264L96.5437 116.558Z" fill="#F26F5A"/>
<path d="M104.74 113.106C104.74 113.106 104.74 116.989 103.446 118.715C103.446 118.715 97.8375 118.283 97.4063 121.303C97.4063 121.303 93.5236 116.126 90.5035 116.126C90.5035 116.126 94.8178 111.381 97.4063 110.518C99.9948 109.655 100.857 109.655 100.857 109.655L104.74 113.106Z" fill="#F05640"/>
<path d="M72.384 90.2416C72.384 90.2416 72.384 93.2616 74.1098 94.987C75.8356 96.7124 97.4062 110.086 97.4062 110.086C93.5235 112.675 90.935 116.558 90.0723 120.44L66.7759 99.3009C66.3444 99.7328 70.2271 91.5358 72.384 90.2416Z" fill="#F3F3F3"/>
<path d="M68.5015 95.4185C68.5015 95.4185 67.6388 96.7127 68.5015 98.007C68.933 98.4385 70.2273 99.7328 71.9527 101.458C82.3066 111.812 91.7979 123.029 99.9945 135.109C103.877 140.717 107.328 146.325 109.054 150.208C113.8 161.425 122.428 186.878 122.859 197.232C122.859 197.232 107.328 161.425 99.1314 150.208C90.9344 138.991 69.3638 120.872 66.7753 119.578L71.5207 114.832H63.7552C63.7552 114.832 60.7352 107.067 59.8725 106.204L61.1668 104.047C60.736 103.615 65.913 94.5558 68.5015 95.4185Z" fill="#425A6B"/>
<path d="M115.958 114.401L114.232 115.695L122.86 120.872C122.86 120.872 128.9 145.894 126.311 160.993C125.017 169.622 122.428 180.407 120.271 188.173C119.409 186.016 118.546 183.427 118.115 180.839C118.115 179.976 117.252 179.544 116.389 179.544C115.957 164.876 114.663 145.894 113.8 140.717C112.074 132.089 105.603 104.047 105.603 104.047C105.603 104.047 112.506 111.812 115.958 114.401Z" fill="#425A6B"/>
<path d="M106.466 100.164C106.466 100.164 103.015 108.361 97.4066 110.086C97.4066 110.086 104.309 111.381 106.466 119.578C106.466 119.578 108.192 104.91 106.466 100.164Z" fill="#F3F3F3"/>
<path d="M166.433 220.098L152.628 223.98L143.136 226.569H119.408L112.506 207.587L117.251 205.861L149.176 194.644L145.293 177.387C145.293 177.387 145.293 151.934 145.293 140.286C145.293 128.638 137.096 119.578 137.096 119.578C143.567 120.441 150.038 135.109 151.764 138.56C153.49 142.011 154.353 145.031 154.784 147.188C155.216 149.345 156.941 151.934 159.099 155.385C161.255 158.837 161.687 161.425 162.55 163.151C163.844 164.445 174.198 179.544 176.355 182.996C178.081 186.447 180.669 201.978 179.806 210.607C178.944 219.234 166.433 220.098 166.433 220.098Z" fill="#425A6B"/>
<path d="M144.861 196.37L149.176 194.644C149.176 189.898 148.744 185.584 147.45 181.701C146.587 179.113 143.999 177.819 141.41 178.681L133.213 181.701L144.861 196.37Z" fill="#FFD15C"/>
<path d="M118.546 216.215L125.88 215.783C128.469 215.783 130.626 215.352 133.214 215.352C135.802 215.352 137.959 214.92 140.548 214.92L147.019 214.489C147.019 214.057 147.019 213.194 147.019 212.763C147.019 211.9 147.019 211.037 147.019 210.174C147.019 209.312 147.019 208.449 147.019 207.586C147.019 206.723 147.019 205.86 147.019 204.997C147.019 204.135 147.019 203.272 146.588 202.409V201.115V199.82C146.588 198.958 146.156 198.095 146.156 197.232C146.156 196.8 146.156 196.369 145.724 195.938V195.506L146.587 195.937V196.369C146.587 196.8 146.587 197.232 147.019 197.663C147.019 198.526 147.45 199.389 147.45 200.252V201.546V202.84C147.45 203.703 147.45 204.566 147.882 205.429C147.882 206.291 147.882 207.154 147.882 208.017C147.882 208.88 147.882 209.743 147.882 210.606C147.882 211.468 147.882 212.331 147.882 213.194C147.882 214.057 147.882 214.92 147.45 215.783V216.214H147.019L139.685 216.646C137.096 216.646 134.939 217.077 132.351 217.077C129.762 217.077 127.605 217.509 125.017 217.509L117.683 217.94H115.095L114.663 216.646L118.546 216.215Z" fill="#344A5E"/>
<path d="M28.8111 149.345C32.2623 162.719 38.7335 181.27 47.7932 191.624C58.1472 203.704 71.0896 211.469 71.0896 211.469C71.0896 211.469 78.8551 218.803 89.6406 217.94C100.426 217.078 147.45 214.92 147.45 214.92C147.45 214.92 150.47 195.075 137.528 176.956L116.388 179.113L88.3464 178.681L71.0896 148.913H28.8111V149.345Z" fill="#425A6B"/>
<path d="M88.7789 179.544C86.6219 177.819 84.0335 176.093 81.445 174.367C81.445 174.367 80.5823 172.211 82.7392 171.779L81.445 172.211L73.6795 167.896C73.6795 167.896 71.9537 165.739 73.6795 164.876C73.6795 164.876 69.7967 163.582 70.6594 162.288C71.5221 160.562 73.6795 160.993 73.6795 160.993C73.6795 160.993 72.3852 159.699 72.8168 158.837C73.2483 157.974 74.5426 158.405 75.4053 158.405C76.268 158.837 80.1507 160.993 80.1507 160.993L85.7592 166.17C85.7592 166.17 87.485 167.896 88.3477 169.19C89.2104 170.485 91.3678 175.23 91.3678 176.093C91.3678 176.956 92.2305 179.544 92.2305 179.544H88.7789Z" fill="#FFD15C"/>
<path d="M81.0139 171.347L81.4451 171.779L81.8766 172.642L83.1709 171.347H81.0139Z" fill="#FFD15C"/>
<path d="M82.7379 171.779C83.1694 172.211 83.1694 172.211 83.6005 172.211C84.0317 172.211 84.0321 172.642 84.4632 172.642L85.3259 173.074C85.7575 173.074 85.7575 173.505 86.1886 173.505C86.6202 173.937 87.0513 173.937 87.9144 174.368C88.346 174.368 88.346 174.8 88.7771 174.8C88.7771 174.8 89.2087 174.799 89.2087 175.231C89.2087 175.231 89.2087 175.231 89.6402 175.663C90.0718 176.094 90.5029 176.525 90.5029 176.957V178.683C90.0714 178.251 90.0714 177.82 89.6402 177.388C89.2091 176.957 88.7775 176.526 88.7775 176.094C88.7775 176.094 88.7775 175.663 88.346 175.663C88.346 175.663 87.9144 175.663 87.9144 175.231C87.4829 175.231 87.4829 174.8 87.0517 174.8C86.6206 174.8 86.6202 174.368 86.189 174.368C85.7575 174.368 85.7575 173.936 85.3263 173.936C84.8948 173.936 84.8948 173.505 84.4637 173.505L83.6009 173.073C83.1694 173.073 83.1694 172.642 82.7382 172.642C83.1694 171.779 82.7379 171.779 82.7379 171.779Z" fill="#F5B54C"/>
<path d="M73.2465 164.876C73.2465 164.876 73.6777 164.876 73.2465 164.876C73.6781 164.876 73.6781 164.876 73.6781 164.876C73.6781 164.876 74.1096 164.876 74.5407 164.876C74.9723 164.876 74.9723 164.876 75.4034 164.876C76.2661 165.308 76.6977 165.308 77.5604 165.739C77.9919 165.739 78.4231 166.171 78.8546 166.171C79.2862 166.602 79.7173 166.602 80.1489 167.033C81.0116 167.465 81.8747 167.896 82.7374 168.327C83.6001 168.759 84.0316 169.19 84.8943 169.622C85.3259 170.053 86.1886 170.484 86.1886 170.916L86.6201 171.348C86.6201 171.348 86.6201 171.347 86.1886 170.916C85.757 170.484 85.3259 170.053 84.8943 169.622C84.4628 169.19 83.6001 168.759 82.7374 168.327C82.3058 167.896 81.8747 167.896 81.4431 167.465C81.0116 167.033 80.5804 167.033 80.1489 166.602C79.7173 166.171 79.2862 166.171 78.8546 165.739C78.4231 165.308 77.9919 165.308 77.5604 165.308C77.1288 165.308 76.6977 164.876 76.2662 164.876C75.8346 164.876 75.4034 164.445 74.9719 164.445C74.9719 164.445 74.9719 164.445 74.5403 164.445C74.5403 164.445 74.5403 164.445 74.1088 164.445C74.1088 164.445 74.1088 164.445 73.6773 164.445C73.2457 164.445 73.2457 164.445 72.8145 164.445C73.6776 164.445 73.6777 164.445 73.2465 164.876C73.6777 164.876 73.2465 164.876 73.2465 164.876Z" fill="#F5B54C"/>
<path d="M73.6776 160.562C73.6776 160.562 73.6776 160.562 74.1092 160.994C74.5407 160.994 74.9719 161.425 75.4034 161.857C75.835 161.857 75.835 162.288 76.2661 162.288H76.6977C76.6977 162.288 76.6977 162.288 77.1292 162.288C77.1292 162.288 77.1292 162.288 77.5608 162.288C77.9923 162.288 78.4235 162.288 78.855 162.72C79.2866 162.72 79.7177 163.151 80.1493 163.151C80.5808 163.151 81.012 163.583 81.4435 163.583C81.8751 164.014 82.3062 164.014 82.3062 164.014C83.1689 164.446 83.6005 164.877 84.032 165.309C84.4636 165.74 84.8947 165.74 85.3263 166.171C85.7578 166.171 85.7578 166.603 85.7578 166.603C85.7578 166.603 85.7578 166.603 85.3263 166.171C84.8947 166.171 84.4636 165.74 84.032 165.309C83.6005 164.877 82.7378 164.446 82.3062 164.014C81.8747 164.014 81.4435 163.583 81.4435 163.152C81.012 162.72 80.5808 162.72 80.1493 162.72C79.7177 162.72 79.2866 162.289 78.855 162.289C78.4235 162.289 77.9923 161.857 77.5608 161.857C77.5608 161.857 77.5608 161.857 77.1292 161.857C77.1292 161.857 77.1292 161.857 76.6977 161.857H76.2661C75.8346 161.857 75.4034 161.425 75.4034 161.425C74.5407 160.994 73.6776 160.562 73.6776 160.562Z" fill="#F5B54C"/>
<path d="M68.5014 70.8278C69.7956 75.1421 73.2468 78.1617 75.8353 77.299C78.4238 76.4363 79.2865 72.122 77.9923 67.8077C76.698 63.4934 73.2468 60.4738 70.6583 61.3365C68.0702 62.1996 67.2071 66.5135 68.5014 70.8278Z" fill="#FFD15C"/>
</svg>
