<svg width="230" height="227" viewBox="0 0 230 227" fill="none" xmlns="http://www.w3.org/2000/svg">
<circle cx="142.5" cy="87.5" r="87.5" fill="#9E9E9E" fill-opacity="0.1"/>
<path d="M68.1524 106.782L73.7541 154.18L5.67403 158.92L0.0723625 111.953C-0.358659 109.799 1.36502 107.644 3.51933 107.644L63.8434 103.335C65.9981 102.904 67.7218 104.628 68.1524 106.782Z" fill="#415A6B"/>
<path d="M9.12146 154.611L4.38184 111.953L63.8443 107.214L69.0149 149.871L9.12146 154.611Z" fill="#55C0EB"/>
<path d="M53.9345 137.806C53.5035 133.928 56.0888 130.481 59.9668 130.05C63.8448 129.619 67.2918 132.636 67.7228 136.514C68.1538 140.392 65.5685 143.839 61.6905 144.27C57.8125 144.701 54.3656 142.115 53.9345 137.806Z" fill="#E8EAE9"/>
<path d="M37.9913 148.579L52.6412 142.115L67.2915 136.945L69.0152 149.871L9.12176 154.611L7.8291 141.253L26.3574 144.701L37.9913 148.579Z" fill="#E8EAE9"/>
<path d="M46.6086 140.823C46.1776 137.806 48.3323 135.221 51.3483 134.79C54.3646 134.359 56.9499 136.945 57.3806 139.961C57.8116 142.977 55.6569 145.563 52.6409 145.993C49.625 145.993 47.0397 143.839 46.6086 140.823Z" fill="#E8EAE9"/>
<path d="M42.7306 144.27C42.2995 142.115 44.0232 139.961 46.1775 139.961C48.3318 139.961 50.4865 141.684 50.4865 143.839C50.9176 145.993 49.1939 148.148 47.0396 148.148C44.8849 148.148 43.1616 146.424 42.7306 144.27Z" fill="#E8EAE9"/>
<path d="M39.7145 148.148C39.2834 145.993 41.0071 144.27 42.7308 144.27C44.8851 144.27 46.6088 145.562 46.6088 147.717C46.6088 149.871 45.3161 151.595 43.5924 151.595C41.8692 152.026 40.1455 150.302 39.7145 148.148Z" fill="#E8EAE9"/>
<path d="M59.1038 144.27C59.1038 144.27 59.1038 144.27 58.6728 144.27C58.6728 144.27 58.6728 144.27 58.2418 144.27C58.2418 144.27 58.2418 144.27 57.8107 144.27C57.8107 144.27 57.8107 144.27 57.3797 144.27H56.9487H56.5177C56.5177 144.27 56.0867 144.27 56.0867 143.839C55.6556 143.839 55.6556 143.408 55.225 143.408C54.794 142.977 54.794 142.977 54.3634 142.546C53.9324 142.115 53.9324 142.115 53.9324 141.684C53.9324 141.254 53.5013 140.823 53.5013 140.823C53.5013 140.392 53.5013 139.961 53.0703 139.961C53.0703 139.53 53.0703 139.099 53.0703 139.099V138.668V138.237V137.806V137.375C53.0703 137.375 53.0703 137.375 53.0703 136.944C53.0703 136.944 53.0703 136.944 53.0703 136.513C53.0703 136.082 53.0703 136.082 53.0703 136.082C53.0703 136.082 53.0703 136.082 53.0703 136.513C53.0703 136.513 53.0703 136.513 53.0703 136.944C53.0703 136.944 53.0703 136.944 53.0703 137.375C53.0703 137.375 53.0703 137.806 53.0703 138.237V138.668V139.099V139.53V139.961C53.0703 140.392 53.0703 140.392 53.5013 140.823C53.5013 141.254 53.9324 141.254 53.9324 141.684C53.9324 142.115 54.3634 142.115 54.3634 142.546C54.3634 142.977 54.7944 142.977 54.7944 143.408L55.2254 143.839C55.2254 143.839 55.2254 143.839 55.6564 144.27C55.6564 144.27 55.6564 144.27 56.0875 144.701C56.0875 144.701 56.0875 144.701 56.5185 145.132L56.9495 145.563C56.9495 145.563 56.9495 145.563 57.3805 145.563C58.2422 143.839 58.2422 143.839 59.1038 144.27C58.6732 144.27 59.1038 144.27 59.1038 144.27Z" fill="#CED6E0"/>
<path d="M51.7792 145.562C51.7792 145.562 51.3482 145.562 51.7792 145.562C51.3482 145.562 51.3482 145.562 51.3482 145.562C51.3482 145.562 51.3482 145.562 50.9172 145.562H50.4862C50.4862 145.562 50.4862 145.562 50.0551 145.562C50.0551 145.562 50.0551 145.562 49.6241 145.562C49.1931 145.562 49.1931 145.131 48.7625 145.131C48.3319 145.131 48.3315 144.7 47.9008 144.7C47.4702 144.7 47.4698 144.269 47.4698 144.269C47.4698 143.838 47.0388 143.838 47.0388 143.408C47.0388 142.977 46.6078 142.977 46.6078 142.546C46.6078 142.115 46.6078 142.115 46.1768 141.684V141.253V140.822V140.391C46.1768 140.391 46.1768 140.391 46.1768 139.96C46.1768 139.529 46.1768 139.529 46.1768 139.529C46.1768 139.529 46.1768 139.529 46.1768 139.96C46.1768 139.96 46.1768 139.96 46.1768 140.391V140.822C46.1768 140.822 46.1768 140.822 46.1768 141.253C46.1768 141.253 46.1768 141.253 46.1768 141.684C46.1768 141.684 46.1768 142.115 46.6078 142.115L47.0388 142.546L47.4698 142.977L47.9008 143.408L48.3319 143.839L48.7629 144.27C48.7629 144.27 48.7629 144.27 49.1939 144.27C49.1939 144.27 49.1939 144.27 49.6249 144.27C49.6249 144.27 50.056 144.27 50.056 144.702C51.3482 145.562 51.3482 145.562 51.7792 145.562C51.3482 145.562 51.7792 145.562 51.7792 145.562Z" fill="#CED6E0"/>
<path d="M21.1867 140.392C20.7556 136.514 17.3087 133.497 13.4307 133.928C9.55271 134.359 6.96738 137.806 7.3984 141.684C7.82943 145.562 11.2764 148.579 15.1544 148.148C19.032 147.717 21.6173 144.27 21.1867 140.392Z" fill="#E8EAE9"/>
<path d="M28.9428 142.115C28.5118 139.099 25.9265 136.514 22.9105 136.945C19.8942 136.945 18.1709 139.961 18.1709 142.977C18.6019 145.993 21.1872 148.148 24.2032 148.148C27.2191 147.717 28.9428 145.131 28.9428 142.115Z" fill="#E8EAE9"/>
<path d="M33.2512 145.131C32.8202 142.977 31.0969 141.253 28.9422 141.253C26.7875 141.253 25.0642 143.408 25.4952 145.562C25.9262 147.717 27.6495 149.44 29.8042 149.44C31.9589 149.44 33.6822 147.286 33.2512 145.131Z" fill="#E8EAE9"/>
<path d="M37.5604 148.579C37.1294 146.424 35.4061 144.701 33.6824 145.132C31.9587 145.563 29.8044 146.855 30.2355 149.01C30.6665 151.164 32.3898 152.888 34.1135 152.457C36.2678 152.457 37.5604 150.733 37.5604 148.579Z" fill="#E8EAE9"/>
<path d="M17.7393 147.286C18.1703 146.855 18.1703 146.855 18.1703 146.855L18.6013 146.424C18.6013 146.424 18.6013 146.424 19.0323 145.993C19.0323 145.993 19.0323 145.993 19.4633 145.562C19.4633 145.562 19.4633 145.131 19.8944 145.131C19.8944 145.131 19.8944 144.7 20.3254 144.7C20.3254 144.269 20.7564 144.269 20.7564 143.838C20.7564 143.407 21.1874 143.407 21.1874 142.977C21.1874 142.546 21.1874 142.546 21.1874 142.115C21.1874 141.684 21.1874 141.684 21.1874 141.253V140.822V140.391V139.96V139.529C21.1874 139.098 21.1874 139.098 21.1874 138.668C21.1874 138.668 21.1874 138.668 21.1874 138.237C21.1874 138.237 21.1874 138.237 21.1874 137.806C21.1874 137.375 21.1874 137.375 21.1874 137.375C21.1874 137.375 21.1874 137.375 21.6185 137.806C21.6185 137.806 21.6185 137.806 21.6185 138.237C21.6185 138.237 21.6185 138.237 21.6185 138.668C21.6185 138.668 21.6185 138.668 21.6185 139.099V139.53V139.961V140.392C21.6185 140.823 21.6185 140.823 21.6185 141.253C21.6185 141.684 21.6185 142.115 21.6185 142.115C21.6185 142.546 21.6185 142.977 21.6185 142.977C21.6185 143.408 21.1874 143.838 21.1874 143.838C21.1874 144.269 20.7564 144.269 20.7564 144.7C20.7564 145.13 20.3254 145.131 20.3254 145.562C20.3254 145.562 20.3254 145.562 19.8944 145.993C19.8944 145.993 19.4633 145.993 19.4633 146.424C19.4633 146.424 19.4633 146.424 19.0323 146.424C19.0323 146.424 19.0323 146.424 18.6013 146.424C18.6013 146.424 18.6013 146.424 18.1703 146.424C18.1703 146.424 18.1703 146.424 17.7393 146.424C17.7393 147.286 17.7393 147.286 17.7393 147.286Z" fill="#CED6E0"/>
<path d="M25.0645 147.717C25.4955 147.717 25.4955 147.286 25.4955 147.286C25.4955 147.286 25.9265 147.286 25.9265 146.855C25.9265 146.855 25.9265 146.855 26.3575 146.855C26.3575 146.855 26.3575 146.855 26.7885 146.855L27.2196 146.424L27.6506 145.993L28.0816 145.562C28.0816 145.13 28.0816 145.13 28.5126 144.7C28.5126 144.269 28.5126 144.269 28.9437 143.838C28.9437 143.407 28.9437 143.407 28.9437 142.977C28.9437 142.977 28.9437 142.977 28.9437 142.546C28.9437 142.546 28.9437 142.546 28.9437 142.115V141.684C28.9437 141.684 28.9437 141.684 28.9437 141.252C28.9437 140.821 28.9437 140.821 28.9437 140.821C28.9437 140.821 28.9437 140.821 28.9437 141.252C28.9437 141.252 28.9437 141.252 28.9437 141.684V142.115V142.546V142.977C28.9437 143.408 28.9437 143.408 28.9437 143.838C28.9437 144.269 28.9437 144.269 28.9437 144.7C28.9437 145.13 28.9437 145.131 28.5126 145.562C28.5126 145.993 28.0816 145.993 28.0816 146.423C28.0816 146.854 27.6506 146.854 27.6506 146.854L27.2196 147.285C27.2196 147.285 27.2196 147.285 26.7885 147.285C26.7885 147.285 26.7885 147.285 26.3575 147.285H25.9261C25.9261 147.285 25.9261 147.285 25.4951 147.285C25.4951 147.717 25.4951 147.717 25.0645 147.717Z" fill="#CED6E0"/>
<path d="M37.991 113.677L31.0967 114.107L34.9747 148.579L42.2996 148.148L37.991 113.677Z" fill="#E8EAE9"/>
<path d="M36.2673 114.107H32.8203L37.1289 148.579L40.1453 148.148L36.2673 114.107Z" fill="#CED6E0"/>
<path d="M23.3402 121.002C23.3402 121.433 23.3402 121.433 23.3402 121.863L23.7712 122.294C24.6328 122.725 24.6328 124.018 24.6328 124.88C24.6328 125.311 24.2018 125.311 24.2018 125.741C24.2018 126.172 23.7708 126.603 23.7708 127.034C23.7708 127.465 23.7708 127.896 24.2018 128.327C23.7708 128.327 23.7708 128.327 23.3402 127.896C22.9095 127.465 22.9091 127.465 22.9091 127.034C22.9091 126.172 22.9091 125.31 22.9091 124.88C22.4781 125.311 22.4781 126.172 22.4781 127.034C22.4781 127.465 22.4781 127.896 22.4781 127.896C22.4781 128.327 22.9091 128.327 22.9091 128.757C23.3402 129.619 23.3402 130.481 22.9091 131.343C22.9091 131.774 22.4781 131.774 22.4781 132.204C22.4781 132.635 22.0471 132.635 22.0471 133.066C21.6161 132.204 21.1855 131.342 21.1855 130.481C21.1855 129.619 21.1855 129.188 21.1855 128.326C21.1855 127.465 20.7544 127.034 20.3238 126.603C19.8928 126.172 19.8928 125.31 19.8928 124.879C19.4618 125.74 19.4618 127.033 20.3238 127.895C19.8928 127.895 19.0311 127.464 18.6001 127.034C18.6001 126.603 18.1691 126.603 18.1691 126.172C18.1691 125.31 17.7381 124.448 18.1691 123.587C18.1691 123.156 18.6001 122.725 19.0307 122.294C20.7544 121.432 21.185 120.57 21.6161 119.278C22.0471 119.709 22.4777 120.139 22.9087 120.57" fill="#FFD15C"/>
<path d="M50.4857 119.278C50.4857 119.709 50.4857 119.709 50.4857 120.14L50.9167 120.571C51.7783 121.002 51.7783 122.294 51.7783 123.156C51.7783 123.587 51.3473 123.587 51.3473 124.018C51.3473 124.448 50.9163 124.879 50.9163 125.31C50.9163 125.741 50.9163 126.172 51.3473 126.603C50.9163 126.603 50.9163 126.603 50.4857 126.172C50.4857 125.741 50.0546 125.741 50.0546 125.31C50.0546 124.449 50.0546 123.587 50.0546 123.156C49.6236 123.587 49.6236 124.449 49.6236 125.31C49.6236 125.741 49.6236 126.172 49.6236 126.172C49.6236 126.603 50.0546 126.603 50.0546 127.034C50.4857 127.895 50.4857 128.757 50.0546 129.619C50.0546 130.05 49.6236 130.05 49.6236 130.481C49.6236 130.911 49.1926 130.912 49.1926 131.342C48.7616 130.481 48.331 129.619 48.331 128.757C48.331 127.895 48.331 127.464 48.331 126.603C48.331 125.741 47.8999 125.31 47.4693 124.879C47.0383 124.448 47.0383 123.586 47.0383 123.155C46.6073 124.017 46.6073 125.31 47.4693 126.172C47.0383 126.172 46.1767 125.741 45.7456 125.31C45.7456 124.879 45.3146 124.879 45.3146 124.448C45.3146 123.587 44.8836 122.725 45.3146 121.863C45.3146 121.432 45.7456 121.001 46.1762 120.57C47.0379 119.709 47.4689 118.847 47.4689 117.554C47.8999 117.985 48.3306 118.416 48.7616 118.847" fill="#FFD15C"/>
<path d="M30.6661 102.043L20.7559 111.953L21.1869 117.124L32.3898 116.262L30.6661 102.043Z" fill="#ADB3BA"/>
<path d="M17.7386 116.262L18.6002 122.294L25.0636 121.863L24.2019 115.831C23.7709 112.815 22.4782 109.799 19.8929 107.644C18.1696 109.799 17.308 112.815 17.7386 116.262Z" fill="#E8EAE9"/>
<path d="M18.1699 120.14L18.6009 122.294L25.0643 121.863V119.709L18.1699 120.14Z" fill="#F3705A"/>
<path d="M35.8359 101.612L47.9009 109.799L48.3319 114.969L37.5596 115.831L35.8359 101.612Z" fill="#ADB3BA"/>
<path d="M51.3485 113.677L52.2102 119.709L45.7469 120.14L44.8852 114.108C44.4542 111.091 45.3163 108.075 47.0395 105.49C49.6253 107.644 51.3485 110.66 51.3485 113.677Z" fill="#E8EAE9"/>
<path d="M52.2107 117.985V119.709L45.7474 120.14L45.3164 118.416L52.2107 117.985Z" fill="#F3705A"/>
<path d="M24.6328 90.8394C24.6328 92.5631 24.6328 94.2864 24.6328 96.0101L27.2181 117.985L42.7301 116.693L40.1448 94.7174C40.1448 92.9937 39.7137 91.2704 39.2831 89.5468L24.6328 90.8394Z" fill="#E8EAE9"/>
<path d="M44.8847 119.709L42.7304 116.693L27.2184 117.985L25.9258 121.002L44.8847 119.709Z" fill="#F3705A"/>
<path d="M24.6332 88.6851C24.6332 89.5468 24.6332 90.4088 24.2021 91.7015L39.2831 90.4088C38.852 89.5472 38.852 88.6851 38.4214 87.3925L24.6332 88.6851Z" fill="#415A6B"/>
<path d="M38.8521 88.2541C37.1284 83.5145 34.1125 78.7745 30.2345 75.3275C27.2181 79.2055 25.0638 83.9451 24.6328 89.1158L38.8521 88.2541Z" fill="#F3705A"/>
<path d="M37.9913 99.0265C38.4223 102.043 36.2676 104.628 33.6823 104.628C31.0969 104.628 28.5116 102.474 28.0806 99.8885C27.6496 97.3032 29.8043 94.2869 32.3896 94.2869C34.9749 93.8558 37.5602 96.0101 37.9913 99.0265Z" fill="#415A6B"/>
<path d="M36.267 99.0266C36.698 101.181 34.9743 102.905 33.2507 102.905C31.0964 102.905 29.3727 101.612 29.3727 99.4576C28.9416 97.3033 30.6653 95.5796 32.389 95.5796C34.5433 95.5796 36.267 96.8722 36.267 99.0266Z" fill="#55C0EB"/>
<path d="M40.5756 148.579C40.5756 149.871 39.714 150.733 38.8519 151.164C37.9903 151.595 36.6976 150.302 36.2666 149.01C36.2666 147.717 37.1282 146.855 37.9903 146.424C39.7136 146.424 40.5756 147.286 40.5756 148.579Z" fill="#E8EAE9"/>
<path d="M78.9248 188.651L67.2908 189.082C67.2908 189.082 65.1365 184.343 63.8439 183.05C62.5512 181.757 63.8439 165.814 65.9982 164.091C69.4451 165.815 72.0305 167.969 73.7542 171.847L78.9248 188.651Z" fill="#344A5E"/>
<path d="M70.7386 168.399L61.2589 164.09L31.0967 165.383C31.0967 165.383 40.1453 167.968 44.4543 169.692C48.3323 171.416 55.2266 173.139 59.1046 175.293C62.5516 177.448 69.0149 180.464 70.7386 180.895V168.399Z" fill="#FFD15C"/>
<path d="M65.9987 181.326C65.9987 181.326 72.031 171.416 64.7061 165.383L79.787 168.399L77.2017 186.065L65.9987 181.326Z" fill="#F3F3F3"/>
<path d="M65.5674 164.521C65.5674 164.521 71.1691 167.107 70.307 178.741C69.4454 190.374 66.86 189.513 66.86 189.513C66.86 189.513 66.86 189.944 71.169 190.374C75.9087 190.805 78.925 191.236 82.372 192.098C85.3883 192.96 106.071 194.252 106.071 194.252L113.827 167.538C113.827 167.538 104.778 169.692 101.331 169.692C97.8843 169.692 85.8194 168.83 81.0797 167.968C76.3397 167.107 67.2911 164.521 65.5674 164.521Z" fill="#415A6B"/>
<path d="M168.55 64.9863C168.55 64.9863 169.411 77.0513 171.135 81.7909C172.859 86.5305 172.859 86.5305 172.859 86.5305L140.111 109.798L138.818 86.9616C138.818 86.9616 131.062 86.9616 127.616 77.0513C124.169 67.141 122.014 63.263 122.876 58.0924C122.876 58.0924 122.876 56.3687 122.445 55.507C122.014 54.6454 121.152 45.5968 123.738 39.1335C123.738 39.1335 124.169 32.6702 126.754 28.7922C129.339 24.9142 155.623 25.7758 161.656 28.7922C167.688 31.8085 169.411 58.954 168.55 64.9863Z" fill="#FFD15C"/>
<path d="M123.307 39.133C123.307 39.133 124.599 32.6697 127.185 33.5313C129.77 34.393 132.786 34.393 135.802 33.1003C138.818 31.8077 154.331 31.3766 154.331 37.8399C154.331 44.3033 158.64 55.5062 158.209 58.9536H159.932C159.932 58.9536 159.932 52.9213 161.656 50.3359C163.38 47.7506 168.119 54.2139 168.981 64.9862C168.981 64.9862 170.705 53.3523 171.566 49.9053C172.428 46.4584 174.583 30.9464 163.379 24.4831C151.745 18.0198 133.217 18.8814 126.323 24.9141C120.29 30.5154 123.307 39.133 123.307 39.133Z" fill="#415A6B"/>
<path d="M164.241 63.6939C166.62 63.6939 168.55 60.0285 168.55 55.5069C168.55 50.9854 166.62 47.3199 164.241 47.3199C161.861 47.3199 159.932 50.9854 159.932 55.5069C159.932 60.0285 161.861 63.6939 164.241 63.6939Z" fill="#FFD15C"/>
<path d="M161.225 68.0026C154.761 78.7749 147.436 86.0998 138.388 86.9615L139.249 101.612C158.639 88.6852 161.225 68.0026 161.225 68.0026Z" fill="#F7B64C"/>
<path d="M143.558 96.0101L155.623 96.8722L149.59 122.294L116.412 160.213L128.477 110.66L143.558 96.0101Z" fill="#CED6E0"/>
<path d="M137.956 102.904L139.68 104.197C139.68 104.197 137.094 120.571 135.371 125.311C134.078 130.05 119.428 146.855 119.428 146.855C119.428 146.855 125.891 114.969 134.078 103.335C135.371 101.612 137.956 102.904 137.956 102.904Z" fill="#F3705A"/>
<path d="M139.248 96.0102C139.679 95.5791 141.834 95.5791 143.557 96.0102C145.281 96.8718 145.712 96.0102 145.712 96.0102L148.728 97.7338C148.728 97.7338 144.419 103.336 140.11 103.766C140.11 103.766 136.232 102.904 134.509 102.904L139.248 96.0102Z" fill="#F05540"/>
<path d="M143.559 96.0102L153.038 108.075L175.445 89.9779L171.136 79.6366C171.136 79.2056 170.274 79.2056 170.274 79.2056C168.55 80.4982 163.811 83.5146 158.64 85.6689C152.176 88.2542 143.559 96.0102 143.559 96.0102Z" fill="#F3F3F3"/>
<path d="M112.534 175.294C112.534 175.294 119.429 142.115 124.599 127.034C129.77 111.953 139.25 96.0101 139.25 96.0101C139.25 96.0101 134.079 100.319 128.477 107.644C122.876 114.969 116.843 131.774 114.258 139.099C112.103 145.993 107.795 168.83 112.534 175.294Z" fill="#415A6B"/>
<path d="M176.737 90.4088L178.03 91.2705C178.03 91.2705 195.265 102.043 201.298 113.246C206.899 124.449 207.761 133.067 206.468 139.099C205.176 145.131 192.249 181.757 190.956 202.439V227H101.332C101.332 227 102.194 195.976 106.934 179.171C111.673 162.367 118.999 138.668 132.356 128.327C145.713 117.985 176.737 90.4088 176.737 90.4088Z" fill="#344A5E"/>
<path d="M174.151 85.6688C174.151 85.6688 154.761 101.181 147.005 107.644C139.249 114.107 124.168 133.066 119.859 139.961C115.55 146.855 107.794 172.277 106.933 178.74C106.933 178.74 113.827 155.904 124.168 143.839C134.51 131.774 170.704 101.612 170.704 101.612L168.119 102.043C171.135 98.5958 174.151 95.5795 177.598 93.8558C178.891 93.4248 178.891 91.7015 178.029 90.8395C176.306 88.6852 174.582 86.0998 174.151 85.6688Z" fill="#415A6B"/>
<path d="M100.038 163.66L34.5434 167.106C34.1123 167.106 33.6817 167.106 33.2507 167.106L5.24316 159.351L73.7542 154.18L100.038 161.936C101.331 161.936 101.331 163.66 100.038 163.66Z" fill="#CED6E0"/>
<path d="M5.6748 159.351L33.6823 167.107C34.1134 167.107 34.544 167.107 34.975 167.107L100.47 163.229V166.676L34.544 170.985C34.113 170.985 33.6823 170.985 33.2513 170.985L6.96706 161.936C6.10542 161.074 5.6748 160.213 5.6748 159.351Z" fill="#E8EAE9"/>
<path d="M120.721 154.611L119.859 152.026C119.859 152.026 117.705 152.026 115.55 150.733C113.396 149.44 109.949 143.408 108.656 141.684C107.363 139.53 104.347 135.221 103.485 133.067C102.624 131.343 101.762 128.327 101.762 128.327L102.193 123.587C102.193 123.587 95.2983 121.433 97.8836 133.929C97.8836 133.929 100.038 137.807 100.038 139.099C100.038 140.392 99.6069 142.116 98.7452 142.116C97.8836 142.547 90.5582 143.839 88.8349 144.701C87.1113 145.563 82.8027 150.303 86.6806 152.026C86.6806 152.026 83.6643 156.766 87.5423 158.92C87.5423 158.92 86.6806 162.798 89.266 163.229C89.266 163.229 87.1117 164.953 88.4043 167.107C89.697 169.262 93.144 167.107 94.006 167.538C94.8676 167.538 103.486 168.4 105.64 167.538C107.794 167.107 114.689 168.4 114.689 168.4L120.721 154.611Z" fill="#FFD15C"/>
<path d="M161.225 145.131C161.225 145.131 159.932 130.05 166.395 118.416C172.859 106.782 180.615 102.905 188.802 104.628C196.989 106.352 203.452 122.725 205.175 129.189C206.899 135.652 201.297 158.489 199.574 164.952C198.281 171.416 193.11 189.082 187.509 197.269C181.907 205.456 178.891 207.179 171.566 204.594C164.671 202.008 137.095 192.529 129.339 188.22C122.014 183.911 108.656 176.586 108.656 176.586C108.656 176.586 113.827 151.595 118.136 149.44C118.136 149.44 133.217 158.058 138.387 160.213C143.558 162.367 145.712 162.367 149.59 164.522C153.899 166.676 162.517 168.831 162.517 168.831C162.517 168.831 160.363 165.814 161.224 163.229C162.086 160.644 162.517 157.627 162.517 155.473C162.517 153.318 161.225 145.131 161.225 145.131Z" fill="#415A6B"/>
<path d="M102.193 128.758C99.177 128.327 102.624 124.018 102.624 124.018L102.193 128.758Z" fill="#E8EAE9"/>
</svg>
