<svg width="207" height="252" viewBox="0 0 207 252" fill="none" xmlns="http://www.w3.org/2000/svg">
<path d="M26.3064 199.713C33.2065 196.694 40.969 200.144 43.9875 207.044C47.0064 213.944 43.5561 221.706 36.6564 224.725C29.7563 227.313 0 225.156 0 225.156C0 225.156 19.4062 202.3 26.3064 199.713Z" fill="#FFD15C"/>
<path d="M35.3635 203.163C38.8134 201.869 42.2637 203.163 43.9884 206.612C45.2822 210.062 43.9884 213.513 40.5385 215.237C37.0887 216.531 22.8574 215.669 22.8574 215.669C22.8574 215.669 31.9133 204.888 35.3635 203.163Z" fill="#F3705A"/>
<path d="M41.4006 185.913L69.4317 172.975C57.7879 158.313 36.2256 154.863 20.7006 165.644C16.388 168.663 12.9381 172.544 10.3506 176.857C21.563 174.7 33.2067 178.15 41.4006 185.913Z" fill="#F3705A"/>
<path d="M57.7878 221.275L85.8189 208.337C89.2688 226.881 78.0564 244.994 59.5126 250.169C54.3376 251.463 49.1626 251.894 44.4189 251.031C53.0442 243.7 58.2192 232.919 57.7878 221.275Z" fill="#F3705A"/>
<path d="M177.675 171.25C143.175 204.025 124.631 204.888 55.6311 224.725L37.5186 185.481C97.4624 146.238 110.4 132.869 157.406 128.125C169.912 140.2 177.244 154.431 177.675 171.25Z" fill="#E8EAE9"/>
<path d="M157.837 127.694C169.912 139.769 177.243 154 177.675 170.819L206.999 131.144L157.837 127.694Z" fill="#F3705A"/>
<path d="M30.6182 186.344L50.4558 229.469C52.1809 228.175 53.9057 226.45 55.6308 224.725L37.5183 185.481C35.3622 185.481 32.7747 185.913 30.6182 186.344Z" fill="#415A6B"/>
<path d="M146.194 60.8501C146.194 60.8501 152.663 58.6939 153.957 57.8312C155.251 56.9684 158.269 55.6751 158.7 55.2437C159.131 54.8123 161.288 53.9499 162.15 54.3813C162.582 54.8127 165.6 58.6939 165.169 59.5563C164.738 60.4187 164.307 60.4187 164.307 60.4187C164.307 60.4187 165.169 61.7124 163.875 62.5748C162.582 63.4372 159.132 63.4372 157.838 63.0062C156.544 62.5748 154.819 62.1438 154.819 62.1438L147.919 66.4564L146.194 60.8501Z" fill="#FFD15C"/>
<path d="M141.019 62.1438L148.35 59.1249C148.35 59.1249 150.506 66.456 151.369 67.3188L144.468 70.7687L141.019 62.1438Z" fill="#E8EAE9"/>
<path d="M99.6187 197.125C99.6187 197.125 99.1873 192.813 103.069 189.363C107.381 185.913 107.381 182.032 107.381 182.032L97.8935 182.894C97.8935 182.894 95.306 185.05 93.1499 185.481C91.4248 185.913 91.4248 185.913 91.4248 185.913C91.4248 185.913 89.2687 199.281 99.6187 197.125Z" fill="#CED6E0"/>
<path d="M78.488 132.438C78.488 132.438 72.0192 146.238 90.9941 152.706C110.4 159.606 121.182 163.919 121.182 163.919C121.182 163.919 109.538 172.543 104.363 176.856C99.188 181.169 94.4444 184.619 94.4444 184.619C94.4444 184.619 99.6194 190.656 103.069 192.381C106.519 194.106 110.832 197.988 110.832 197.988L127.65 178.15C127.65 178.15 141.019 169.956 142.313 166.075C143.607 162.193 141.882 156.587 138.863 153.569C135.413 150.55 116.438 136.319 116.438 136.319C116.438 136.319 110.401 122.519 108.676 114.325C106.95 106.131 104.794 100.956 104.794 100.956L78.488 132.438Z" fill="#344A5E"/>
<path d="M105.656 76.375C105.656 76.375 108.675 75.9437 113.85 74.2189C119.025 72.4938 126.356 69.0439 130.237 66.8878C134.119 64.7317 143.175 61.2814 143.175 61.2814C143.175 61.2814 144.469 69.0439 148.35 71.2C148.35 71.2 135.844 76.8064 132.825 78.5312C129.806 80.2559 110.831 89.3125 107.812 90.1749L105.656 76.375Z" fill="#415A6B"/>
<path d="M105.226 75.5127C105.226 75.5127 108.245 77.6688 107.813 87.1565C107.382 96.6441 106.951 97.0751 107.813 103.113C108.676 109.15 116.007 134.163 116.007 135.888C116.007 137.613 115.576 135.888 115.576 135.888C115.576 135.888 108.676 131.575 108.245 125.107C107.813 118.638 102.207 103.975 103.07 99.663C103.932 95.3504 105.226 75.5127 105.226 75.5127Z" fill="#415A6B"/>
<path d="M44.85 113.031C44.85 113.031 44.4186 114.325 39.675 110.875C34.9314 107.425 34.5 106.563 34.5 106.563L40.5374 106.131C40.5378 106.131 45.2814 108.288 44.85 113.031Z" fill="#415A6B"/>
<path d="M102.638 80.6877C103.5 75.5127 104.794 72.0628 106.519 72.4938C113.85 73.7876 114.282 69.9063 114.282 69.4749C114.282 69.0435 114.282 68.6126 114.713 67.7498C115.145 66.887 114.282 66.456 114.282 66.456C114.713 66.456 115.144 66.0247 114.713 65.5937C114.282 64.7313 114.282 64.2999 114.282 64.2999C114.282 64.2999 115.576 63.8685 116.007 63.8685C116.438 63.4372 116.438 63.4372 116.007 62.5748C115.145 61.281 112.126 57.8312 112.126 57.8312C112.126 57.8312 112.557 57.8312 112.126 56.106C111.694 54.3809 108.244 49.6373 108.244 49.6373L92.2881 59.5559L90.132 69.4745C90.132 69.4745 86.6821 78.5308 85.8193 80.6869L102.638 80.6877Z" fill="#FFD15C"/>
<path d="M104.793 73.7875L101.774 75.944L102.637 80.6876L104.793 76.8064V73.7875Z" fill="#F3F3F3"/>
<path d="M92.7184 66.4564L101.775 75.9441L97.8934 80.2563L89.2686 69.0439L92.7184 66.4564Z" fill="#F3F3F3"/>
<path d="M102.206 61.2815L103.932 60.4191C103.932 60.4191 103.069 58.694 103.5 56.9692C103.932 55.2441 105.225 54.3817 105.656 53.088C106.087 51.7942 109.106 51.3629 109.106 51.3629C109.106 51.3629 109.969 49.2067 108.675 47.4816C107.812 44.8941 103.5 45.3255 98.7561 46.1879C94.0125 47.0502 88.8375 49.6377 87.9748 51.7942C86.681 53.9504 88.8371 64.3004 89.6999 66.8879C90.5623 69.4754 96.6 65.1627 97.031 63.0066C97.4624 60.8505 96.5996 60.4191 98.3248 59.1254C100.05 57.4002 102.206 61.2815 102.206 61.2815Z" fill="#415A6B"/>
<path d="M101.534 59.4878C100.638 57.8063 99.0593 56.8972 98.0084 57.4573C96.9575 58.0173 96.8321 59.8344 97.7281 61.5158C98.6242 63.1972 100.202 64.1063 101.253 63.5463C102.304 62.9863 102.43 61.1692 101.534 59.4878Z" fill="#FFD15C"/>
<path d="M104.793 73.7875C104.793 73.7875 102.206 77.2374 102.637 82.4124C103.069 87.5874 103.5 99.2311 103.5 99.2311C103.5 99.2311 104.793 94.9185 106.087 92.7624C107.381 90.1749 108.243 87.156 108.243 84.1375C108.243 81.1186 106.518 79.3939 106.518 79.3939L107.381 78.9625C107.381 78.9625 106.087 73.7875 104.793 73.7875Z" fill="#344A5E"/>
<path d="M56.9251 129.85V159.175C56.9251 160.469 56.0628 161.331 54.769 161.331H13.369C12.0753 161.331 11.2129 160.469 11.2129 159.175V129.85C11.2129 128.556 12.0753 127.694 13.369 127.694H55.2004C56.0628 127.694 56.9251 128.556 56.9251 129.85Z" fill="#4ABAA5"/>
<path d="M28.8936 128.988V125.107C28.8936 124.675 29.325 124.675 29.325 124.675H38.8122C39.2436 124.675 39.2436 125.107 39.2436 125.107V128.988H42.6935V125.107C42.6935 122.95 40.9684 121.225 38.8122 121.225H29.3246C27.1685 121.225 25.4434 122.95 25.4434 125.107V128.988H28.8936Z" fill="#4ABAA5"/>
<path d="M42.6937 111.738C42.6937 111.738 41.8313 115.187 41.8313 115.619C41.8313 116.05 43.5564 118.206 43.9874 119.5C44.4188 120.794 43.1251 123.813 42.6937 124.244C42.6937 124.244 42.2623 122.95 41.8313 122.519C41.3999 122.087 40.9689 122.519 40.1062 123.381C39.2438 123.812 38.381 125.106 37.9501 125.968C37.9501 126.4 37.5187 126.4 37.0877 126.4C36.6567 126.4 35.7939 125.968 35.7939 125.537C35.7939 125.537 34.0688 125.969 33.6378 125.537C33.6378 125.537 31.4817 125.537 31.0503 125.106C31.0503 125.106 29.3252 125.537 29.3252 123.812C29.7566 122.519 31.0503 119.5 31.9127 118.206C32.7751 116.05 34.0688 113.031 35.3626 111.306C38.3814 106.131 40.9689 106.131 40.9689 106.131L42.6937 111.738Z" fill="#FFD15C"/>
<path d="M35.3623 110.013C35.3623 110.013 42.2624 111.306 42.6934 114.325L47.0061 107.856L39.6749 102.25L35.3623 110.013Z" fill="#E8EAE9"/>
<path d="M69.4312 73.7875C69.4312 73.7875 68.5689 75.9436 60.375 80.2563C52.1811 84.5689 47.4375 92.3314 43.1249 96.6436C38.8122 100.956 34.5 106.562 34.5 106.562C34.5 106.562 43.1249 109.15 44.85 113.031C44.85 113.031 49.1626 105.7 51.7501 103.112C54.3376 100.525 56.9251 97.506 57.3565 97.075C57.7879 96.6436 65.5504 93.6251 67.7065 92.7624C69.8626 91.8996 72.4501 90.6063 72.4501 90.6063C72.4501 90.6063 75.9 75.5126 69.4312 73.7875Z" fill="#344A5E"/>
<path d="M89.269 66.8878C89.269 66.8878 87.5438 68.613 84.5253 68.613C81.5065 69.0444 79.7817 67.7506 76.3315 67.3192C72.8816 66.8878 69.8627 71.6319 69.4313 73.3566C68.9999 75.0817 71.5874 112.6 71.5874 116.913C71.5874 121.225 72.0188 138.044 72.0188 138.044C72.0188 138.044 90.9937 138.906 97.0315 135.888C103.069 132.869 104.794 129.851 105.656 126.832C106.088 123.813 103.931 99.2316 103.931 99.2316C103.931 99.2316 104.794 94.919 101.344 90.1753C97.8938 85.4317 89.269 66.8878 89.269 66.8878Z" fill="#415A6B"/>
<path d="M103.499 99.6626C103.499 99.6626 103.499 94.919 102.206 93.1939C100.912 91.0377 98.7558 90.175 97.893 88.4502C97.0307 86.7251 94.4432 81.1191 92.718 78.9626C90.9929 76.8065 88.8368 72.0625 88.8368 72.0625L90.1305 70.7687L86.6807 69.9064L89.2682 66.0251C89.2682 66.4565 89.6996 66.8875 89.6996 66.8875C90.1309 67.7498 90.9933 67.7498 91.8557 67.3189C93.1494 69.9064 94.8746 72.9252 96.5993 75.0814C98.7554 78.1002 99.6182 82.4125 100.049 84.569C100.049 86.7251 103.068 91.0378 103.499 92.7629C103.931 94.4876 103.499 99.6626 103.499 99.6626Z" fill="#344A5E"/>
<path d="M22.425 127.694H17.25V161.332H22.425V127.694Z" fill="#66C6B9"/>
<path d="M50.8869 127.694H45.7119V161.332H50.8869V127.694Z" fill="#66C6B9"/>
<path d="M93.5812 185.481C93.5812 185.481 93.1498 188.5 94.0126 190.656C95.3063 193.244 98.7562 192.813 100.05 193.675C101.344 194.538 99.1876 202.732 100.912 207.907C102.637 213.082 104.362 214.807 103.068 215.669C101.775 216.531 99.6185 214.807 97.462 212.219C95.3059 209.632 91.4247 204.025 90.9933 201.438C90.5619 198.419 89.6995 197.125 89.6995 197.125L87.5434 197.988L82.7998 190.225L85.8187 188.5C85.8187 188.069 89.2686 182.894 93.5812 185.481Z" fill="#415A6B"/>
<circle cx="87.5" cy="87.5" r="87.5" fill="#9E9E9E" fill-opacity="0.1"/>
</svg>
