<svg width="158" height="48" viewBox="0 0 158 48" fill="none" xmlns="http://www.w3.org/2000/svg">
<path d="M157.124 41.9867C157.124 44.4642 155.115 46.471 152.629 46.471H5.53865C3.05449 46.471 1.03809 44.4642 1.03809 41.9867V6.22664C1.03809 3.75037 3.05449 1.73657 5.53865 1.73657H152.628C155.115 1.73657 157.123 3.75037 157.123 6.22664L157.124 41.9867Z" fill="black"/>
<path d="M152.155 1.79068C154.861 1.79068 157.064 3.98001 157.064 6.67054V41.5371C157.064 44.2276 154.861 46.4169 152.155 46.4169H6.00704C3.30039 46.4169 1.09794 44.2276 1.09794 41.5371V6.67054C1.09794 3.98001 3.30039 1.79068 6.00704 1.79068H152.155ZM152.155 0.859455H6.00704C2.79325 0.859455 0.161133 3.4759 0.161133 6.67054V41.5371C0.161133 44.7317 2.79325 47.3481 6.00704 47.3481H152.155C155.369 47.3481 158.001 44.7317 158.001 41.5371V6.67054C158.001 3.4759 155.369 0.859455 152.155 0.859455Z" fill="#A6A6A6"/>
<path d="M35.3862 23.8528C35.3523 20.1069 38.4717 18.2846 38.6144 18.1997C36.8477 15.6394 34.1095 15.2895 33.1473 15.2617C30.8475 15.0211 28.6167 16.6296 27.4452 16.6296C26.2503 16.6296 24.4462 15.2849 22.5019 15.3244C19.9998 15.3628 17.6591 16.8028 16.3753 19.0389C13.726 23.5982 15.7019 30.2984 18.2402 33.9838C19.5099 35.7887 20.9936 37.804 22.9356 37.7331C24.8355 37.6553 25.5452 36.5291 27.838 36.5291C30.1097 36.5291 30.7762 37.7331 32.7568 37.6878C34.7958 37.6553 36.0796 35.8748 37.3049 34.0536C38.7722 31.9848 39.3615 29.9474 39.3848 29.8428C39.3369 29.8266 35.4248 28.3424 35.3862 23.8528Z" fill="white"/>
<path d="M31.6449 12.8373C32.6667 11.567 33.3659 9.83875 33.1718 8.08496C31.6928 8.15005 29.8432 9.1019 28.778 10.3443C27.8357 11.4391 26.9939 13.2336 27.2113 14.9211C28.8727 15.0443 30.5786 14.0878 31.6449 12.8373Z" fill="white"/>
<path d="M62.8819 37.4741H60.2266L58.7722 32.931H53.7166L52.3312 37.4741H49.7461L54.7549 22.0073H57.8485L62.8819 37.4741ZM58.3337 31.0249L57.0184 26.9862C56.8793 26.5737 56.6185 25.6021 56.2339 24.0726H56.1871C56.034 24.7304 55.7873 25.702 55.4482 26.9862L54.1563 31.0249H58.3337V31.0249Z" fill="white"/>
<path d="M75.7624 31.7604C75.7624 33.6571 75.2468 35.1564 74.2156 36.257C73.2919 37.2368 72.145 37.7261 70.7759 37.7261C69.298 37.7261 68.2364 37.1984 67.5898 36.1431H67.5431V42.0181H65.0504V29.9927C65.0504 28.8002 65.0188 27.5764 64.958 26.3212H67.1502L67.2894 28.089H67.3361C68.1674 26.7571 69.429 26.0923 71.1219 26.0923C72.4455 26.0923 73.5503 26.6118 74.4342 27.652C75.3205 28.6933 75.7624 30.0624 75.7624 31.7604ZM73.223 31.8511C73.223 30.7656 72.9774 29.8706 72.484 29.1663C71.945 28.4318 71.2213 28.0646 70.314 28.0646C69.699 28.0646 69.1402 28.2691 68.6409 28.6724C68.1405 29.0792 67.8132 29.6103 67.66 30.2681C67.5828 30.575 67.5442 30.826 67.5442 31.0236V32.8831C67.5442 33.6943 67.7944 34.3789 68.2949 34.9379C68.7953 35.4969 69.4453 35.7759 70.2451 35.7759C71.1839 35.7759 71.9146 35.4156 72.4373 34.6973C72.9611 33.9779 73.223 33.0295 73.223 31.8511Z" fill="white"/>
<path d="M88.6675 31.7604C88.6675 33.6571 88.1519 35.1564 87.1195 36.257C86.197 37.2368 85.0501 37.7261 83.6809 37.7261C82.2031 37.7261 81.1415 37.1984 80.4961 36.1431H80.4493V42.0181H77.9566V29.9927C77.9566 28.8002 77.9251 27.5764 77.8643 26.3212H80.0565L80.1956 28.089H80.2424C81.0725 26.7571 82.334 26.0923 84.0282 26.0923C85.3505 26.0923 86.4554 26.6118 87.3417 27.652C88.2244 28.6933 88.6675 30.0624 88.6675 31.7604ZM86.128 31.8511C86.128 30.7656 85.8813 29.8706 85.3879 29.1663C84.849 28.4318 84.1276 28.0646 83.2191 28.0646C82.603 28.0646 82.0453 28.2691 81.5448 28.6724C81.0444 29.0792 80.7182 29.6103 80.5651 30.2681C80.4891 30.575 80.4493 30.826 80.4493 31.0236V32.8831C80.4493 33.6943 80.6995 34.3789 81.1976 34.9379C81.698 35.4958 82.3481 35.7759 83.1501 35.7759C84.089 35.7759 84.8197 35.4156 85.3424 34.6973C85.8662 33.9779 86.128 33.0295 86.128 31.8511Z" fill="white"/>
<path d="M103.095 33.1366C103.095 34.4522 102.636 35.5226 101.713 36.3489C100.699 37.252 99.2883 37.7029 97.4749 37.7029C95.8006 37.7029 94.4584 37.3822 93.4424 36.7395L94.02 34.6742C95.1143 35.332 96.3151 35.6621 97.6234 35.6621C98.5622 35.6621 99.293 35.4506 99.8179 35.0298C100.341 34.6091 100.601 34.0443 100.601 33.34C100.601 32.7124 100.386 32.1836 99.9547 31.7547C99.5256 31.3258 98.8089 30.9272 97.8081 30.5588C95.0839 29.5488 93.723 28.0693 93.723 26.1237C93.723 24.8523 94.2 23.8098 95.1552 22.9985C96.107 22.1861 97.3767 21.7805 98.9644 21.7805C100.38 21.7805 101.557 22.0257 102.495 22.515L101.872 24.535C100.995 24.0608 100.004 23.8237 98.8943 23.8237C98.0174 23.8237 97.3323 24.0387 96.8412 24.4664C96.4261 24.8488 96.218 25.3148 96.218 25.8669C96.218 26.4782 96.4554 26.9838 96.9324 27.3813C97.3474 27.7485 98.1016 28.146 99.1959 28.5749C100.535 29.1106 101.518 29.7371 102.15 30.4553C102.781 31.1713 103.095 32.0673 103.095 33.1366Z" fill="white"/>
<path d="M111.337 28.1809H108.589V33.5956C108.589 34.9729 109.073 35.6609 110.043 35.6609C110.489 35.6609 110.858 35.6226 111.151 35.5458L111.22 37.4275C110.729 37.6099 110.082 37.7018 109.281 37.7018C108.297 37.7018 107.527 37.4031 106.972 36.8068C106.419 36.2095 106.141 35.2076 106.141 33.8002V28.1786H104.504V26.319H106.141V24.277L108.589 23.5425V26.319H111.337V28.1809Z" fill="white"/>
<path d="M123.733 31.8058C123.733 33.5201 123.24 34.9275 122.255 36.0282C121.223 37.1613 119.853 37.7262 118.145 37.7262C116.498 37.7262 115.188 37.1834 114.21 36.0979C113.233 35.0124 112.744 33.6421 112.744 31.9906C112.744 30.2624 113.247 28.8468 114.256 27.7462C115.263 26.6444 116.621 26.0935 118.329 26.0935C119.976 26.0935 121.3 26.6363 122.3 27.7229C123.256 28.7771 123.733 30.138 123.733 31.8058ZM121.147 31.886C121.147 30.8574 120.926 29.9753 120.478 29.2396C119.956 28.3494 119.209 27.9054 118.24 27.9054C117.238 27.9054 116.477 28.3505 115.955 29.2396C115.507 29.9765 115.286 30.8726 115.286 31.9325C115.286 32.9611 115.507 33.8432 115.955 34.5777C116.494 35.468 117.247 35.9119 118.218 35.9119C119.17 35.9119 119.917 35.4587 120.456 34.5545C120.916 33.8048 121.147 32.9134 121.147 31.886Z" fill="white"/>
<path d="M131.836 28.5004C131.589 28.4551 131.326 28.4318 131.05 28.4318C130.173 28.4318 129.495 28.7607 129.018 29.4197C128.603 30.0008 128.395 30.7353 128.395 31.6221V37.4739H125.903L125.927 29.8335C125.927 28.5481 125.895 27.3777 125.833 26.3224H128.004L128.095 28.4562H128.164C128.427 27.7229 128.843 27.1325 129.411 26.6897C129.966 26.291 130.566 26.0923 131.212 26.0923C131.443 26.0923 131.651 26.1086 131.836 26.1376V28.5004Z" fill="white"/>
<path d="M142.983 31.3699C142.983 31.8138 142.954 32.1881 142.892 32.4937H135.414C135.443 33.5955 135.805 34.4381 136.499 35.0192C137.129 35.5387 137.944 35.7991 138.945 35.7991C140.052 35.7991 141.062 35.6236 141.971 35.2714L142.361 36.9915C141.3 37.4518 140.046 37.6807 138.6 37.6807C136.86 37.6807 135.495 37.1717 134.501 36.1547C133.51 35.1378 133.013 33.7722 133.013 32.0591C133.013 30.3773 133.475 28.9768 134.399 27.8599C135.367 26.6675 136.676 26.0713 138.322 26.0713C139.939 26.0713 141.163 26.6675 141.994 27.8599C142.653 28.8072 142.983 29.9787 142.983 31.3699ZM140.606 30.7271C140.623 29.9926 140.46 29.3581 140.122 28.8223C139.691 28.1331 139.028 27.7891 138.136 27.7891C137.321 27.7891 136.658 28.1249 136.152 28.799C135.737 29.3348 135.49 29.9775 135.414 30.726H140.606V30.7271Z" fill="white"/>
<path d="M57.5088 12.493C57.5088 13.8609 57.096 14.8906 56.2718 15.5821C55.5083 16.2202 54.4233 16.5398 53.0179 16.5398C52.3211 16.5398 51.7248 16.5096 51.2256 16.4491V8.97496C51.8768 8.87036 52.5783 8.81689 53.336 8.81689C54.6747 8.81689 55.6837 9.10629 56.3641 9.68507C57.1264 10.3394 57.5088 11.275 57.5088 12.493ZM56.2168 12.5267C56.2168 11.6399 55.9806 10.96 55.5083 10.4858C55.0359 10.0128 54.3461 9.77572 53.4377 9.77572C53.0518 9.77572 52.7233 9.80129 52.4509 9.85475V15.5368C52.6017 15.5601 52.8776 15.5705 53.2787 15.5705C54.2163 15.5705 54.9401 15.3113 55.4498 14.793C55.9596 14.2746 56.2168 13.5192 56.2168 12.5267Z" fill="white"/>
<path d="M64.3591 13.6867C64.3591 14.5293 64.117 15.2197 63.633 15.7613C63.1256 16.318 62.4533 16.5958 61.6138 16.5958C60.8047 16.5958 60.1605 16.3296 59.68 15.795C59.2006 15.2616 58.9609 14.5886 58.9609 13.7774C58.9609 12.929 59.2076 12.2328 59.7034 11.6923C60.1991 11.1519 60.8655 10.8811 61.705 10.8811C62.5141 10.8811 63.1641 11.1473 63.6564 11.6807C64.124 12.1991 64.3591 12.8685 64.3591 13.6867ZM63.0882 13.7262C63.0882 13.2207 62.9783 12.7872 62.7596 12.4257C62.5024 11.9887 62.1364 11.7702 61.6606 11.7702C61.1684 11.7702 60.7942 11.9887 60.537 12.4257C60.3172 12.7872 60.2085 13.2276 60.2085 13.7483C60.2085 14.2539 60.3184 14.6874 60.537 15.0489C60.8024 15.4859 61.1719 15.7044 61.6489 15.7044C62.1166 15.7044 62.4837 15.4824 62.7479 15.0372C62.9747 14.6688 63.0882 14.2318 63.0882 13.7262Z" fill="white"/>
<path d="M73.5441 10.9929L71.8195 16.4716H70.6971L69.9828 14.0925C69.8015 13.4986 69.6542 12.9082 69.5396 12.3225H69.5174C69.411 12.9245 69.2637 13.5138 69.0743 14.0925L68.3155 16.4716H67.1802L65.5586 10.9929H66.8178L67.441 13.5974C67.5918 14.2134 67.7157 14.8003 67.8151 15.3559H67.8373C67.9285 14.898 68.0793 14.3145 68.2921 13.6091L69.0743 10.9941H70.0728L70.8222 13.5533C71.0035 14.1774 71.1508 14.7782 71.2642 15.357H71.2981C71.3811 14.7934 71.5062 14.1925 71.6722 13.5533L72.341 10.9941H73.5441V10.9929Z" fill="white"/>
<path d="M79.8965 16.4714H78.6712V13.3334C78.6712 12.3665 78.3017 11.883 77.5605 11.883C77.1968 11.883 76.9034 12.0155 76.6754 12.2816C76.4497 12.5478 76.3352 12.8616 76.3352 13.2207V16.4703H75.1099V12.5582C75.1099 12.0771 75.0947 11.5553 75.0654 10.9904H76.1422L76.1995 11.847H76.2334C76.3761 11.5808 76.5889 11.3612 76.8683 11.1857C77.2004 10.9811 77.5722 10.8777 77.979 10.8777C78.4935 10.8777 78.9214 11.0427 79.2616 11.374C79.6849 11.7796 79.8965 12.3851 79.8965 13.1893V16.4714V16.4714Z" fill="white"/>
<path d="M83.2749 16.4713H82.0508V8.47876H83.2749V16.4713Z" fill="white"/>
<path d="M90.4889 13.6867C90.4889 14.5293 90.2469 15.2197 89.7629 15.7613C89.2554 16.318 88.582 16.5958 87.7437 16.5958C86.9335 16.5958 86.2892 16.3296 85.8099 15.795C85.3305 15.2616 85.0908 14.5886 85.0908 13.7774C85.0908 12.929 85.3375 12.2328 85.8333 11.6923C86.329 11.1519 86.9954 10.8811 87.8337 10.8811C88.644 10.8811 89.2929 11.1473 89.7863 11.6807C90.2539 12.1991 90.4889 12.8685 90.4889 13.6867ZM89.2169 13.7262C89.2169 13.2207 89.107 12.7872 88.8883 12.4257C88.6323 11.9887 88.2651 11.7702 87.7905 11.7702C87.2971 11.7702 86.9229 11.9887 86.6669 12.4257C86.4471 12.7872 86.3383 13.2276 86.3383 13.7483C86.3383 14.2539 86.4482 14.6874 86.6669 15.0489C86.9323 15.4859 87.3017 15.7044 87.7788 15.7044C88.2464 15.7044 88.6124 15.4824 88.8766 15.0372C89.1046 14.6688 89.2169 14.2318 89.2169 13.7262Z" fill="white"/>
<path d="M96.4193 16.4714H95.3191L95.2279 15.8403H95.194C94.8175 16.3436 94.2808 16.5958 93.584 16.5958C93.0637 16.5958 92.6428 16.4296 92.326 16.0995C92.0383 15.7997 91.8945 15.4266 91.8945 14.9838C91.8945 14.3143 92.1751 13.8041 92.7398 13.4508C93.3034 13.0975 94.0961 12.9243 95.1168 12.9324V12.8302C95.1168 12.1084 94.7356 11.7481 93.9722 11.7481C93.4285 11.7481 92.9491 11.8841 92.5352 12.1537L92.2862 11.3541C92.7983 11.0392 93.4308 10.8811 94.1768 10.8811C95.6172 10.8811 96.3398 11.6366 96.3398 13.1475V15.1651C96.3398 15.7125 96.3667 16.1483 96.4193 16.4714ZM95.1472 14.5886V13.7437C93.7956 13.7204 93.1198 14.0889 93.1198 14.8478C93.1198 15.1337 93.197 15.3476 93.3548 15.4905C93.5127 15.6335 93.7138 15.7044 93.9535 15.7044C94.2224 15.7044 94.4737 15.6195 94.7029 15.451C94.9332 15.2813 95.0747 15.0663 95.1273 14.8025C95.1402 14.7432 95.1472 14.6711 95.1472 14.5886Z" fill="white"/>
<path d="M103.381 16.4713H102.294L102.237 15.5915H102.203C101.856 16.261 101.264 16.5957 100.433 16.5957C99.7686 16.5957 99.2156 16.3365 98.7772 15.8182C98.3387 15.2998 98.1201 14.6269 98.1201 13.8006C98.1201 12.9138 98.3575 12.1955 98.8345 11.647C99.2963 11.1356 99.8622 10.8799 100.536 10.8799C101.276 10.8799 101.794 11.1275 102.088 11.6237H102.112V8.47876H103.338V14.9953C103.338 15.5288 103.352 16.0204 103.381 16.4713ZM102.112 14.1608V13.2473C102.112 13.0893 102.1 12.9614 102.078 12.8638C102.009 12.5709 101.86 12.3245 101.635 12.1258C101.407 11.9271 101.132 11.8271 100.815 11.8271C100.358 11.8271 100 12.0073 99.7371 12.3687C99.4763 12.7302 99.3442 13.1916 99.3442 13.7552C99.3442 14.2968 99.4693 14.7361 99.7207 15.0743C99.9861 15.4346 100.344 15.6148 100.792 15.6148C101.194 15.6148 101.515 15.4648 101.76 15.1638C101.996 14.8861 102.112 14.5513 102.112 14.1608Z" fill="white"/>
<path d="M113.861 13.6867C113.861 14.5293 113.619 15.2197 113.135 15.7613C112.628 16.318 111.956 16.5958 111.116 16.5958C110.308 16.5958 109.664 16.3296 109.182 15.795C108.703 15.2616 108.463 14.5886 108.463 13.7774C108.463 12.929 108.71 12.2328 109.205 11.6923C109.701 11.1519 110.367 10.8811 111.208 10.8811C112.016 10.8811 112.667 11.1473 113.158 11.6807C113.626 12.1991 113.861 12.8685 113.861 13.6867ZM112.591 13.7262C112.591 13.2207 112.481 12.7872 112.263 12.4257C112.004 11.9887 111.64 11.7702 111.163 11.7702C110.671 11.7702 110.297 11.9887 110.039 12.4257C109.819 12.7872 109.71 13.2276 109.71 13.7483C109.71 14.2539 109.82 14.6874 110.039 15.0489C110.304 15.4859 110.674 15.7044 111.151 15.7044C111.619 15.7044 111.987 15.4824 112.251 15.0372C112.477 14.6688 112.591 14.2318 112.591 13.7262Z" fill="white"/>
<path d="M120.449 16.4714H119.225V13.3334C119.225 12.3665 118.855 11.883 118.113 11.883C117.749 11.883 117.456 12.0155 117.229 12.2816C117.002 12.5478 116.889 12.8616 116.889 13.2207V16.4703H115.662V12.5582C115.662 12.0771 115.648 11.5553 115.619 10.9904H116.695L116.752 11.847H116.786C116.93 11.5808 117.143 11.3612 117.421 11.1857C117.754 10.9811 118.125 10.8777 118.533 10.8777C119.046 10.8777 119.474 11.0427 119.814 11.374C120.239 11.7796 120.449 12.3851 120.449 13.1893V16.4714V16.4714Z" fill="white"/>
<path d="M128.696 11.9049H127.346V14.5664C127.346 15.2428 127.586 15.581 128.061 15.581C128.281 15.581 128.463 15.5624 128.607 15.524L128.638 16.448C128.396 16.5386 128.078 16.584 127.687 16.584C127.203 16.584 126.826 16.4375 126.554 16.1447C126.28 15.8518 126.144 15.359 126.144 14.6675V11.9049H125.339V10.9926H126.144V9.98846L127.345 9.62817V10.9914H128.694V11.9049H128.696Z" fill="white"/>
<path d="M135.182 16.4713H133.956V13.3566C133.956 12.3745 133.586 11.8829 132.846 11.8829C132.278 11.8829 131.89 12.1676 131.677 12.7371C131.641 12.8568 131.62 13.0033 131.62 13.1753V16.4701H130.396V8.47876H131.62V11.7806H131.643C132.029 11.1797 132.582 10.8799 133.299 10.8799C133.806 10.8799 134.226 11.0449 134.559 11.3762C134.974 11.7887 135.182 12.4024 135.182 13.2136V16.4713V16.4713Z" fill="white"/>
<path d="M141.873 13.4728C141.873 13.6913 141.856 13.875 141.827 14.0249H138.152C138.169 14.5665 138.344 14.9791 138.684 15.265C138.995 15.5207 139.396 15.6485 139.887 15.6485C140.431 15.6485 140.927 15.5625 141.373 15.3894L141.565 16.2355C141.043 16.4609 140.428 16.5737 139.716 16.5737C138.862 16.5737 138.19 16.3238 137.703 15.824C137.215 15.3243 136.973 14.6537 136.973 13.8122C136.973 12.9859 137.198 12.2978 137.653 11.7493C138.128 11.1635 138.77 10.8706 139.58 10.8706C140.373 10.8706 140.975 11.1635 141.382 11.7493C141.71 12.2141 141.873 12.7895 141.873 13.4728ZM140.704 13.1579C140.713 12.7964 140.632 12.4849 140.466 12.2223C140.253 11.8841 139.93 11.7144 139.491 11.7144C139.091 11.7144 138.765 11.8794 138.516 12.2107C138.313 12.4745 138.192 12.7895 138.152 13.1579H140.704Z" fill="white"/>
</svg>
