<svg width="158" height="48" viewBox="0 0 158 48" fill="none" xmlns="http://www.w3.org/2000/svg">
<path d="M151.785 47.3481H5.83787C2.6285 47.3481 0 44.7317 0 41.5371V6.67055C0 3.47591 2.6285 0.859465 5.83787 0.859465H151.785C154.994 0.859465 157.623 3.47591 157.623 6.67055V41.5371C157.623 44.7317 154.994 47.3481 151.785 47.3481Z" fill="black"/>
<path d="M151.785 1.79069C154.488 1.79069 156.687 3.98002 156.687 6.67055V41.5371C156.687 44.2276 154.488 46.4169 151.785 46.4169H5.83787C3.13494 46.4169 0.935519 44.2276 0.935519 41.5371V6.67055C0.935519 3.98002 3.13494 1.79069 5.83787 1.79069H151.785ZM151.785 0.859465H5.83787C2.6285 0.859465 0 3.47591 0 6.67055V41.5371C0 44.7317 2.6285 47.3481 5.83787 47.3481H151.785C154.994 47.3481 157.623 44.7317 157.623 41.5371V6.67055C157.623 3.47591 154.994 0.859465 151.785 0.859465Z" fill="#A6A6A6"/>
<path d="M55.3636 12.765C55.3636 13.7354 55.0717 14.5126 54.4966 15.0923C53.8355 15.7795 52.9744 16.1252 51.9192 16.1252C50.9107 16.1252 50.0496 15.7736 49.3433 15.0807C48.6354 14.3775 48.2822 13.5146 48.2822 12.4817C48.2822 11.4488 48.6354 10.5858 49.3433 9.88849C50.0496 9.18971 50.9107 8.83813 51.9192 8.83813C52.4213 8.83813 52.9 8.94128 53.3568 9.13305C53.8121 9.32626 54.1829 9.58776 54.4514 9.91028L53.8413 10.5233C53.3729 9.97275 52.7351 9.70108 51.9192 9.70108C51.1837 9.70108 50.5459 9.95677 50.0044 10.4725C49.4688 10.9897 49.2002 11.6594 49.2002 12.4817C49.2002 13.3039 49.4688 13.9795 50.0044 14.4967C50.5459 15.0066 51.1837 15.2681 51.9192 15.2681C52.7 15.2681 53.3568 15.0066 53.8749 14.4909C54.2164 14.1495 54.4105 13.6788 54.4616 13.0773H51.9192V12.2376H55.311C55.3519 12.4192 55.3636 12.595 55.3636 12.765V12.765Z" fill="white" stroke="white" stroke-width="0.140302" stroke-miterlimit="10"/>
<path d="M60.7452 9.85349H57.5592V12.0617H60.4314V12.9014H57.5592V15.1096H60.7452V15.9653H56.6572V8.9978H60.7452V9.85349Z" fill="white" stroke="white" stroke-width="0.140302" stroke-miterlimit="10"/>
<path d="M64.5427 15.9653H63.6408V9.85349H61.6865V8.9978H66.4984V9.85349H64.5427V15.9653V15.9653Z" fill="white" stroke="white" stroke-width="0.140302" stroke-miterlimit="10"/>
<path d="M69.9795 15.9653V8.9978H70.88V15.9653H69.9795Z" fill="white" stroke="white" stroke-width="0.140302" stroke-miterlimit="10"/>
<path d="M74.8718 15.9653H73.9772V9.85349H72.0156V8.9978H76.8333V9.85349H74.8718V15.9653Z" fill="white" stroke="white" stroke-width="0.140302" stroke-miterlimit="10"/>
<path d="M85.9436 15.0691C85.2533 15.7737 84.398 16.1252 83.3778 16.1252C82.3518 16.1252 81.4966 15.7737 80.8063 15.0691C80.1174 14.3659 79.7744 13.503 79.7744 12.4817C79.7744 11.4604 80.1174 10.5974 80.8063 9.8943C81.4966 9.1897 82.3518 8.83813 83.3778 8.83813C84.3922 8.83813 85.2474 9.1897 85.9378 9.90011C86.6325 10.6091 86.9754 11.4662 86.9754 12.4817C86.9754 13.503 86.6325 14.3659 85.9436 15.0691ZM81.4732 14.485C81.9928 15.0066 82.6248 15.2681 83.3778 15.2681C84.1251 15.2681 84.7629 15.0066 85.2766 14.485C85.7947 13.9635 86.0574 13.2938 86.0574 12.4817C86.0574 11.6696 85.7947 10.9999 85.2766 10.4783C84.7629 9.95677 84.1251 9.69527 83.3778 9.69527C82.6248 9.69527 81.9928 9.95677 81.4732 10.4783C80.9551 10.9999 80.6924 11.6696 80.6924 12.4817C80.6924 13.2938 80.9551 13.9635 81.4732 14.485V14.485Z" fill="white" stroke="white" stroke-width="0.140302" stroke-miterlimit="10"/>
<path d="M88.2412 15.9653V8.9978H89.3358L92.7393 14.4167H92.7787L92.7393 13.0772V8.9978H93.6398V15.9653H92.6999L89.1359 10.2792H89.0965L89.1359 11.6244V15.9653H88.2412V15.9653Z" fill="white" stroke="white" stroke-width="0.140302" stroke-miterlimit="10"/>
<path d="M79.5524 26.1405C76.8101 26.1405 74.5698 28.218 74.5698 31.0843C74.5698 33.9274 76.8101 36.0266 79.5524 36.0266C82.3006 36.0266 84.5409 33.9274 84.5409 31.0843C84.5409 28.218 82.3006 26.1405 79.5524 26.1405ZM79.5524 34.0799C78.0477 34.0799 76.7532 32.8436 76.7532 31.0843C76.7532 29.3017 78.0477 28.0872 79.5524 28.0872C81.0571 28.0872 82.3575 29.3017 82.3575 31.0843C82.3575 32.8436 81.0571 34.0799 79.5524 34.0799V34.0799ZM68.6808 26.1405C65.9327 26.1405 63.6982 28.218 63.6982 31.0843C63.6982 33.9274 65.9327 36.0266 68.6808 36.0266C71.4276 36.0266 73.6635 33.9274 73.6635 31.0843C73.6635 28.218 71.4276 26.1405 68.6808 26.1405ZM68.6808 34.0799C67.1747 34.0799 65.8757 32.8436 65.8757 31.0843C65.8757 29.3017 67.1747 28.0872 68.6808 28.0872C70.1855 28.0872 71.4801 29.3017 71.4801 31.0843C71.4801 32.8436 70.1855 34.0799 68.6808 34.0799ZM55.7441 27.6558V29.7565H60.7837C60.6363 30.9303 60.2422 31.7933 59.638 32.3947C58.9024 33.1211 57.7567 33.9274 55.7441 33.9274C52.6427 33.9274 50.2142 31.4359 50.2142 28.3487C50.2142 25.2616 52.6427 22.7701 55.7441 22.7701C57.421 22.7701 58.6412 23.4224 59.5417 24.2679L61.0289 22.7875C59.7693 21.5904 58.0939 20.6708 55.7441 20.6708C51.4912 20.6708 47.917 24.1154 47.917 28.3487C47.917 32.5821 51.4912 36.0266 55.7441 36.0266C58.0428 36.0266 59.7693 35.277 61.1266 33.8707C62.5175 32.4862 62.951 30.5395 62.951 28.9676C62.951 28.4795 62.9101 28.0306 62.8371 27.6558H55.7441ZM108.644 29.2843C108.234 28.1788 106.969 26.1405 104.391 26.1405C101.837 26.1405 99.7106 28.1439 99.7106 31.0843C99.7106 33.8533 101.815 36.0266 104.636 36.0266C106.917 36.0266 108.234 34.6421 108.775 33.8358L107.082 32.7129C106.518 33.5351 105.748 34.0799 104.636 34.0799C103.531 34.0799 102.739 33.5758 102.231 32.5821L108.873 29.8465L108.644 29.2843V29.2843ZM101.872 30.9303C101.815 29.0243 103.359 28.048 104.466 28.048C105.332 28.048 106.068 28.4795 106.313 29.0969L101.872 30.9303V30.9303ZM96.4735 35.7259H98.6568V21.1982H96.4735V35.7259ZM92.8978 27.2417H92.8248C92.3344 26.6635 91.3989 26.1405 90.2138 26.1405C87.7269 26.1405 85.453 28.3139 85.453 31.1003C85.453 33.8707 87.7269 36.0266 90.2138 36.0266C91.3989 36.0266 92.3344 35.4993 92.8248 34.9036H92.8978V35.6126C92.8978 37.5026 91.8835 38.5181 90.2474 38.5181C88.9134 38.5181 88.0859 37.5593 87.7444 36.753L85.8456 37.5419C86.3929 38.8523 87.8422 40.4648 90.2474 40.4648C92.8073 40.4648 94.9673 38.9656 94.9673 35.3177V26.4412H92.8978V27.2417V27.2417ZM90.4006 34.0799C88.8959 34.0799 87.6364 32.8262 87.6364 31.1003C87.6364 29.3584 88.8959 28.0872 90.4006 28.0872C91.8835 28.0872 93.0525 29.3584 93.0525 31.1003C93.0525 32.8262 91.8835 34.0799 90.4006 34.0799V34.0799ZM118.866 21.1982H113.644V35.7259H115.822V30.2214H118.866C121.284 30.2214 123.656 28.4795 123.656 25.709C123.656 22.9401 121.279 21.1982 118.866 21.1982V21.1982ZM118.923 28.2005H115.822V23.219H118.923C120.549 23.219 121.477 24.5628 121.477 25.709C121.477 26.8335 120.549 28.2005 118.923 28.2005ZM132.384 26.1129C130.81 26.1129 129.174 26.8044 128.502 28.3371L130.434 29.1434C130.85 28.3371 131.615 28.0756 132.423 28.0756C133.553 28.0756 134.698 28.7511 134.716 29.9439V30.0964C134.322 29.8698 133.478 29.5342 132.441 29.5342C130.359 29.5342 128.239 30.6746 128.239 32.8029C128.239 34.7496 129.943 36.0034 131.86 36.0034C133.325 36.0034 134.134 35.3453 134.641 34.5797H134.716V35.7027H136.819V30.1298C136.819 27.5541 134.887 26.1129 132.384 26.1129ZM132.121 34.0741C131.409 34.0741 130.416 33.7225 130.416 32.8436C130.416 31.7192 131.654 31.2877 132.725 31.2877C133.684 31.2877 134.134 31.4983 134.716 31.7758C134.545 33.1211 133.382 34.0741 132.121 34.0741V34.0741ZM144.481 26.4311L141.978 32.7288H141.904L139.316 26.4311H136.968L140.856 35.232L138.638 40.1293H140.913L146.904 26.4311H144.481V26.4311ZM124.853 35.7259H127.036V21.1982H124.853V35.7259Z" fill="white"/>
<path d="M12.1831 9.62103C11.8401 9.97841 11.6416 10.5348 11.6416 11.2554V36.9578C11.6416 37.6784 11.8401 38.2348 12.1831 38.5922L12.2677 38.6707L26.7369 24.2737V23.9337L12.2677 9.53677L12.1831 9.62103Z" fill="url(#paint0_linear)"/>
<path d="M31.555 29.075L26.7373 24.2736V23.9336L31.5608 19.1322L31.6688 19.1947L37.3812 22.43C39.0114 23.3481 39.0114 24.859 37.3812 25.783L31.6688 29.0125L31.555 29.075V29.075Z" fill="url(#paint1_linear)"/>
<path d="M31.669 29.0125L26.7374 24.1036L12.1836 38.5921C12.7251 39.1587 13.608 39.227 14.6121 38.6604L31.669 29.0125" fill="url(#paint2_linear)"/>
<path d="M31.669 19.1948L14.6121 9.54699C13.608 8.98622 12.7251 9.0545 12.1836 9.62108L26.7374 24.1038L31.669 19.1948Z" fill="url(#paint3_linear)"/>
<defs>
<linearGradient id="paint0_linear" x1="25.4522" y1="37.2255" x2="5.94759" y2="17.631" gradientUnits="userSpaceOnUse">
<stop stop-color="#00A0FF"/>
<stop offset="0.0066" stop-color="#00A1FF"/>
<stop offset="0.2601" stop-color="#00BEFF"/>
<stop offset="0.5122" stop-color="#00D2FF"/>
<stop offset="0.7604" stop-color="#00DFFF"/>
<stop offset="1" stop-color="#00E3FF"/>
</linearGradient>
<linearGradient id="paint1_linear" x1="39.504" y1="24.102" x2="11.2523" y2="24.102" gradientUnits="userSpaceOnUse">
<stop stop-color="#FFE000"/>
<stop offset="0.4087" stop-color="#FFBD00"/>
<stop offset="0.7754" stop-color="#FFA500"/>
<stop offset="1" stop-color="#FF9C00"/>
</linearGradient>
<linearGradient id="paint2_linear" x1="28.9873" y1="21.435" x2="2.53746" y2="-5.1367" gradientUnits="userSpaceOnUse">
<stop stop-color="#FF3A44"/>
<stop offset="1" stop-color="#C31162"/>
</linearGradient>
<linearGradient id="paint3_linear" x1="8.5201" y1="47.1433" x2="20.3311" y2="35.278" gradientUnits="userSpaceOnUse">
<stop stop-color="#32A071"/>
<stop offset="0.0685" stop-color="#2DA771"/>
<stop offset="0.4762" stop-color="#15CF74"/>
<stop offset="0.8009" stop-color="#06E775"/>
<stop offset="1" stop-color="#00F076"/>
</linearGradient>
</defs>
</svg>
